<?xml version="1.0" encoding="utf-8"?>
<!-- Generator: Adobe Illustrator 24.1.0, SVG Export Plug-In . SVG Version: 6.00 Build 0)  -->
<svg version="1.1" id="Layer_1" xmlns="http://www.w3.org/2000/svg" xmlns:xlink="http://www.w3.org/1999/xlink" x="0px" y="0px"
	 viewBox="0 0 1000 1000" style="enable-background:new 0 0 1000 1000;" xml:space="preserve">
<style type="text/css">
	.st0{fill:#035ED8;}
	.st1{fill:#FFFFFF;}
</style>
<circle class="st0" cx="500" cy="500" r="481.0761"/>
<path class="st1" d="M184.8374,327.4v345.2c0,31.3,24.6,56.6,54.7999,56.6h545.3c30.3,0,54.8-25.3,54.8-56.6V327.4
	c0-31.2-24.5-56.6-54.8-56.6h-545.3C209.4373,270.8,184.8374,296.2,184.8374,327.4z M225.6373,660V348.1l169.8001,153.8
	L225.6373,660z M254.1373,688.7l170.5-156.3l27.9001,25.3c16.2,14.7,36.2,22.2,59.6999,22.2c23.6,0,43.5-7.6,59.8-22.2l27.8999-25.3
	l170.5,156.3H254.1373z M798.9373,348.1V660l-169.8-158.1L798.9373,348.1z M771.9373,311.3l-217.5,199.1c-19,17.5-33,26.2-42.1,26.2
	c-9.0999,0-23.0999-8.7-42.0999-26.2l-217.5-199.1H771.9373z"/>
</svg>
