<svg id="Layer_1" data-name="Layer 1" xmlns="http://www.w3.org/2000/svg" xmlns:xlink="http://www.w3.org/1999/xlink" viewBox="0 0 318.81755 217.90029">
  <defs>
    <style>
      .cls-1 {
        fill: #89c5cc;
      }

      .cls-1, .cls-10, .cls-15, .cls-16, .cls-2, .cls-22, .cls-23, .cls-24, .cls-25, .cls-26, .cls-27, .cls-28, .cls-29, .cls-3, .cls-31, .cls-32, .cls-34, .cls-9 {
        fill-rule: evenodd;
      }

      .cls-2 {
        fill: #69a1ac;
      }

      .cls-3, .cls-4 {
        fill: #f9f9f9;
      }

      .cls-3 {
        opacity: 0.6;
      }

      .cls-3, .cls-8 {
        isolation: isolate;
      }

      .cls-21, .cls-4, .cls-6 {
        stroke: #ffba08;
      }

      .cls-4 {
        stroke-width: 0.26187px;
      }

      .cls-20, .cls-5 {
        fill: #ffba08;
      }

      .cls-21, .cls-58, .cls-59, .cls-6, .cls-62 {
        fill: none;
      }

      .cls-18, .cls-6 {
        stroke-width: 0.25238px;
      }

      .cls-18, .cls-22, .cls-7 {
        fill: #fff;
      }

      .cls-8 {
        fill: #5d616b;
        opacity: 0.5;
      }

      .cls-19, .cls-9 {
        fill: #dde3e9;
      }

      .cls-10 {
        fill: #f2f2f2;
      }

      .cls-11 {
        fill: #f1f4f6;
      }

      .cls-12 {
        font-size: 10px;
        fill: #c40980;
        font-family: VarelaRound-Regular, Varela Round;
      }

      .cls-13 {
        letter-spacing: -0.075em;
      }

      .cls-14 {
        letter-spacing: -0.00798em;
      }

      .cls-15 {
        fill: #e7f6f0;
      }

      .cls-16 {
        fill: #c5cfd6;
      }

      .cls-17 {
        opacity: 0.4;
      }

      .cls-18 {
        stroke: #0077e4;
      }

      .cls-20 {
        fill-opacity: 0.1;
      }

      .cls-21 {
        stroke-width: 0.47989px;
      }

      .cls-22 {
        fill-opacity: 0.2;
      }

      .cls-23 {
        fill: #fcd094;
      }

      .cls-24 {
        fill: #191847;
      }

      .cls-25 {
        fill: #ce8c3b;
      }

      .cls-26 {
        fill: #004cae;
      }

      .cls-27 {
        fill: #0077e4;
      }

      .cls-28 {
        fill: #e4e4e4;
      }

      .cls-29 {
        fill: #e18812;
      }

      .cls-30 {
        fill: #d00000;
      }

      .cls-31 {
        fill: #27ae60;
      }

      .cls-32 {
        fill: #273043;
      }

      .cls-33 {
        fill: #f9aa8f;
      }

      .cls-34 {
        fill: #e2603d;
      }

      .cls-35 {
        fill: url(#linear-gradient);
      }

      .cls-36 {
        fill: url(#linear-gradient-2);
      }

      .cls-37 {
        fill: url(#linear-gradient-3);
      }

      .cls-38 {
        fill: url(#linear-gradient-4);
      }

      .cls-39 {
        fill: url(#linear-gradient-5);
      }

      .cls-40 {
        fill: url(#linear-gradient-6);
      }

      .cls-41 {
        fill: url(#linear-gradient-7);
      }

      .cls-42 {
        fill: url(#linear-gradient-8);
      }

      .cls-43 {
        fill: url(#linear-gradient-9);
      }

      .cls-44 {
        fill: url(#linear-gradient-10);
      }

      .cls-45 {
        fill: url(#linear-gradient-11);
      }

      .cls-46 {
        fill: url(#linear-gradient-12);
      }

      .cls-47 {
        fill: url(#linear-gradient-13);
      }

      .cls-48 {
        fill: url(#linear-gradient-14);
      }

      .cls-49 {
        fill: url(#linear-gradient-15);
      }

      .cls-50 {
        fill: url(#linear-gradient-16);
      }

      .cls-51 {
        fill: url(#linear-gradient-17);
      }

      .cls-52 {
        fill: url(#linear-gradient-18);
      }

      .cls-53 {
        fill: url(#linear-gradient-19);
      }

      .cls-54 {
        fill: url(#linear-gradient-20);
      }

      .cls-55 {
        fill: url(#linear-gradient-21);
      }

      .cls-56 {
        fill: url(#linear-gradient-22);
      }

      .cls-57 {
        fill: url(#linear-gradient-23);
      }

      .cls-58 {
        stroke: #965657;
        stroke-linecap: square;
      }

      .cls-58, .cls-59, .cls-62 {
        stroke-width: 0.26099px;
      }

      .cls-59 {
        stroke: #45a0d4;
      }

      .cls-60 {
        fill: #41a8df;
      }

      .cls-61 {
        fill: #fb330b;
      }

      .cls-62 {
        stroke: #fb330b;
      }

      .cls-63 {
        fill: url(#radial-gradient);
      }

      .cls-64 {
        fill: url(#radial-gradient-2);
      }
    </style>
    <linearGradient id="linear-gradient" x1="4594.55539" y1="-1527.92435" x2="4594.33969" y2="-1527.63968" gradientTransform="translate(312609.89502 -83699.75848) rotate(180) scale(67.99931 54.86082)" gradientUnits="userSpaceOnUse">
      <stop offset="0.01" stop-color="#708432"/>
      <stop offset="0.46" stop-color="#526032"/>
      <stop offset="1" stop-color="#383932"/>
    </linearGradient>
    <linearGradient id="linear-gradient-2" x1="4594.47172" y1="-1529.38726" x2="4594.51286" y2="-1529.12652" gradientTransform="translate(312610.27504 -80725.7356) rotate(180) scale(67.9994 52.86533)" xlink:href="#linear-gradient"/>
    <linearGradient id="linear-gradient-3" x1="4815.12652" y1="-1586.62179" x2="4815.01537" y2="-1585.67219" gradientTransform="translate(77224.26651 -34695.42117) rotate(180) scale(16.00011 21.94407)" gradientUnits="userSpaceOnUse">
      <stop offset="0" stop-color="#fbc19e"/>
      <stop offset="0.48" stop-color="#ffb699"/>
      <stop offset="1" stop-color="#f47e6d"/>
    </linearGradient>
    <linearGradient id="linear-gradient-4" x1="4676.26625" y1="-1535.76322" x2="4676.26625" y2="-1535.55564" gradientTransform="translate(145156.82744 -68795.1679) rotate(180) scale(31 44.88701)" xlink:href="#linear-gradient"/>
    <linearGradient id="linear-gradient-5" x1="4629.70269" y1="-1521.13117" x2="4629.58531" y2="-1521.096" gradientTransform="translate(208525.5517 -100011.33204) rotate(180) scale(44.99968 65.8329)" xlink:href="#linear-gradient"/>
    <linearGradient id="linear-gradient-6" x1="4884.88252" y1="-1721.33123" x2="4884.83278" y2="-1721.33123" gradientTransform="translate(63698.17451 -15333.2581) rotate(180) scale(13 8.978)" xlink:href="#linear-gradient"/>
    <linearGradient id="linear-gradient-7" x1="4625.99668" y1="-1546.93313" x2="4625.98948" y2="-1546.81314" gradientTransform="translate(217631.26454 -55410.12438) rotate(180) scale(47.001 35.908)" xlink:href="#linear-gradient"/>
    <linearGradient id="linear-gradient-8" x1="4672.88923" y1="-1553.04028" x2="4671.98869" y2="-1552.63104" gradientTransform="translate(149711.66251 -50986.82395) rotate(180) scale(31.99999 32.91599)" xlink:href="#linear-gradient-3"/>
    <linearGradient id="linear-gradient-9" x1="4619.66762" y1="-1512.64158" x2="4619.66762" y2="-1512.14686" gradientTransform="translate(231182.38414 -137146.9104) rotate(180) scale(50.00001 90.76997)" gradientUnits="userSpaceOnUse">
      <stop offset="0" stop-color="#fcfbff"/>
      <stop offset="0.48" stop-color="#f5ede9"/>
      <stop offset="1" stop-color="#a5adbe"/>
    </linearGradient>
    <linearGradient id="linear-gradient-10" x1="4619.79473" y1="-1519.31373" x2="4619.61536" y2="-1518.91285" gradientTransform="translate(231180.38135 -105932.10204) rotate(180) scale(49.99957 69.82298)" xlink:href="#linear-gradient-9"/>
    <linearGradient id="linear-gradient-11" x1="4586.3225" y1="-1502.90379" x2="4586.24837" y2="-1502.6892" gradientTransform="translate(357926.58997 -227672.66907) rotate(180) scale(77.99909 151.61545)" xlink:href="#linear-gradient-3"/>
    <linearGradient id="linear-gradient-12" x1="4585.39005" y1="-1503.34382" x2="4585.35648" y2="-1502.93159" gradientTransform="translate(362442.49953 -220240.38816) rotate(180) scale(78.99998 146.62791)" xlink:href="#linear-gradient-3"/>
    <linearGradient id="linear-gradient-13" x1="4598.18486" y1="-1523.3309" x2="4598.30749" y2="-1523.3309" gradientTransform="translate(299081.46323 -91021.22851) rotate(180) scale(65.00002 59.8483)" gradientUnits="userSpaceOnUse">
      <stop offset="0" stop-color="#365ead"/>
      <stop offset="1" stop-color="#0c3483"/>
    </linearGradient>
    <linearGradient id="linear-gradient-14" x1="4787.45809" y1="-1595.04193" x2="4787.71943" y2="-1595.04193" gradientTransform="translate(86386.88238 -28449.51635) rotate(180) scale(17.99964 17.95401)" gradientUnits="userSpaceOnUse">
      <stop offset="0.53" stop-color="#00076d"/>
      <stop offset="1" stop-color="#000030"/>
    </linearGradient>
    <linearGradient id="linear-gradient-15" x1="4711.43298" y1="-1589.52293" x2="4711.69397" y2="-1589.52293" gradientTransform="translate(117974.43579 -29936.97687) rotate(180) scale(24.99974 18.95206)" xlink:href="#linear-gradient-14"/>
    <linearGradient id="linear-gradient-16" x1="4663.28361" y1="-1553.32031" x2="4663.61065" y2="-1553.70084" gradientTransform="translate(158756.47079 -51026.06901) rotate(180) scale(34.00001 32.91823)" xlink:href="#linear-gradient-3"/>
    <linearGradient id="linear-gradient-17" x1="4616.24722" y1="-1530.17336" x2="4615.81763" y2="-1530.4791" gradientTransform="translate(240236.50214 -79258.11368) rotate(180) scale(51.99987 51.86788)" gradientUnits="userSpaceOnUse">
      <stop offset="0" stop-color="#774f6a"/>
      <stop offset="1" stop-color="#44426a"/>
    </linearGradient>
    <linearGradient id="linear-gradient-18" x1="4646.14365" y1="-1536.61209" x2="4646.14249" y2="-1536.32753" gradientTransform="translate(181401.16421 -68852.2198) rotate(180) scale(39.00008 44.88647)" xlink:href="#linear-gradient-17"/>
    <linearGradient id="linear-gradient-19" x1="4653.20954" y1="-1520.30653" x2="4653.17259" y2="-1519.83114" gradientTransform="translate(172376.25106 -102983.34808) rotate(180) scale(36.99982 67.82838)" xlink:href="#linear-gradient"/>
    <linearGradient id="linear-gradient-20" x1="4694.0292" y1="-1588.43575" x2="4694.08955" y2="-1588.19304" gradientTransform="translate(131643.21862 -33142.11103) rotate(180) scale(28 20.94601)" xlink:href="#linear-gradient"/>
    <linearGradient id="linear-gradient-21" x1="4595.54033" y1="-1527.92417" x2="4595.75604" y2="-1527.63972" gradientTransform="translate(312712.10203 -83699.90594) rotate(180) scale(67.99936 54.86092)" xlink:href="#linear-gradient"/>
    <linearGradient id="linear-gradient-22" x1="4595.5827" y1="-1529.37668" x2="4595.62383" y2="-1529.116" gradientTransform="translate(312711.68758 -80726.41738) rotate(180) scale(67.99927 52.86579)" xlink:href="#linear-gradient"/>
    <linearGradient id="linear-gradient-23" x1="4821.56262" y1="-1586.74665" x2="4821.65731" y2="-1585.75474" gradientTransform="translate(77366.28435 -34698.81712) rotate(180) scale(16.00011 21.94434)" xlink:href="#linear-gradient-3"/>
    <radialGradient id="radial-gradient" cx="3235.25064" cy="608.99179" r="6.88729" gradientTransform="matrix(0, -1.98198, -1.8439, 0, 1316.81366, 6509.5095)" gradientUnits="userSpaceOnUse">
      <stop offset="0" stop-color="#fd5"/>
      <stop offset="0.1" stop-color="#fd5"/>
      <stop offset="0.5" stop-color="#ff543e"/>
      <stop offset="1" stop-color="#c837ab"/>
    </radialGradient>
    <radialGradient id="radial-gradient-2" cx="6415.44296" cy="-2786.44312" r="6.88729" gradientTransform="matrix(0.17394, 0.86872, 3.5818, -0.71718, 9052.50618, -7488.13938)" gradientUnits="userSpaceOnUse">
      <stop offset="0" stop-color="#3771c8"/>
      <stop offset="0.128" stop-color="#3771c8"/>
      <stop offset="1" stop-color="#60f" stop-opacity="0"/>
    </radialGradient>
  </defs>
  <g>
    <path class="cls-1" d="M276.83186,55.114a2.84489,2.84489,0,0,0-.91575-.24619,14.85726,14.85726,0,0,0-2.86354-.26568,52.83736,52.83736,0,0,0-8.85334.79559c-1.84281.31833-4.07055,1.38962-5.90367.80781a12.56881,12.56881,0,0,0-9.45146.48328,13.244,13.244,0,0,0-6.10016,6.55239,16.64058,16.64058,0,0,0-1.1494,2.93568c-.09045.20781-.1782.41723-.25679.62989-.22343.603-.42369,1.21723-.61,1.83258-.07969.26218-.27995.84145-.042.95343a17.33784,17.33784,0,0,0-.99651,2.16852,31.25721,31.25721,0,0,0-1.99354,6.84525,10.71158,10.71158,0,0,0-.01132,2.55937c.04847.421.02854,1.26891.31442,1.58924.60619.67995.91737-.27187.849-.72517-.52167-3.45574.48615-6.70044,1.68076-9.94837A20.4267,20.4267,0,0,1,243.99186,66.32a14.544,14.544,0,0,1,3.9618-3.452,61.9857,61.9857,0,0,1,6.03449-2.99113c1.34374-.60943,2.68911-1.20216,4.07053-1.7276a4.0622,4.0622,0,0,1,1.13056-.41729,10.84456,10.84456,0,0,1,2.43663.72684,52.91765,52.91765,0,0,0,6.97015,1.81536,8.9931,8.9931,0,0,0,4.35642-.5319,4.0785,4.0785,0,0,0,.68588-.37363,9.954,9.954,0,0,0,2.91683-1.65082,11.60074,11.60074,0,0,0,1.3669-1.4729.76942.76942,0,0,0,.18033-.485c.09368-.049.15615-.10616.17015-.173C278.37587,55.09366,277.43482,55.08456,276.83186,55.114Z"/>
    <path class="cls-2" d="M273.28569,69.05007A18.05178,18.05178,0,0,0,269.199,68.81a25.38811,25.38811,0,0,0-18.73711,8.88994c-3.88966,4.60353-4.95938,10.32792-5.72762,16.11367-.07591.575-.10875,1.14564-.15181,1.72115-.00915.12382-.02315.23364-.03769.33755a.74384.74384,0,0,0-.28209.93136,38.545,38.545,0,0,0-1.712,4.491c-1.42181,4.53461-2.86839,9.15589-1.97739,13.92416a66.6625,66.6625,0,0,1,1.16985-7.8886q.04521-.22208.09637-.44146l.01022-.0463a17.25955,17.25955,0,0,1,.71979-2.31172l.00915-.02476c.03878-.09906.07969-.19812.12007-.29664.084-.20457.17065-.40861.26164-.61157.03122-.06946.06084-.13944.08936-.20943.42692-1.046.60674-2.22451.989-3.30661q.13729-.369.28748-.73486l.01778-.04253c.27079-.65626.57012-1.30445.88614-1.94564a2.39884,2.39884,0,0,0,.41184-.74132,4.61971,4.61971,0,0,0,.34186-.66057q.27942-.54025.55936-1.07995l-.01669.00592c.18734-.34509.37577-.6891.56259-1.0315q.06136-.11305.12381-.22611c.0673-.12005.13407-.24011.20136-.35962.62611-1.12087,1.28991-2.21913,1.97954-3.30338.246-.38709.83393-.94213.94645-1.37659.00431-.01669.00537-.03123.00807-.04684a24.65723,24.65723,0,0,1,5.284-5.5758c-.24979.27025-.78063,1.186-.92059,1.36744-.42962.555-.89584,1.07187-1.36368,1.59516A34.118,34.118,0,0,0,250.9647,88.852a55.69777,55.69777,0,0,0-3.5607,5.845c-.01024.01184-.02154.02315-.03124.035a14.26234,14.26234,0,0,0-1.28021,2.45546c1.55263-.71871,3.26892-1.18709,4.86248-1.82558a39.96182,39.96182,0,0,0,4.62667-2.17766,51.68815,51.68815,0,0,0,5.91442-3.76853A23.44926,23.44926,0,0,0,267.0407,84.326a26.72659,26.72659,0,0,0,4.68-7.33677A22.03677,22.03677,0,0,0,272.9029,72.782c.01078-.06245.02423-.13028.03932-.20081a13.80989,13.80989,0,0,0,.66217-1.51818C273.90265,70.242,274.60682,69.33862,273.28569,69.05007Z"/>
    <path class="cls-3" d="M313.68318,171.61047C280.21653,229.08423,198.51332,212.67392,121.44,212.5054c-77.07327-.169-116.93237-28.70485-83.49532-49.74667,23.635-14.87328,145.89454,33.58294,217.66772-3.86488C315.24444,127.78091,318.26355,163.74447,313.68318,171.61047Z"/>
    <path class="cls-4" d="M48.6148,4.52694H311.20207a4.05,4.05,0,0,1,4.05,4.05V175.68806a4.05,4.05,0,0,1-4.05,4.05H48.6148a4.05,4.05,0,0,1-4.05-4.05V8.5769A4.05,4.05,0,0,1,48.6148,4.52694Z"/>
    <path class="cls-5" d="M44.57851,19.21623a4.05,4.05,0,0,1,4.05-4.05H311.02367a4.05,4.05,0,0,1,4.0501,4.05V34.66255H44.57851Z"/>
    <path class="cls-6" d="M51.33246,11.97059a1.75312,1.75312,0,1,0-1.74962-1.75312A1.75134,1.75134,0,0,0,51.33246,11.97059Z"/>
    <path class="cls-6" d="M61.52637,11.97059a1.75312,1.75312,0,1,0-1.74967-1.75312A1.75135,1.75135,0,0,0,61.52637,11.97059Z"/>
    <path class="cls-6" d="M71.71969,11.97059A1.75312,1.75312,0,1,0,69.97,10.21747,1.75135,1.75135,0,0,0,71.71969,11.97059Z"/>
    <path class="cls-7" d="M61.64609,22.20278H305.37017a2.025,2.025,0,0,1,2.025,2.025V158.073a2.025,2.025,0,0,1-2.025,2.025H61.64609a2.025,2.025,0,0,1-2.025-2.025V24.22776A2.025,2.025,0,0,1,61.64609,22.20278Z"/>
    <path class="cls-8" d="M136.36628,41.69946h64.74536a.9571.9571,0,0,1,.85957,1.03105v.37494a.9571.9571,0,0,1-.85957,1.03105H136.36628a.9571.9571,0,0,1-.85957-1.03105v-.37494A.9571.9571,0,0,1,136.36628,41.69946Z"/>
    <path class="cls-9" d="M138.13078,78.19143a1.97019,1.97019,0,1,0-2.13029-1.9634A2.05168,2.05168,0,0,0,138.13078,78.19143Z"/>
    <path class="cls-10" d="M138.13133,77.06949a.84452.84452,0,1,0-.91307-.84146A.87943.87943,0,0,0,138.13133,77.06949Z"/>
    <path class="cls-9" d="M144.2164,78.19143a1.97015,1.97015,0,1,0-2.12975-1.9634A2.05217,2.05217,0,0,0,144.2164,78.19143Z"/>
    <path class="cls-10" d="M144.217,77.06949a.84452.84452,0,1,0-.913-.84146A.87927.87927,0,0,0,144.217,77.06949Z"/>
    <rect class="cls-11" x="77.57759" y="112.54637" width="66.33518" height="2.52412" rx="1.26205"/>
    <path class="cls-11" d="M78.83964,119.24843h42.00225a1.262,1.262,0,0,1,1.262,1.26205h0a1.26206,1.26206,0,0,1-1.262,1.26206H78.83964a1.26206,1.26206,0,0,1-1.26205-1.26206h0A1.262,1.262,0,0,1,78.83964,119.24843Z"/>
    <path class="cls-11" d="M78.83964,100.46233h63.81109a1.262,1.262,0,0,1,1.262,1.26206h0a1.262,1.262,0,0,1-1.262,1.26205H78.83964a1.262,1.262,0,0,1-1.26205-1.26205h0A1.262,1.262,0,0,1,78.83964,100.46233Z"/>
    <rect class="cls-11" x="77.57759" y="106.45375" width="44.52635" height="2.52409" rx="1.26204"/>
    <text class="cls-12" transform="translate(80.12231 44.81987)"><tspan class="cls-13">Y</tspan><tspan x="5.63989" y="0">our </tspan><tspan class="cls-14" x="24.2395" y="0">S</tspan><tspan x="30.31958" y="0">hop</tspan></text>
    <path class="cls-15" d="M4.6397,110.95282a8.419,8.419,0,0,1,4.67355-1.13432,30.47538,30.47538,0,0,1,17.04654,5.72278,39.86657,39.86657,0,0,1,7.39837,6.75319,19.7899,19.7899,0,0,1,3.16987,4.71765,16.26228,16.26228,0,0,1,1.15155,3.635,37.34,37.34,0,0,1,.65357,4.63852c.043.61158.39828,3.85628-.61841,3.91119a1.41276,1.41276,0,0,1,.001.225,49.91232,49.91232,0,0,1,4.83642,11.33248,77.205,77.205,0,0,1,2.71764,10.15619,110.6823,110.6823,0,0,1,1.65035,13.77126c.05621.99112.09475,1.98277.128,2.975q.04224,1.26945.08447,2.53891a16.36475,16.36475,0,0,1,.04716,2.98359c-.13125.821-.84205.69718-.87344-.12005-.03795-.98682-.03176-1.97579-.07494-2.96368q-.08608-1.96554-.18073-3.93165a91.92248,91.92248,0,0,0-5.2131-26.66985,62.19325,62.19325,0,0,0-4.52713-9.99251,69.623,69.623,0,0,0-5.56024-8.12117,51.46157,51.46157,0,0,0-6.32063-7.00353,48.64663,48.64663,0,0,0-6.2186-4.57176A68.15059,68.15059,0,0,0,10.093,114.99c-1.55656-.70041-3.14247-1.3276-4.71114-1.99947-.28226-.12113-.58485-.23849-.85631-.37847C3.62,112.1453,3.91814,111.44166,4.6397,110.95282Z"/>
    <path class="cls-15" d="M29.85542,142.90507a17.10831,17.10831,0,0,0-7.0627,1.32491,31.40147,31.40147,0,0,0-5.58711,3.2447,17.52757,17.52757,0,0,0-5.81682,6.47324,8.152,8.152,0,0,0-.86994,5.64094c.648,2.06731,2.42736,3.79168,4.77079,3.42721a8.63454,8.63454,0,0,0,3.87889-2.08722,14.66137,14.66137,0,0,0,3.24309-3.82129c1.42062-2.35264,2.2554-5.01267,3.46219-7.47137.57266-1.16662,1.126-2.34187,1.81191-3.45089a5.566,5.566,0,0,1,1.2161-1.501c.27559-.21858,1.43753-.5965.99317-1.08641a14.35115,14.35115,0,0,1,13.5374,11.28242c.1165.57712.20754,1.1591.30369,1.74.06073.36662.03618,1.71952.36409,1.95371.72308.51684.41912-1.05357.38811-1.27913q-.12033-.877-.25551-1.7513a14.572,14.572,0,0,0-4.25288-8.37689A14.82454,14.82454,0,0,0,29.85542,142.90507Z"/>
    <path class="cls-15" d="M71.12588,133.79062a5.51671,5.51671,0,0,0-3.115-.48991,19.9841,19.9841,0,0,0-10.83128,4.65683,26.14331,26.14331,0,0,0-4.47124,4.81132,12.97592,12.97592,0,0,0-1.81751,3.25331,10.65873,10.65873,0,0,0-.557,2.43716,24.48766,24.48766,0,0,0-.17745,3.06651c.00485.40215-.05276,2.54159.61459,2.52276a.91389.91389,0,0,0,.01147.14642,32.73433,32.73433,0,0,0-2.55064,7.66627,50.58667,50.58667,0,0,0-1.2294,6.7828,72.56992,72.56992,0,0,0-.33745,9.08806c.01664.65034.04474,1.30069.07645,1.95049q.04069.83257.0814,1.66407a10.72738,10.72738,0,0,0,.12974,1.9521c.13.52974.58773.41023.56426-.12544-.02827-.64712-.08555-1.29314-.11047-1.94079q-.0495-1.28885-.09346-2.57875A60.27467,60.27467,0,0,1,49.28448,160.945a40.77638,40.77638,0,0,1,2.42063-6.77313,45.753,45.753,0,0,1,3.19619-5.60649,33.7293,33.7293,0,0,1,3.754-4.9163,31.84464,31.84464,0,0,1,3.81752-3.32222A44.74758,44.74758,0,0,1,67.78,136.722c.97927-.5416,1.9817-1.03635,2.97067-1.56017.1782-.09422.36932-.18682.53944-.29287C71.85643,134.51472,71.62386,134.07111,71.12588,133.79062Z"/>
    <path class="cls-15" d="M56.3678,156.02761a11.21073,11.21073,0,0,1,4.68643.48559,20.55978,20.55978,0,0,1,3.82559,1.81966,11.49772,11.49772,0,0,1,4.14968,3.91659,5.3451,5.3451,0,0,1,.87161,3.63985,2.90821,2.90821,0,0,1-2.933,2.49583,5.65879,5.65879,0,0,1-2.64712-1.15477,9.61155,9.61155,0,0,1-2.32464-2.32249c-1.05519-1.46111-1.74375-3.15426-2.66435-4.69612-.43715-.73163-.86191-1.46973-1.37013-2.15776a3.64821,3.64821,0,0,0-.87537-.91574c-.19166-.1276-.9712-.31172-.70741-.65626A9.40952,9.40952,0,0,0,48.14,164.58324c-.04506.38384-.07327.76878-.10487,1.15371-.01992.24279.06891,1.12517-.13276,1.29582-.44468.37686-.33055-.66541-.32242-.81508q.03141-.579.07273-1.15747a9.55384,9.55384,0,0,1,2.32835-5.70339A9.72063,9.72063,0,0,1,56.3678,156.02761Z"/>
    <path class="cls-16" d="M34.56522,4.74149l-.00679.01433C34.56134,4.75134,34.56522,4.73343,34.56522,4.74149Z"/>
    <path class="cls-16" d="M34.56069,4.7483l-.001.00447C34.55972,4.74829,34.56844,4.73487,34.56069,4.7483Z"/>
    <path class="cls-16" d="M34.59445,4.67255c-.00684.01791-.01556.03492-.02332.05283l.01164-.02507C34.48177,4.9331,34.54589,4.78178,34.59445,4.67255Z"/>
    <path class="cls-16" d="M34.5727,4.72647l-.01169.02507C34.53286,4.80168,34.5727,4.72647,34.5727,4.72647Z"/>
    <path class="cls-16" d="M34.56134,4.74852l.001-.00179Z"/>
    <path class="cls-16" d="M34.55671,4.755c-.00582.01074.02719-.04119,0,0Z"/>
    <path class="cls-16" d="M34.56085,4.74852l.00194-.00179Z"/>
    <rect class="cls-11" x="136.00157" y="54.1589" width="67.55242" height="2.43704" rx="1.21852"/>
    <path class="cls-11" d="M137.22009,60.25164h47.4665a1.21852,1.21852,0,0,1,1.21853,1.21852h0a1.21853,1.21853,0,0,1-1.21853,1.21852h-47.4665a1.21852,1.21852,0,0,1-1.21852-1.21852h0A1.21851,1.21851,0,0,1,137.22009,60.25164Z"/>
    <rect class="cls-11" x="136.00157" y="66.34426" width="67.55242" height="3.04629" rx="1.46375"/>
    <g class="cls-17">
      <path class="cls-18" d="M223.28081,37.4449h24.95711a3.90333,3.90333,0,0,1,3.90333,3.90333V68.49082a3.90332,3.90332,0,0,1-3.90332,3.90332H223.28081a3.90333,3.90333,0,0,1-3.90333-3.90333V41.34823A3.90333,3.90333,0,0,1,223.28081,37.4449Z"/>
      <path class="cls-9" d="M235.75925,57.724c4.13569,0,7.4886-3.09083,7.4886-6.90356s-3.35291-6.90356-7.4886-6.90356c-4.13621,0-7.48914,3.09084-7.48914,6.90356S231.623,57.724,235.75925,57.724Z"/>
      <rect class="cls-19" x="224.05799" y="59.45002" width="23.40265" height="2.58883" rx="1.29441"/>
      <rect class="cls-19" x="227.80228" y="63.76498" width="15.91382" height="2.58883" rx="1.29441"/>
    </g>
    <g class="cls-17">
      <path class="cls-18" d="M262.22958,37.70891h24.95715A3.90331,3.90331,0,0,1,291.09,41.61223V68.75483a3.90332,3.90332,0,0,1-3.90332,3.90332H262.22958a3.90333,3.90333,0,0,1-3.90333-3.90333V41.61224A3.90332,3.90332,0,0,1,262.22958,37.70891Z"/>
      <path class="cls-9" d="M274.708,57.98805c4.13567,0,7.4886-3.09079,7.4886-6.90357,0-3.81272-3.35293-6.9035-7.4886-6.9035-4.13623,0-7.48914,3.09078-7.48914,6.9035C267.2189,54.89726,270.57181,57.98805,274.708,57.98805Z"/>
      <rect class="cls-19" x="263.00569" y="59.71381" width="23.4027" height="2.58883" rx="1.29441"/>
      <rect class="cls-19" x="266.75107" y="64.02877" width="15.91378" height="2.58883" rx="1.29441"/>
    </g>
    <g class="cls-17">
      <rect class="cls-18" x="219.37748" y="80.96614" width="32.76377" height="34.94924" rx="3.90333"/>
      <path class="cls-9" d="M235.75925,101.24565c4.13569,0,7.4886-3.09073,7.4886-6.9034s-3.35291-6.90394-7.4886-6.90394c-4.13621,0-7.48914,3.09127-7.48914,6.90394S231.623,101.24565,235.75925,101.24565Z"/>
      <path class="cls-19" d="M225.3524,102.97163h20.81383a1.29442,1.29442,0,0,1,1.29442,1.29441h0a1.29442,1.29442,0,0,1-1.29442,1.29441H225.3524A1.29441,1.29441,0,0,1,224.058,104.266h0A1.29441,1.29441,0,0,1,225.3524,102.97163Z"/>
      <path class="cls-19" d="M229.0967,107.28659h13.325a1.29441,1.29441,0,0,1,1.29441,1.29442h0a1.29441,1.29441,0,0,1-1.29441,1.29442h-13.325a1.29441,1.29441,0,0,1-1.29442-1.29442h0A1.29441,1.29441,0,0,1,229.0967,107.28659Z"/>
    </g>
    <g class="cls-17">
      <path class="cls-18" d="M262.22958,81.23047h24.95714A3.90331,3.90331,0,0,1,291.09,85.13378v27.1426a3.90333,3.90333,0,0,1-3.90333,3.90333H262.22958a3.90333,3.90333,0,0,1-3.90333-3.90333V85.1338A3.90333,3.90333,0,0,1,262.22958,81.23047Z"/>
      <path class="cls-9" d="M274.708,101.50944c4.13567,0,7.4886-3.09073,7.4886-6.9034s-3.35293-6.9034-7.4886-6.9034c-4.13623,0-7.48914,3.09073-7.48914,6.9034S270.57181,101.50944,274.708,101.50944Z"/>
      <rect class="cls-19" x="263.00569" y="103.23543" width="23.4027" height="2.58883" rx="1.29441"/>
      <path class="cls-19" d="M268.04548,107.55039h13.325a1.29441,1.29441,0,0,1,1.29441,1.29441h0a1.29441,1.29441,0,0,1-1.29441,1.29441H268.04548a1.29441,1.29441,0,0,1-1.29441-1.29441h0A1.29441,1.29441,0,0,1,268.04548,107.55039Z"/>
    </g>
    <g class="cls-17">
      <path class="cls-9" d="M214.61945,139.88056a2.3529,2.3529,0,1,0-2.5443-2.3451A2.45024,2.45024,0,0,0,214.61945,139.88056Z"/>
      <path class="cls-10" d="M214.62053,138.54058a1.00848,1.00848,0,1,0-1.09072-1.00512A1.05042,1.05042,0,0,0,214.62053,138.54058Z"/>
    </g>
    <g class="cls-17">
      <path class="cls-9" d="M214.61836,127.08642a2.35286,2.35286,0,1,0-2.54374-2.3451A2.4511,2.4511,0,0,0,214.61836,127.08642Z"/>
      <path class="cls-10" d="M214.62,125.74644a1.00844,1.00844,0,1,0-1.09018-1.00512A1.05008,1.05008,0,0,0,214.62,125.74644Z"/>
    </g>
    <path class="cls-11" d="M220.59653,123.61453H289.972a1.21851,1.21851,0,0,1,1.21851,1.21852h0a1.21851,1.21851,0,0,1-1.21851,1.21852H220.59653a1.21853,1.21853,0,0,1-1.21852-1.21852h0A1.21853,1.21853,0,0,1,220.59653,123.61453Z"/>
    <path class="cls-11" d="M220.59653,129.70715h50.50938a1.21854,1.21854,0,0,1,1.21853,1.21853h0a1.21853,1.21853,0,0,1-1.21853,1.21852H220.59653a1.21853,1.21853,0,0,1-1.21852-1.21852h0A1.21853,1.21853,0,0,1,220.59653,129.70715Z"/>
    <rect class="cls-11" x="219.37801" y="135.79978" width="71.81248" height="3.04629" rx="1.46375"/>
    <path class="cls-11" d="M220.84176,142.5013h68.885a1.46375,1.46375,0,0,1,1.46375,1.46375v.11882a1.46373,1.46373,0,0,1-1.46373,1.46373h-68.885a1.46375,1.46375,0,0,1-1.46375-1.46375v-.1188a1.46375,1.46375,0,0,1,1.46375-1.46375Z"/>
    <rect class="cls-5" x="141.11492" y="83.06951" width="24.60744" height="8.83342" rx="1.46375"/>
    <path class="cls-7" d="M152.79465,87.9266a.89908.89908,0,0,1,.68641.912.91125.91125,0,0,1-.16258.54,1.04082,1.04082,0,0,1-.46622.3564,1.81432,1.81432,0,0,1-.708.126h-1.86057V86.12848h1.81373a1.50689,1.50689,0,0,1,.933.26218.842.842,0,0,1,.34617.7074.8756.8756,0,0,1-.15235.50876A.859.859,0,0,1,152.79465,87.9266Zm-1.55156-.3354h.68641a.73373.73373,0,0,0,.39839-.084.29843.29843,0,0,0,.126-.26757.31246.31246,0,0,0-.13137-.27779.68834.68834,0,0,0-.393-.08883h-.68641Zm.786,1.52518a.69284.69284,0,0,0,.40377-.08937.34.34,0,0,0,.126-.29879.35312.35312,0,0,0-.12059-.30363.70675.70675,0,0,0-.40914-.08937h-.786v.78116Zm3.57579.79139a1.70412,1.70412,0,0,1-1.23716-.40861,1.62962,1.62962,0,0,1-.41939-1.21078v-2.1599h.95936V88.325a.94466.94466,0,0,0,.1782.61858.6455.6455,0,0,0,.519.2148.62417.62417,0,0,0,.50874-.2148.96184.96184,0,0,0,.17821-.61858V86.12848h.96958v2.1599a1.60672,1.60672,0,0,1-.43015,1.20539A1.68446,1.68446,0,0,1,155.6049,89.90777Zm4.18251-1.473v1.42612h-.99058v-1.4315l-1.56717-2.301h1.11119l.94374,1.48857.95935-1.48857h1.12141Z"/>
    <path class="cls-7" d="M147.87242,88.18609a1.00154,1.00154,0,0,1-.29341.72894,1.428,1.428,0,0,1-.78655.393v.603h-.75477v-.57658a2.28146,2.28146,0,0,1-1.13756-.37739l.30955-.69233a1.953,1.953,0,0,0,.90122.32516V87.8087a3.67836,3.67836,0,0,1-.597-.19919,1.11113,1.11113,0,0,1-.40915-.3354.926.926,0,0,1-.168-.57659,1.00624,1.00624,0,0,1,.30417-.7284,1.50637,1.50637,0,0,1,.79678-.40915v-.59758h.75477v.58735a2.47108,2.47108,0,0,1,.5556.14159,1.45188,1.45188,0,0,1,.42476.225l-.309.69717a2.19434,2.19434,0,0,0-.73433-.309v.786a3.42923,3.42923,0,0,1,.582.19919.98947.98947,0,0,1,.39838.32517A.92456.92456,0,0,1,147.87242,88.18609Zm-1.96071-1.55155a.31.31,0,0,0,.19919.27241v-.5712a.33832.33832,0,0,0-.14643.12059A.315.315,0,0,0,145.91171,86.63454Zm.81776,1.88695a.3087.3087,0,0,0,.168-.288.25609.25609,0,0,0-.168-.231Z"/>
    <path class="cls-20" d="M83.1808,55.37743h46.21659a1.95166,1.95166,0,0,1,1.95166,1.95166V89.66255a1.95166,1.95166,0,0,1-1.95166,1.95166H83.1808a1.95166,1.95166,0,0,1-1.95166-1.95166V57.32909a1.95167,1.95167,0,0,1,1.95167-1.95167Z"/>
    <path class="cls-20" d="M80.74687,52.94038h46.21659a1.95167,1.95167,0,0,1,1.95167,1.95167V87.2255a1.95166,1.95166,0,0,1-1.95166,1.95166H80.74687a1.95167,1.95167,0,0,1-1.95167-1.95167V54.892A1.95167,1.95167,0,0,1,80.74687,52.94038Z"/>
    <path class="cls-7" d="M212.75833,114.01449l-.80754,1.64468,4.33919-3.63985a20.92868,20.92868,0,0,1,12.898-4.88562l3.5171-.0926a17.74767,17.74767,0,1,0-5.4256-34.78241l-1.15478.33594a18.7766,18.7766,0,0,0-12.785,23.26634l.76986,2.6498A21.53685,21.53685,0,0,1,212.75833,114.01449Z"/>
    <path class="cls-20" d="M212.75833,114.01449l-.80754,1.64468,4.33919-3.63985a20.92868,20.92868,0,0,1,12.898-4.88562l3.5171-.0926a17.74767,17.74767,0,1,0-5.4256-34.78241l-1.15478.33594a18.7766,18.7766,0,0,0-12.785,23.26634l.76986,2.6498A21.53685,21.53685,0,0,1,212.75833,114.01449Z"/>
    <path class="cls-21" d="M210.01539,112.68957l-.80755,1.6447L213.547,110.695a20.92607,20.92607,0,0,1,12.898-4.88616l3.5171-.0926a17.74767,17.74767,0,1,0-5.4256-34.7824l-1.15477.33647a18.776,18.776,0,0,0-12.785,23.2658l.76986,2.64981A21.53661,21.53661,0,0,1,210.01539,112.68957Z"/>
    <path class="cls-5" d="M238.75308,91.58853a3.30287,3.30287,0,0,1-.96852,2.40432,4.70653,4.70653,0,0,1-2.59436,1.29691V97.279h-2.49044V95.37644a7.51065,7.51065,0,0,1-3.75346-1.24523L229.967,91.848a6.4571,6.4571,0,0,0,2.975,1.07242V90.3433a12.28757,12.28757,0,0,1-1.972-.65733,3.66934,3.66934,0,0,1-1.34914-1.10687,3.05608,3.05608,0,0,1-.55343-1.90257,3.31472,3.31472,0,0,1,1.0035-2.40378,4.95553,4.95553,0,0,1,2.62883-1.34913v-1.972h2.49044v1.937a8.22329,8.22329,0,0,1,1.83312.4673,4.82707,4.82707,0,0,1,1.40135.74348l-1.02073,2.30041a7.22526,7.22526,0,0,0-2.421-1.02019V87.974a11.24323,11.24323,0,0,1,1.91979.6568,3.2752,3.2752,0,0,1,1.31414,1.07241A3.04919,3.04919,0,0,1,238.75308,91.58853Zm-6.46841-5.11927a1.02341,1.02341,0,0,0,.65734.89906V85.483a1.107,1.107,0,0,0-.48452.39785A1.03874,1.03874,0,0,0,232.28467,86.46926Zm2.69827,6.22614a1.02111,1.02111,0,0,0,.55343-.95128.84372.84372,0,0,0-.55343-.7607Z"/>
    <path class="cls-5" d="M225.92556,88.70777V90.943h-3.418v3.43689h-2.25412V90.943h-3.418V88.70777h3.418v-3.4369h2.25412v3.4369Z"/>
    <path class="cls-22" d="M196.46969,140.69456l-4.83125-2.25465v2.25465Z"/>
    <path class="cls-23" d="M129.04164,120.856a5.78706,5.78706,0,0,0,3.46,1.09772c1.6377-.42208,1.7879-6.41188.52113-8.77313s-7.77985-3.39059-8.10824,1.28776a5.92369,5.92369,0,0,0,1.57524,4.2552l-1.80674,8.41942h5.2474Z"/>
    <path class="cls-24" d="M129.30382,114.98461a4.25182,4.25182,0,0,1,1.45626-1.48965c2.30688.03607,2.5766-.37738,2.5766-1.7712a8.12435,8.12435,0,0,0-3.1591-.84146,3.80311,3.80311,0,0,0-2.498.18358,3.35741,3.35741,0,0,0-2.51844,2.06515,4.53655,4.53655,0,0,0,1.2883,6.013c.38977-.46192.73-.9093,1.03365-1.33783a1.31153,1.31153,0,0,1,.91628-2.24981,1.39687,1.39687,0,0,1,.15829.00915,28.27678,28.27678,0,0,0,.519,5.03475c.41562,1.25492,2.83986,1.56286,3.68508,1.56286.73056,0,.70579-.69179.68749-1.18708-.00215-.07161-.00485-.1389-.00485-.1992,0-.127-.16473-.12652-.35047-.126-.24173.00053-.51952.00107-.51952-.27618,0-.302.41777-.53406.79139-.74133a1.821,1.821,0,0,0,.53567-.37092c.27456-.38386.36662-.90123-.04684-.90123a2.83963,2.83963,0,0,0-.90929.287,5.30422,5.30422,0,0,1-2.04738.53352c-1.2926,0-1.59409-4.19706-1.59409-4.19706Z"/>
    <path class="cls-23" d="M123.651,143.58233l14.82268,24.78074,11.11284,20.95031h2.39355l-18.61974-45.731Z"/>
    <path class="cls-25" d="M148.63743,188.10583a.36355.36355,0,0,0-.49313.19758,5.23938,5.23938,0,0,0-.35532,1.38035,12.81554,12.81554,0,0,0,.1798,1.5747H159.22s.43876-1.4498-.50606-1.56555-1.56987-.20888-1.56987-.20888l-5.24847-2.33918a.17919.17919,0,0,0-.239.09529l-.344.83446a4.52256,4.52256,0,0,1-1.42181.40809A3.84541,3.84541,0,0,1,148.63743,188.10583Z"/>
    <path class="cls-26" d="M146.50068,185.95884l4.61644-1.3965s-3.03366-9.06869-7.43638-19.95973-9.45684-21.02028-9.45684-21.02028H121.187A240.2272,240.2272,0,0,0,133.10034,166.867,177.98735,177.98735,0,0,0,146.50068,185.95884Z"/>
    <path class="cls-23" d="M122.67714,143.58233a199.69848,199.69848,0,0,1-4.35157,20.17722q-.25518.3432-18.33495,6.14376l.51737,2.11038q21.56053-3.11066,22.721-4.82694c1.16016-1.71576,6.95508-15.27383,9.2-23.60442Z"/>
    <path class="cls-27" d="M104.22806,168.07881l.91091,3.39922q16.12578,1.4148,19.7616-2.04363,3.63474-3.45869,8.28645-25.85207H120.75519q-2.94671,18.33765-3.2953,19.10695Q117.11185,163.4597,104.22806,168.07881Z"/>
    <path class="cls-28" d="M104.22806,168.07881l.91091,3.39922q16.12578,1.4148,19.7616-2.04363,3.63474-3.45869,8.28645-25.85207H120.75519q-2.94671,18.33765-3.2953,19.10695Q117.11185,163.4597,104.22806,168.07881Z"/>
    <path class="cls-25" d="M100.90638,169.4877a.36363.36363,0,0,0-.2805-.45114,5.2618,5.2618,0,0,0-1.42072-.11037,12.92078,12.92078,0,0,0-1.5198.45061c.10875.61642,1.95371,11.08054,1.95371,11.08054s1.50418.17982,1.45412-.7704c-.05061-.95074-.0673-1.58278-.0673-1.58278l1.39274-5.57419a.17917.17917,0,0,0-.13567-.2191l-.88129-.19382a4.51976,4.51976,0,0,1-.64873-1.32921A3.83832,3.83832,0,0,1,100.90638,169.4877Z"/>
    <path class="cls-23" d="M140.67669,127.36206l-6.92386,3.79221,2.55722,2.74457,5.031-4.60676q3.97553-1.09582,3.6361-1.60324a.79538.79538,0,0,0-.78171-.266c-.22126.007-.42692.01347-.55182-.12-.28424-.30525.25842-1.37282.81669-2.36448.55882-.99112-.03875-.90445-.38008-.76232A17.14039,17.14039,0,0,0,140.67669,127.36206Zm7.57742,6.28967-3.04119,1.67053.17334,3.052a14.3636,14.3636,0,0,1,3.66463-1.894c2.16044-.60242,3.03473-1.06272,4.091-2.40809.56475-.71978,1.04442-2.1669.5066-2.6385-.20619-.18035-.975.24657-1.75936.68211a7.424,7.424,0,0,1-1.57794.7467c-.50336.10337-.44468-.54913-.39731-1.07026.03391-.37363.06138-.68049-.1292-.59166C148.89476,131.21564,148.25411,133.65173,148.25411,133.65173Z"/>
    <path class="cls-29" d="M129.99508,130.78711a1.21052,1.21052,0,0,1,1.00081-.49421,16.8535,16.8535,0,0,0,6.975-1.84281,1.63026,1.63026,0,0,1,2.23743.72947l.20941.46676a1.43758,1.43758,0,0,1-.337,1.67323c-2.30042,2.02531-5.263,3.57848-7.88753,3.50472A2.65152,2.65152,0,0,1,129.99508,130.78711Z"/>
    <path class="cls-30" d="M123.84161,151.01439a41.381,41.381,0,0,0-4.32034-.42422,1.70732,1.70732,0,0,1-1.70714-1.2264c-.84469-3.90042.21642-6.39949,1.1887-8.793a12.82771,12.82771,0,0,0,1.27-4.88885c.00377-5.13757,4.12923-13.04555,4.736-13.04555h4.133a1.59837,1.59837,0,0,1,1.55748,1.39328,59.49668,59.49668,0,0,0,2.21105,8.69237q.24226.78816.48129,1.57631a1.33022,1.33022,0,0,0,1.13164.98252c3.23017.27564,8.4022-1.20808,10.79089-1.96879a1.49748,1.49748,0,0,1,1.845.81023,20.8761,20.8761,0,0,1,1.48911,4.58468,1.19476,1.19476,0,0,1-.70472,1.20862A32.3465,32.3465,0,0,1,136.92,143.444a1.74212,1.74212,0,0,0-1.54671,1.66244,11.70733,11.70733,0,0,1-1.053,4.58092C133.12672,152.22516,128.541,151.39556,123.84161,151.01439Z"/>
    <path class="cls-31" d="M280.49165,125.37874c5.14187,7.95266,11.13113,15.65283,14.72793,24.3479-.14484-1.0245-.29826-2.04846-.47054-3.07082-.91252-5.41967-2.04685-10.7995-3.23877-16.17288-.60674-2.736-1.249-5.46221-1.90743-8.18793-.35422-1.46381-.70361-2.92868-1.06542-4.39141-.0872-.35424-.16255-.97335-.2724-1.60055,3.49557,10.57395,6.86627,21.156,9.33194,31.984q.48534,2.13111.82479,4.25522c.077-.323.15289-.646.23632-.968a59.35941,59.35941,0,0,1,4.27567-11.30449,33.55846,33.55846,0,0,1,2.98251-4.98953c.7182-.98089,2.4124-2.147,3.06758-3.1521-3.58386,6.05978-4.87808,13.642-6.94753,20.23-.505,1.60754-1.01321,3.21241-1.51118,4.82049,3.12087-5.76962,7.96234-10.50988,14.69454-12.56373-8.14862,4.96315-13.03638,13.65552-16.3301,22.54492-.01074.10553-.02366.21106-.035.31657a12.17529,12.17529,0,0,1,3.845-4.30365c3.54133-2.29934,7.46975-1.62962,10.905.34293-2.69611-1.57954-7.56879-.14105-9.83747,1.46488a21.66959,21.66959,0,0,0-4.21695,4.196c-.28913.36071-.68264.78118-1.09936,1.23016a51.9764,51.9764,0,0,1-2.88074,10.40113,24.08884,24.08884,0,0,0,.12328-3.30337c.00644-.07969.01183-.15937.01883-.239q-.30765,1.13055-.59274,2.231a28.30432,28.30432,0,0,0,.74455-4.33273q.0622-.95048.12437-1.901-.02021-1.804-.15828-3.61994c-.32248-1.17523-.68317-2.28425-.98091-3.20593a39.89405,39.89405,0,0,0-4.5852-9.48806,38.10575,38.10575,0,0,0-6.32682-7.39385c-1.31735-1.19838-2.69555-2.33918-4.0544-3.49611-.491-.41777-1.36959-1.446-2.12919-1.98225,5.5322,2.81131,11.22589,5.85306,15.26143,10.38283q-.7098-2.51228-1.53057-4.94431C288.7264,141.30614,285.2443,132.79842,280.49165,125.37874Z"/>
    <path class="cls-32" d="M286.01846,170.39538c0,9.11659.78276,16.50722,11.2948,16.50722,10.5115,0,11.29479-7.39063,11.29479-16.50722"/>
    <g>
      <path class="cls-33" d="M180.86506,117.33375a55.46733,55.46733,0,0,1-.12528-5.66865c.09-1.18749.70545-3.82869,2.40631-4.69569,1.70112-.86726,2.03257-.91581,1.16714,1.07944-.86544,1.995-.42828,2.33871-.22575,2.23432.20278-.1044.64725-.80045.77043-.65665a4.108,4.108,0,0,1-1.0296,2.31549c-.571.42462-.795.17094-.59583,2.01482"/>
      <path class="cls-34" d="M189.7984,112.18l1.0544-.997,1.01185,1.03272-2.99875,3.0486-.83516-.83333.89336-1.07606-16.7387-9.87264,6.57193-7.30582Z"/>
      <path class="cls-35" d="M194.73969,120.5713c-3.23808-.14093-11.59569-1.13529-11.06327-7.63232a.97872.97872,0,0,0-.32885-.826.99171.99171,0,0,0-.86543-.2234l-1.95167.43611a2.44626,2.44626,0,0,0-1.53748,1.06979,2.41906,2.41906,0,0,0-.32257,1.83735c.77174,3.36831,3.21275,9.23792,10.874,10.68066,6.39863,1.20863,6.994-1.89869,6.77811-3.86157A1.66713,1.66713,0,0,0,194.73969,120.5713Z"/>
      <path class="cls-36" d="M195.99347,121.32791c.07569.2174-.00914,4.59521-6.31773,2.89226s-7.73724-3.73108-9.81914-7.64354c-1.54922-2.90662-.42619-3.88011.25394-4.18912a2.43841,2.43841,0,0,0-1.43961,2.786c.76652,3.39153,3.20832,9.28907,10.8717,10.7386,6.40021,1.21437,6.996-1.90782,6.77994-3.88011a1.67755,1.67755,0,0,0-.11327-.44889c-.14589-.1887-.22862-.28944-.21583-.25525Z"/>
      <path class="cls-37" d="M184.3923,108.08174c.90093-2.03649.56348-1.98533-1.21463-1.09876-1.65153.81689-2.31027,3.183-2.47364,4.4869-.108,1.18489,1.46805.46717,1.5654.15738.09709-.30927.29492-1.074.9761-1.01994.50892-.23228.50892-.33772.48126-.32259C183.54879,110.20513,183.47493,110.11822,184.3923,108.08174Z"/>
      <path class="cls-38" d="M193.82362,135.79472s-.23489-1.72252-1.78516-1.1995a2.35071,2.35071,0,0,0-1.62412,2.00282l-1.8859-2.636,2.82989-7.41805,2.06285-1.66093,3.19788,3.07574"/>
      <path class="cls-39" d="M198.707,119.6769h-3.81147a.99463.99463,0,0,0-.773.34059,1.35825,1.35825,0,0,0-.03445,1.48763c.64412,1.53043-7.2599,8.02354-7.12366,9.88386.10178,1.36575,1.911,4.02,2.86747,5.33381a.33469.33469,0,0,0,.36512.12135.32883.32883,0,0,0,.23567-.30065c.08169-2.31548.47552-8.22634,2.40109-10.81246a12.50007,12.50007,0,0,1,3.82791-3.23495"/>
      <path class="cls-40" d="M195.05313,119.67664H198.446v.16129l-1.63039,2.18186-1.29319-.80593S196.04593,119.84993,195.05313,119.67664Z"/>
      <path class="cls-41" d="M209.25765,137.37891a7.23859,7.23859,0,0,0-3.243-2.48121c-2.18211-.84455-3.28426.21584-3.68436,1.14783-.40009.93172-3.36256-.06081-3.36256-.06081l3.60841-6.90626,4.66646-1.07109,3.99181,2.5809"/>
      <path class="cls-33" d="M197.37723,118.08305a1.67163,1.67163,0,0,1,.53737,1.847,1.84411,1.84411,0,0,1-1.3326,1.0215,1.9778,1.9778,0,0,0-1.35975,1.4036l-.69109,2.6177,1.48058,3.03425,4.0962-.16025,2.78553-2.95855,1.29423-3.56745a5.10907,5.10907,0,0,1-1.73087-3.46644"/>
      <path class="cls-42" d="M196.91815,128.0071l-1.08206-.63759s.41758-1.25587,1.32765-1.02385,1.06013-.05324.71223-1.30912c-.19783-.70832,1.92453-.70832.76548.85213-.63185.85369.866.57939,1.33834.45151a1.719,1.719,0,0,0,1.28172-1.61708c-.01645-.96539-1.64788-1.43465-2.4572-2.44441-.80933-1.0095-.27091-2.86225-.27091-2.86225l4.61974.82185a4.7125,4.7125,0,0,0,1.03456,1.23969l-1.29633,3.50741-2.79074,2.90819-3.18248.11327Z"/>
      <path class="cls-43" d="M193.6712,131.80761c-.21531-2.75081-2.15262-4.06436-.67987-6.585,2.42536-4.13822,3.29-4.24444,3.29-4.24444s-4.16014,5.38522,2.19752,5.43376c3.68619.03053,5.25028-4.20112,5.5606-5.18008a11.98767,11.98767,0,0,0-.11849,1.686,9.86162,9.86162,0,0,0,1.51764,5.51806l.02506.14406a1.815,1.815,0,0,1-.1579,1.12434l-2.99561,6.07971a2.46112,2.46112,0,0,0,.59922,2.9489l.89676.77174-3.71647,4.37389s-6.79507,3.39493-6.79507-3.89524c.00182-.00366.8195-2.49374.3766-8.1757Z"/>
      <path class="cls-44" d="M202.89529,138.84331l.90432.76887-3.308,3.84618-.74512.16834-1.87728-1.19715s2.56812-.43559,2.08007-1.97151c-.48857-1.53565-2.19752-1.301-2.2231-4.08445-.02714-2.72941-4.08367-5.09135-4.26453-5.19-.24794-1.20786-.78505-2.13984-1.01838-3.09505a4.39417,4.39417,0,0,0,.8717.93172c2.17037,1.81569,7.44963,1.6043,9.55685.606,1.425-.6757,1.41429-2.86747,1.26579-4.22252a9.20231,9.20231,0,0,0,.86465,2.47338l.03993.07334q.07113.13089.14824.25838l.04881.08221c.06525.10387.13023.20618.19887.30457l.02532.14355a1.78829,1.78829,0,0,1-.15921,1.12016l-3.02014,6.0557a2.43108,2.43108,0,0,0,.61123,2.92828Z"/>
      <path class="cls-45" d="M191.40244,151.8927c.27247,8.36518,8.39388,23.51577,18.65618,33.64653h1.69772s-16.70973-26.66746-10.20253-39.43759l-4.1805-.12945a5.83409,5.83409,0,0,0-4.28019,1.68285,5.70359,5.70359,0,0,0-1.69068,4.23765Z"/>
      <path class="cls-46" d="M207.87337,152.24738c-1.89373,5.01488-8.01859,22.81137-17.92359,33.03165h-2.46529s7.03362-6.034,11.62909-36.2311l6.16453-2.02944c2.15315-.18869,3.3563,3.20676,2.59526,5.22889Z"/>
      <path class="cls-47" d="M198.90009,152.59711s3.60137-2.60962,8.43408,1.37905c0,0,3.87828-8.57083-3.421-14.25436,0,0-6.74314,6.06013-10.54964.47526,0,0-3.16891,8.69663-1.45657,14.9773.00521.00183.6877,1.14573,6.99342-2.57725Z"/>
      <path class="cls-48" d="M211.88162,185.53949h-1.82613a.38837.38837,0,0,0-.35521.22654.36616.36616,0,0,0,.07308.40557l2.34184,2.39587a.3784.3784,0,0,1-.07412.59087l-1.02829.64125a.22835.22835,0,0,0-.09839.25968.23855.23855,0,0,0,.22862.166h3.2232l-2.4846-4.68578Z"/>
      <path class="cls-49" d="M185.33865,188.75512,186.51,185.908a.9427.9427,0,0,1,.88867-.629h2.43475l-4.05392,4.94624h-2.161a.30668.30668,0,0,1-.302-.23489.302.302,0,0,1,.16677-.34163l1.85562-.89363Z"/>
      <path class="cls-33" d="M193.40917,110.42306l-.1827,4.90318a.56374.56374,0,0,0,.274.50188.92756.92756,0,0,1,.41288.5418c.18269.63212.65038,1.87833,1.65519,1.62544a2.19444,2.19444,0,0,1,2.66181,1.68128l4.1304-1.656s-.83856-6.60612-3.93309-7.97317a4.68278,4.68278,0,0,0-5.0188.37556Z"/>
      <path class="cls-50" d="M193.48721,115.5191c.08743-.011.41053-.06864.416-.29282a10.741,10.741,0,0,0,.10335-1.98821c-.09265-.02871-.357-.14276-.49431-.20957l.10179-2.67513.01044-.00887c.02166-.018.07151-.06133.15006-.11927l.94791-.11562,3.92708-.06525c1.29607.66709,2.17246,2.30452,2.74742,3.91847l.01409.03993c.0261.07465.05194.14929.07673.22419q.07073.20755.13389.41758l.025.08091.05351.18086.03393.11588.06446.23124.0462.1699.03392.13206.03915.15711.02871.11223c.01957.083.03915.166.059.24559l.01592.07412.04307.18086.01774.08117.04463.2114v.02348l.23385,1.31617s-.3124.11927-.32833.13572l-.33928.14093a5.74849,5.74849,0,0,1-4.61974-.18087,1.897,1.897,0,0,0-.86935-.1806c.05167-.02192.1177-.0381.17851-.07046,1.74053-.79184.76209-4.62523-1.41716-3.89316-1.23708.41576-.86961,2.40187-.86961,2.40187a.93939.93939,0,0,0-.11588-.25837.91287.91287,0,0,0-.17852-.20775.883.883,0,0,0-.10883-.08326.55881.55881,0,0,1-.2054-.24219Z"/>
      <path class="cls-51" d="M193.50861,109.23426a8.64,8.64,0,0,1,6.46727-1.39237c4.61139.85735,2.50966,6.1186,4.62757,7.78918,2.11818,1.67032,1.62152,5.5747,1.62152,5.5747H204.1342s-6.23448.46012-5.61933-2.06807c.61489-2.52793-.06185-6.01864-2.70409-6.10972a3.14722,3.14722,0,0,1-2.60962-1.23708c-.07647-.11614-.16729-.22132-.25107-.33172A1.64054,1.64054,0,0,1,193.50861,109.23426Z"/>
      <path class="cls-52" d="M198.49086,112.186c-2.048-1.43543-.42724-2.3528,2.506-1.62,2.00622.50136,1.93914-.25316,1.69642-.78192,1.0035,1.97463.47839,4.858,1.925,6.02177,2.10956,1.6959,1.60429,5.65978,1.60429,5.65978H204.142s-6.20368.46717-5.5914-2.09965c.59218-2.48669-.02166-5.8931-2.45355-6.18462C196.09708,113.18144,200.53883,113.62146,198.49086,112.186Z"/>
      <path class="cls-53" d="M206.44994,119.67664h-1.377a.97676.97676,0,0,0-.97609.85317c-.23567,1.96732-.55852,6.79612,1.58941,8.801a10.2982,10.2982,0,0,1,3.50324,7.65294.40479.40479,0,0,0,.27534.37269.41366.41366,0,0,0,.45047-.124c1.8705-2.38594,6.05439-8.50428,1.87232-10.86152-4.31256-2.43241-4.89873-5.38861-4.98016-6.36523a.36069.36069,0,0,0-.35756-.32884Z"/>
      <path class="cls-54" d="M211.57183,126.58707a3.35543,3.35543,0,0,1,1.75044,2.72158c-.15007-.8717-.79027-1.97359-2.87869-1.76741-2.80719.27717-4.429-2.38047-4.429-2.38047l2.262-1.31877a11.69263,11.69263,0,0,0,3.29524,2.74507Z"/>
      <path class="cls-33" d="M221.76862,116.81308a55.46842,55.46842,0,0,0,.12527-5.66865c-.09-1.1875-.70545-3.82869-2.4063-4.69569-1.70112-.86726-2.03257-.91581-1.16714,1.07944s.42827,2.33871.22575,2.23432c-.20279-.1044-.64726-.80045-.77044-.65665a4.10809,4.10809,0,0,0,1.0296,2.31549c.571.42462.795.17094.59583,2.01482"/>
      <path class="cls-55" d="M206.85,120.565c3.23807-.14119,11.59568-1.13451,11.06326-7.62684a.97745.97745,0,0,1,.32885-.82525.99253.99253,0,0,1,.86543-.2234l1.95167.43585a2.44624,2.44624,0,0,1,1.53748,1.069,2.41571,2.41571,0,0,1,.32258,1.83605c-.77174,3.37118-3.20911,9.23636-10.874,10.68327-6.39864,1.20785-6.994-1.89738-6.77811-3.859a1.66634,1.66634,0,0,1,1.58289-1.49Z"/>
      <path class="cls-56" d="M205.60173,121.32556c-.07568.2174.00887,4.5939,6.31564,2.89148,6.30651-1.70242,7.73489-3.73,9.816-7.64172,1.5487-2.90557.42619-3.8788-.25368-4.1878a2.43789,2.43789,0,0,1,1.43909,2.78552c-.77174,3.38866-3.20911,9.28463-10.87379,10.73938-6.39838,1.21385-6.99369-1.9073-6.77785-3.87906a1.684,1.684,0,0,1,.11326-.4489C205.53153,121.39211,205.61426,121.29163,205.60173,121.32556Z"/>
      <path class="cls-57" d="M218.24137,107.3006c-.90093-2.03648-.56348-1.98507,1.21463-1.09876,1.65153.8169,2.31027,3.183,2.47364,4.48717.108,1.18488-1.46805.4669-1.5654.15737-.09709-.30953-.21662-1.12825-.97609-1.0202s-.991-.30014-.991-.30014a.43509.43509,0,0,0,.07725.05481C218.69444,109.68159,219.15874,109.33735,218.24137,107.3006Z"/>
      <path class="cls-58" d="M174.82659,91.95714l-1.56593-5.46822m-1.95741,6.77942L166.475,89.35352m3.91482,8.11228-5.48075-1.08727"/>
      <circle class="cls-59" cx="172.60819" cy="107.49217" r="0.52198"/>
      <circle class="cls-60" cx="170.78128" cy="88.44007" r="0.52198"/>
      <circle class="cls-61" cx="188.91992" cy="104.7518" r="0.65247"/>
      <circle class="cls-62" cx="181.61227" cy="93.79031" r="0.65247"/>
    </g>
  </g>
  <g>
    <path class="cls-63" d="M197.125,82.4733c-2.87592,0-3.717.003-3.88051.01653a3.41768,3.41768,0,0,0-1.35754.34118,2.74993,2.74993,0,0,0-.79151.57938,2.95625,2.95625,0,0,0-.79786,1.67542,12.43108,12.43108,0,0,0-.06294,2.03312c-.00106.54844,0,1.27023,0,2.23837,0,2.87359.00318,3.71384.01695,3.877a3.4599,3.4599,0,0,0,.32847,1.33083,2.902,2.902,0,0,0,1.88076,1.5364,4.88746,4.88746,0,0,0,1.00025.13244c.17059.00742,1.90937.01272,3.6492.01272s3.47967-.00212,3.646-.0106a4.70674,4.70674,0,0,0,1.03628-.13562,2.88428,2.88428,0,0,0,1.88076-1.53958,3.40325,3.40325,0,0,0,.32476-1.30509c.00932-.11867.01324-2.01077.01324-3.90032,0-1.88987-.00423-3.77847-.01356-3.89714a3.36508,3.36508,0,0,0-.33133-1.31813,2.73038,2.73038,0,0,0-.58966-.80782,2.97418,2.97418,0,0,0-1.67721-.796,12.41365,12.41365,0,0,0-2.03249-.06315Z"/>
    <path class="cls-64" d="M197.125,82.4733c-2.87592,0-3.717.003-3.88051.01653a3.41768,3.41768,0,0,0-1.35754.34118,2.74993,2.74993,0,0,0-.79151.57938,2.95625,2.95625,0,0,0-.79786,1.67542,12.43108,12.43108,0,0,0-.06294,2.03312c-.00106.54844,0,1.27023,0,2.23837,0,2.87359.00318,3.71384.01695,3.877a3.4599,3.4599,0,0,0,.32847,1.33083,2.902,2.902,0,0,0,1.88076,1.5364,4.88746,4.88746,0,0,0,1.00025.13244c.17059.00742,1.90937.01272,3.6492.01272s3.47967-.00212,3.646-.0106a4.70674,4.70674,0,0,0,1.03628-.13562,2.88428,2.88428,0,0,0,1.88076-1.53958,3.40325,3.40325,0,0,0,.32476-1.30509c.00932-.11867.01324-2.01077.01324-3.90032,0-1.88987-.00423-3.77847-.01356-3.89714a3.36508,3.36508,0,0,0-.33133-1.31813,2.73038,2.73038,0,0,0-.58966-.80782,2.97418,2.97418,0,0,0-1.67721-.796,12.41365,12.41365,0,0,0-2.03249-.06315Z"/>
    <path class="cls-7" d="M197.1218,84.27459c-1.38127,0-1.55462.006-2.09713.03073a3.73236,3.73236,0,0,0-1.23441.23628,2.60166,2.60166,0,0,0-1.488,1.48734,3.7151,3.7151,0,0,0-.23629,1.23441c-.02426.54251-.03062.716-.03062,2.09724s.00615,1.55409.03073,2.09659a3.73774,3.73774,0,0,0,.23629,1.23442,2.60265,2.60265,0,0,0,1.48723,1.488,3.73561,3.73561,0,0,0,1.23462.23629c.54251.02468.71575.03072,2.09692.03072,1.38137,0,1.55419-.006,2.0967-.03072a3.738,3.738,0,0,0,1.23505-.23629,2.60592,2.60592,0,0,0,1.48733-1.48787,3.76983,3.76983,0,0,0,.23629-1.23441c.02437-.54251.03073-.71543.03073-2.0967s-.00636-1.55462-.03073-2.09713a3.768,3.768,0,0,0-.23629-1.23441,2.6021,2.6021,0,0,0-1.48765-1.48745,3.744,3.744,0,0,0-1.23547-.23628c-.54251-.02469-.71522-.03073-2.09692-.03073Zm-.45626.91654c.13542-.00021.28652,0,.45626,0,1.358,0,1.51891.00487,2.05517.02924a2.81607,2.81607,0,0,1,.9443.17515,1.6853,1.6853,0,0,1,.96507.96528,2.81019,2.81019,0,0,1,.17514.94409c.02437.53615.02967.69721.02967,2.05453s-.0053,1.51838-.02967,2.05453a2.813,2.813,0,0,1-.17514.94409,1.68665,1.68665,0,0,1-.96507.96464,2.80549,2.80549,0,0,1-.9443.17526c-.53615.02437-.69721.02967-2.05517.02967-1.35807,0-1.519-.0053-2.05517-.02967a2.82148,2.82148,0,0,1-.9444-.17536,1.685,1.685,0,0,1-.96549-.965,2.81012,2.81012,0,0,1-.17515-.94409c-.02437-.53615-.02925-.69721-.02925-2.05538s.00488-1.51838.02925-2.05453a2.81549,2.81549,0,0,1,.17515-.9443,1.68548,1.68548,0,0,1,.96549-.96549,2.80938,2.80938,0,0,1,.9444-.17536c.46919-.0212.651-.02755,1.59891-.02861Zm3.17112.84449a.61021.61021,0,1,0,0-.00022Zm-2.71486.7131a2.61151,2.61151,0,1,1-.00011,0Zm0,.91653a1.69534,1.69534,0,1,1-1.69533,1.69534A1.69534,1.69534,0,0,1,197.1218,87.66525Z"/>
  </g>
</svg>
