<svg id="Layer_1" data-name="Layer 1" xmlns="http://www.w3.org/2000/svg" xmlns:xlink="http://www.w3.org/1999/xlink" viewBox="0 0 450 328.971">
  <defs>
    <style>
      .cls-1 {
        fill: #89c5cc;
      }

      .cls-1, .cls-10, .cls-12, .cls-13, .cls-19, .cls-2, .cls-20, .cls-21, .cls-22, .cls-23, .cls-24, .cls-25, .cls-26, .cls-28, .cls-29, .cls-3, .cls-31, .cls-9 {
        fill-rule: evenodd;
      }

      .cls-2 {
        fill: #69a1ac;
      }

      .cls-3, .cls-4 {
        fill: #f9f9f9;
      }

      .cls-3 {
        opacity: 0.6;
      }

      .cls-3, .cls-8 {
        isolation: isolate;
      }

      .cls-18, .cls-4, .cls-6 {
        stroke: #ffba08;
      }

      .cls-4 {
        stroke-width: 0.36667px;
      }

      .cls-17, .cls-5 {
        fill: #ffba08;
      }

      .cls-18, .cls-55, .cls-56, .cls-59, .cls-6 {
        fill: none;
      }

      .cls-15, .cls-6 {
        stroke-width: 0.35339px;
      }

      .cls-15, .cls-19, .cls-7 {
        fill: #fff;
      }

      .cls-8 {
        fill: #5d616b;
        opacity: 0.5;
      }

      .cls-16, .cls-9 {
        fill: #dde3e9;
      }

      .cls-10 {
        fill: #f2f2f2;
      }

      .cls-11 {
        fill: #f1f4f6;
      }

      .cls-12 {
        fill: #e7f6f0;
      }

      .cls-13 {
        fill: #c5cfd6;
      }

      .cls-14 {
        opacity: 0.4;
      }

      .cls-15 {
        stroke: #0077e4;
      }

      .cls-17 {
        fill-opacity: 0.1;
      }

      .cls-18 {
        stroke-width: 0.67194px;
      }

      .cls-19 {
        fill-opacity: 0.2;
      }

      .cls-20 {
        fill: #fcd094;
      }

      .cls-21 {
        fill: #191847;
      }

      .cls-22 {
        fill: #ce8c3b;
      }

      .cls-23 {
        fill: #004cae;
      }

      .cls-24 {
        fill: #0077e4;
      }

      .cls-25 {
        fill: #e4e4e4;
      }

      .cls-26 {
        fill: #e18812;
      }

      .cls-27 {
        fill: #d00000;
      }

      .cls-28 {
        fill: #27ae60;
      }

      .cls-29 {
        fill: #273043;
      }

      .cls-30 {
        fill: #f9aa8f;
      }

      .cls-31 {
        fill: #e2603d;
      }

      .cls-32 {
        fill: url(#linear-gradient);
      }

      .cls-33 {
        fill: url(#linear-gradient-2);
      }

      .cls-34 {
        fill: url(#linear-gradient-3);
      }

      .cls-35 {
        fill: url(#linear-gradient-4);
      }

      .cls-36 {
        fill: url(#linear-gradient-5);
      }

      .cls-37 {
        fill: url(#linear-gradient-6);
      }

      .cls-38 {
        fill: url(#linear-gradient-7);
      }

      .cls-39 {
        fill: url(#linear-gradient-8);
      }

      .cls-40 {
        fill: url(#linear-gradient-9);
      }

      .cls-41 {
        fill: url(#linear-gradient-10);
      }

      .cls-42 {
        fill: url(#linear-gradient-11);
      }

      .cls-43 {
        fill: url(#linear-gradient-12);
      }

      .cls-44 {
        fill: url(#linear-gradient-13);
      }

      .cls-45 {
        fill: url(#linear-gradient-14);
      }

      .cls-46 {
        fill: url(#linear-gradient-15);
      }

      .cls-47 {
        fill: url(#linear-gradient-16);
      }

      .cls-48 {
        fill: url(#linear-gradient-17);
      }

      .cls-49 {
        fill: url(#linear-gradient-18);
      }

      .cls-50 {
        fill: url(#linear-gradient-19);
      }

      .cls-51 {
        fill: url(#linear-gradient-20);
      }

      .cls-52 {
        fill: url(#linear-gradient-21);
      }

      .cls-53 {
        fill: url(#linear-gradient-22);
      }

      .cls-54 {
        fill: url(#linear-gradient-23);
      }

      .cls-55 {
        stroke: #965657;
        stroke-linecap: square;
      }

      .cls-55, .cls-56, .cls-59 {
        stroke-width: 0.36544px;
      }

      .cls-56 {
        stroke: #45a0d4;
      }

      .cls-57 {
        fill: #41a8df;
      }

      .cls-58 {
        fill: #fb330b;
      }

      .cls-59 {
        stroke: #fb330b;
      }
    </style>
    <linearGradient id="linear-gradient" x1="5849.4923" y1="-1511.99528" x2="5849.19027" y2="-1511.59669" gradientTransform="translate(398016.28769 -82773.71346) rotate(180) scale(67.99931 54.86082)" gradientUnits="userSpaceOnUse">
      <stop offset="0.01" stop-color="#708432"/>
      <stop offset="0.46" stop-color="#526032"/>
      <stop offset="1" stop-color="#383932"/>
    </linearGradient>
    <linearGradient id="linear-gradient-2" x1="5849.37515" y1="-1513.50085" x2="5849.43276" y2="-1513.13576" gradientTransform="translate(398016.77158 -79832.77127) rotate(180) scale(67.9994 52.86533)" xlink:href="#linear-gradient"/>
    <linearGradient id="linear-gradient-3" x1="6125.84114" y1="-1571.63068" x2="6125.68551" y2="-1570.30105" gradientTransform="translate(98266.76284 -34315.06092) rotate(180) scale(16.00011 21.94407)" gradientUnits="userSpaceOnUse">
      <stop offset="0" stop-color="#fbc19e"/>
      <stop offset="0.48" stop-color="#ffb699"/>
      <stop offset="1" stop-color="#f47e6d"/>
    </linearGradient>
    <linearGradient id="linear-gradient-4" x1="5951.55312" y1="-1520.13178" x2="5951.55312" y2="-1519.84113" gradientTransform="translate(184765.98342 -68034.46599) rotate(180) scale(31 44.88701)" xlink:href="#linear-gradient"/>
    <linearGradient id="linear-gradient-5" x1="5893.34206" y1="-1505.12873" x2="5893.17769" y2="-1505.07948" gradientTransform="translate(265463.31679 -98903.39503) rotate(180) scale(44.99968 65.8329)" xlink:href="#linear-gradient"/>
    <linearGradient id="linear-gradient-6" x1="6212.028" y1="-1708.60198" x2="6211.95834" y2="-1708.60198" gradientTransform="translate(81027.18025 -15167.84567) rotate(180) scale(13 8.978)" xlink:href="#linear-gradient"/>
    <linearGradient id="linear-gradient-7" x1="5888.41274" y1="-1531.49941" x2="5888.40266" y2="-1531.3314" gradientTransform="translate(277046.23562 -54798.27387) rotate(180) scale(47.001 35.908)" xlink:href="#linear-gradient"/>
    <linearGradient id="linear-gradient-8" x1="5947.17093" y1="-1537.66047" x2="5945.91" y2="-1537.08745" gradientTransform="translate(190558.59517 -50424.57417) rotate(180) scale(31.99999 32.91599)" xlink:href="#linear-gradient-3"/>
    <linearGradient id="linear-gradient-9" x1="5880.65303" y1="-1496.59741" x2="5880.65303" y2="-1495.90469" gradientTransform="translate(294309.48593 -135625.57362) rotate(180) scale(50.00001 90.76997)" gradientUnits="userSpaceOnUse">
      <stop offset="0" stop-color="#fcfbff"/>
      <stop offset="0.48" stop-color="#f5ede9"/>
      <stop offset="1" stop-color="#a5adbe"/>
    </linearGradient>
    <linearGradient id="linear-gradient-10" x1="5880.83087" y1="-1503.40318" x2="5880.57972" y2="-1502.84188" gradientTransform="translate(294306.93541 -104758.01858) rotate(180) scale(49.99957 69.82298)" xlink:href="#linear-gradient-9"/>
    <linearGradient id="linear-gradient-11" x1="5838.98716" y1="-1486.73851" x2="5838.88336" y2="-1486.43804" gradientTransform="translate(455710.57001 -225142.65315) rotate(180) scale(77.99909 151.61545)" xlink:href="#linear-gradient-3"/>
    <linearGradient id="linear-gradient-12" x1="5837.87047" y1="-1487.19535" x2="5837.82347" y2="-1486.61814" gradientTransform="translate(461465.3706 -217793.05417) rotate(180) scale(78.99998 146.62791)" xlink:href="#linear-gradient-3"/>
    <linearGradient id="linear-gradient-13" x1="5853.81406" y1="-1507.50893" x2="5853.98577" y2="-1507.50893" gradientTransform="translate(380775.36633 -90012.50258) rotate(180) scale(65.00002 59.8483)" gradientUnits="userSpaceOnUse">
      <stop offset="0" stop-color="#365ead"/>
      <stop offset="1" stop-color="#0c3483"/>
    </linearGradient>
    <linearGradient id="linear-gradient-14" x1="6089.34547" y1="-1581.88288" x2="6089.7114" y2="-1581.88288" gradientTransform="translate(109904.37018 -28135.30211) rotate(180) scale(17.99964 17.95401)" gradientUnits="userSpaceOnUse">
      <stop offset="0.53" stop-color="#00076d"/>
      <stop offset="1" stop-color="#000030"/>
    </linearGradient>
    <linearGradient id="linear-gradient-15" x1="5995.76438" y1="-1576.1811" x2="5996.12982" y2="-1576.1811" gradientTransform="translate(150156.55394 -29606.21729) rotate(180) scale(24.99974 18.95206)" xlink:href="#linear-gradient-14"/>
    <linearGradient id="linear-gradient-16" x1="5935.11777" y1="-1537.61765" x2="5935.57568" y2="-1538.15046" gradientTransform="translate(202078.99459 -50463.78211) rotate(180) scale(34.00001 32.91823)" xlink:href="#linear-gradient-3"/>
    <linearGradient id="linear-gradient-17" x1="5876.39214" y1="-1514.16834" x2="5875.79063" y2="-1514.59643" gradientTransform="translate(305839.00619 -78381.68482) rotate(180) scale(51.99987 51.86788)" gradientUnits="userSpaceOnUse">
      <stop offset="0" stop-color="#774f6a"/>
      <stop offset="1" stop-color="#44426a"/>
    </linearGradient>
    <linearGradient id="linear-gradient-18" x1="5913.64976" y1="-1520.80435" x2="5913.64814" y2="-1520.40591" gradientTransform="translate(230912.71307 -68091.52681) rotate(180) scale(39.00008 44.88647)" xlink:href="#linear-gradient-17"/>
    <linearGradient id="linear-gradient-19" x1="5922.24509" y1="-1504.33107" x2="5922.19336" y2="-1503.66543" gradientTransform="translate(219411.90658 -101842.3305) rotate(180) scale(36.99982 67.82838)" xlink:href="#linear-gradient"/>
    <linearGradient id="linear-gradient-20" x1="5973.07921" y1="-1573.66859" x2="5973.1637" y2="-1573.32875" gradientTransform="translate(167539.01623 -32778.29631) rotate(180) scale(28 20.94601)" xlink:href="#linear-gradient"/>
    <linearGradient id="linear-gradient-21" x1="5850.27111" y1="-1511.99506" x2="5850.57314" y2="-1511.59677" gradientTransform="translate(398118.55136 -82773.85928) rotate(180) scale(67.99936 54.86092)" xlink:href="#linear-gradient"/>
    <linearGradient id="linear-gradient-22" x1="5850.33042" y1="-1513.48617" x2="5850.38802" y2="-1513.12117" gradientTransform="translate(398118.02359 -79833.44546) rotate(180) scale(67.99927 52.86579)" xlink:href="#linear-gradient"/>
    <linearGradient id="linear-gradient-23" x1="6131.30121" y1="-1571.7514" x2="6131.43379" y2="-1570.36252" gradientTransform="translate(98408.78539 -34318.45238) rotate(180) scale(16.00011 21.94434)" xlink:href="#linear-gradient-3"/>
  </defs>
  <g>
    <path class="cls-1" d="M385.81525,79.93614a3.98309,3.98309,0,0,0-1.28223-.34473,20.80355,20.80355,0,0,0-4.00954-.372,73.98405,73.98405,0,0,0-12.39648,1.114c-2.58031.44572-5.6996,1.94574-8.26634,1.13109a17.59889,17.59889,0,0,0-13.234.6767,18.54422,18.54422,0,0,0-8.54146,9.17468,23.29982,23.29982,0,0,0-1.60941,4.11055c-.12664.291-.2495.5842-.35956.882-.31284.84427-.59324,1.70438-.85407,2.566-.11157.36711-.392,1.17821-.0588,1.335a24.2778,24.2778,0,0,0-1.39532,3.03637,43.76606,43.76606,0,0,0-2.79135,9.58475,14.99734,14.99734,0,0,0-.01585,3.58364c.06786.58948.04,1.77673.44024,2.22525.8488.95207,1.28451-.38067,1.18876-1.01539-.73044-4.83872.68071-9.382,2.35342-13.92973a28.6014,28.6014,0,0,1,4.84927-8.06732,20.36415,20.36415,0,0,1,5.54733-4.83346,86.7911,86.7911,0,0,1,8.44952-4.1882c1.8815-.85332,3.7653-1.68327,5.69957-2.419a5.68785,5.68785,0,0,1,1.583-.58428,15.18386,15.18386,0,0,1,3.41176,1.01772,74.095,74.095,0,0,0,9.75963,2.54187,12.59234,12.59234,0,0,0,6.09988-.74477,5.71064,5.71064,0,0,0,.96037-.52315,13.9379,13.9379,0,0,0,4.08417-2.31149,16.24475,16.24475,0,0,0,1.91394-2.06237,1.07734,1.07734,0,0,0,.25249-.679c.13118-.0686.21864-.14865.23824-.2422C387.97718,79.90771,386.65952,79.895,385.81525,79.93614Z"/>
    <path class="cls-2" d="M380.84989,99.44953a25.27675,25.27675,0,0,0-5.7222-.3362,35.54856,35.54856,0,0,0-26.23578,12.44773c-5.44631,6.44588-6.94414,14.46119-8.01984,22.56243-.10628.80508-.15227,1.60412-.21256,2.41-.01281.17337-.03241.32715-.05277.47264a1.04151,1.04151,0,0,0-.395,1.30409,53.97339,53.97339,0,0,0-2.39715,6.28833c-1.99082,6.34938-4.01633,12.82012-2.76874,19.49666a93.33742,93.33742,0,0,1,1.638-11.04564q.06332-.311.13494-.61814c.00527-.02185.0098-.04372.01431-.06482a24.16689,24.16689,0,0,1,1.00786-3.23689l.01281-.03466c.05429-.13871.11157-.27741.16812-.41536.11757-.28645.23895-.57214.36635-.85633.0437-.09725.08518-.19524.12512-.29324.59777-1.46465.84956-3.11476,1.38476-4.62992q.19224-.51675.40253-1.029l.02489-.05954c.37917-.9189.79829-1.8265,1.24078-2.72429a3.35887,3.35887,0,0,0,.57666-1.038,6.46958,6.46958,0,0,0,.47868-.92493q.39123-.75647.78321-1.51215l-.02337.00829c.26232-.4832.52616-.96488.78774-1.44431q.08594-.1583.17337-.3166c.09422-.16811.18771-.3362.28194-.50355.87668-1.56944,1.80614-3.10723,2.77176-4.62541.34449-.542,1.16766-1.31917,1.32522-1.9275.006-.02337.00752-.04372.0113-.06558a34.52484,34.52484,0,0,1,7.39869-7.80726c-.34976.37841-1.093,1.66065-1.289,1.91469-.60154.77718-1.25435,1.50084-1.90942,2.23355a47.77057,47.77057,0,0,0-3.33714,4.09773,77.98586,77.98586,0,0,0-4.98572,8.18417c-.01433.01659-.03016.03242-.04373.049a19.97,19.97,0,0,0-1.79257,3.43814c2.174-1.00633,4.57716-1.66216,6.80847-2.55618a55.95362,55.95362,0,0,0,6.47827-3.04917,72.37352,72.37352,0,0,0,8.28141-5.27671,32.83438,32.83438,0,0,0,7.76354-7.12657,37.423,37.423,0,0,0,6.55291-10.273,30.855,30.855,0,0,0,1.65536-5.89106c.01509-.08744.03393-.18242.055-.28117a19.33559,19.33559,0,0,0,.92718-2.12576C381.71376,101.11847,382.69974,99.85357,380.84989,99.44953Z"/>
    <path class="cls-3" d="M437.41461,243.055c-46.86013,80.475-161.26127,57.4972-269.17964,57.26124C60.31669,300.07954,4.50584,260.12359,51.32451,230.66075c33.09382-20.82562,204.28209,47.023,304.77916-5.41162C439.60069,181.68467,443.82806,232.041,437.41461,243.055Z"/>
    <path class="cls-4" d="M66.26487,9.104H433.94054a5.67077,5.67077,0,0,1,5.67077,5.67077V248.76445a5.67077,5.67077,0,0,1-5.67077,5.67077H66.26487a5.67078,5.67078,0,0,1-5.67078-5.67078V14.77478A5.67077,5.67077,0,0,1,66.26487,9.104Z"/>
    <path class="cls-5" d="M60.61324,29.672a5.67083,5.67083,0,0,1,5.6708-5.67079H433.69076a5.67079,5.67079,0,0,1,5.671,5.67079V51.3H60.61324Z"/>
    <path class="cls-6" d="M70.07015,19.52664a2.45472,2.45472,0,1,0-2.44982-2.45472A2.45224,2.45224,0,0,0,70.07015,19.52664Z"/>
    <path class="cls-6" d="M84.34371,19.52664a2.45472,2.45472,0,1,0-2.4499-2.45472A2.45226,2.45226,0,0,0,84.34371,19.52664Z"/>
    <path class="cls-6" d="M98.61643,19.52664a2.45472,2.45472,0,1,0-2.4499-2.45472A2.45226,2.45226,0,0,0,98.61643,19.52664Z"/>
    <path class="cls-7" d="M84.51134,33.85379H425.77467a2.83538,2.83538,0,0,1,2.83538,2.83538V224.09975a2.83536,2.83536,0,0,1-2.83536,2.83536H84.51134a2.83539,2.83539,0,0,1-2.83539-2.83539V36.68918A2.83539,2.83539,0,0,1,84.51134,33.85379Z"/>
    <rect class="cls-8" x="169.36569" y="61.15311" width="111.6294" height="3.41235" rx="1.44368"/>
    <path class="cls-9" d="M191.60549,112.2493a2.75866,2.75866,0,1,0-2.98284-2.74916A2.87276,2.87276,0,0,0,191.60549,112.2493Z"/>
    <path class="cls-10" d="M191.60625,110.67835a1.18249,1.18249,0,1,0-1.27848-1.17821A1.23137,1.23137,0,0,0,191.60625,110.67835Z"/>
    <path class="cls-9" d="M200.1266,112.2493a2.75861,2.75861,0,1,0-2.98209-2.74916A2.87344,2.87344,0,0,0,200.1266,112.2493Z"/>
    <path class="cls-10" d="M200.12736,110.67835a1.18249,1.18249,0,1,0-1.27846-1.17821A1.23117,1.23117,0,0,0,200.12736,110.67835Z"/>
    <rect class="cls-11" x="106.81868" y="160.35322" width="92.88277" height="3.53428" rx="1.76713"/>
    <path class="cls-11" d="M108.58582,169.73747h58.81169a1.76714,1.76714,0,0,1,1.76714,1.76713h0a1.76714,1.76714,0,0,1-1.76714,1.76713H108.58582a1.76714,1.76714,0,0,1-1.76714-1.76713h0A1.76714,1.76714,0,0,1,108.58582,169.73747Z"/>
    <path class="cls-11" d="M108.58582,143.4331h89.34851a1.76712,1.76712,0,0,1,1.76712,1.76714h0a1.76712,1.76712,0,0,1-1.76712,1.76713H108.58582a1.76714,1.76714,0,0,1-1.76714-1.76713h0A1.76715,1.76715,0,0,1,108.58582,143.4331Z"/>
    <rect class="cls-11" x="106.81868" y="151.8223" width="62.34596" height="3.53424" rx="1.76711"/>
    <path class="cls-8" d="M121.99,56.58657v8.294h-1.91017l-.01131-3.79749-1.5732,3.79749h-1.38551l-1.58453-3.7509v3.7509h-1.89885v-8.294h1.71267l2.48079,5.66138,2.4695-5.66138Zm7.52,2.37641-2.71373,6.1273a3.98952,3.98952,0,0,1-1.35159,1.74727,4.31249,4.31249,0,0,1-1.99158.69894l-.48923-1.60751a3.74471,3.74471,0,0,0,1.2227-.41935,1.61686,1.61686,0,0,0,.61737-.71062l.15151-.32618L122.544,58.963h2.19057l1.32747,3.41312,1.375-3.41312Zm6.89212,6.02245a7.056,7.056,0,0,1-1.8408-.24462,4.43317,4.43317,0,0,1-1.479-.664l.68748-1.54924a5.32787,5.32787,0,0,0,1.28072.59408,4.94778,4.94778,0,0,0,1.375.198,2.4589,2.4589,0,0,0,1.07192-.18642.60527.60527,0,0,0,.37239-.54749.58466.58466,0,0,0-.33771-.51252,4.43572,4.43572,0,0,0-1.26943-.40774,7.08749,7.08749,0,0,1-1.82951-.57079,2.239,2.239,0,0,1-.91965-.8154,2.476,2.476,0,0,1,.17413-2.49286,2.78363,2.78363,0,0,1,1.21213-.95517,4.317,4.317,0,0,1,1.782-.34947,5.90282,5.90282,0,0,1,1.73528.25623,3.53381,3.53381,0,0,1,1.32823.65235l-.67543,1.54932a4.35185,4.35185,0,0,0-1.15333-.58248,3.68363,3.68363,0,0,0-1.21138-.20964,1.7377,1.7377,0,0,0-.95508.23293.67939.67939,0,0,0-.36108.60577.49526.49526,0,0,0,.12815.34947,1.3401,1.3401,0,0,0,.47716.27958,8.51343,8.51343,0,0,0,1.04856.27952,6.78878,6.78878,0,0,1,1.77071.59416,2.16554,2.16554,0,0,1,.92041.80372,2.11855,2.11855,0,0,1,.2676,1.095,2.24871,2.24871,0,0,1-.94377,1.91039A4.44672,4.44672,0,0,1,136.40213,64.98543Zm8.66511-6.18558a1.87892,1.87892,0,0,1,1.56115.64074,2.93485,2.93485,0,0,1,.52389,1.9104v3.52958h-2.10841V61.44416a1.26452,1.26452,0,0,0-.18619-.78043.6853.6853,0,0,0-.58271-.24469.97939.97939,0,0,0-.76813.32618,1.18449,1.18449,0,0,0-.29172.83877v3.29658H141.1067V56.30706h2.10842v3.37815A2.22281,2.22281,0,0,1,145.06724,58.79985Zm6.29058,6.1739a3.76175,3.76175,0,0,1-1.724-.37277,2.64618,2.64618,0,0,1-1.13-1.0717,3.60637,3.60637,0,0,1,0-3.285,2.64706,2.64706,0,0,1,1.13-1.0717,3.76277,3.76277,0,0,1,1.724-.37276,3.57115,3.57115,0,0,1,1.70135.38444,2.64092,2.64092,0,0,1,1.12922,1.07171,3.20569,3.20569,0,0,1,.39651,1.6308,3.27039,3.27039,0,0,1-.39651,1.64248,2.734,2.734,0,0,1-1.12922,1.0717A3.66311,3.66311,0,0,1,151.35782,64.97375Zm0-1.57254q1.142,0,1.142-1.51441a1.78748,1.78748,0,0,0-.29173-1.1299.99386.99386,0,0,0-.8503-.37276,1.04089,1.04089,0,0,0-.87368.37276,1.79262,1.79262,0,0,0-.291,1.1299,1.86911,1.86911,0,0,0,.291,1.15326A1.05605,1.05605,0,0,0,151.35782,63.40121Zm8.1216-4.60136a2.37956,2.37956,0,0,1,1.35083.39606,2.673,2.673,0,0,1,.93247,1.10667,3.76361,3.76361,0,0,1,.33771,1.6308,3.65886,3.65886,0,0,1-.33771,1.60759,2.46655,2.46655,0,0,1-.9204,1.06,2.66506,2.66506,0,0,1-2.42276.15144,1.74481,1.74481,0,0,1-.73422-.64066v3.285h-2.10842v-6.733a13.74778,13.74778,0,0,0-.09348-1.70075h1.98027l.11684.92025a1.69377,1.69377,0,0,1,.73347-.7805A2.24957,2.24957,0,0,1,159.47942,58.79985Zm-.64074,4.60136a1.02548,1.02548,0,0,0,.86161-.37284,1.75094,1.75094,0,0,0,.29172-1.095,1.8282,1.8282,0,0,0-.303-1.12989.98.98,0,0,0-.8503-.40774,1.04619,1.04619,0,0,0-.87367.38445,1.79751,1.79751,0,0,0-.303,1.12989,1.75442,1.75442,0,0,0,.303,1.10668A1.04621,1.04621,0,0,0,158.83868,63.40121Z"/>
    <path class="cls-12" d="M4.69078,158.12193a11.78822,11.78822,0,0,1,6.54392-1.58829c8.67331,0,16.82581,3.218,23.86863,8.01306a55.82177,55.82177,0,0,1,10.35922,9.45584,27.71,27.71,0,0,1,4.43846,6.60568,22.77011,22.77011,0,0,1,1.61241,5.08975,52.282,52.282,0,0,1,.91513,6.49487c.06016.85633.55767,5.39958-.8659,5.47647a1.97846,1.97846,0,0,1,.00135.3151c3.09109,4.83269,5.001,10.49761,6.772,15.86778a108.10211,108.10211,0,0,1,3.80525,14.22073,154.978,154.978,0,0,1,2.31083,19.28257c.0787,1.38777.13266,2.77628.17925,4.16558q.05915,1.77749.11828,3.555a22.91493,22.91493,0,0,1,.066,4.17763c-.18378,1.14957-1.179.9762-1.223-.16809-.05314-1.38175-.04448-2.76651-.10493-4.14975q-.12054-2.75217-.25306-5.50512a128.71014,128.71014,0,0,0-7.29941-37.34322,87.0839,87.0839,0,0,0-6.3389-13.99154,97.48537,97.48537,0,0,0-7.78547-11.3713,72.05783,72.05783,0,0,0-8.85016-9.80637,68.11625,68.11625,0,0,0-8.70732-6.40139,95.42228,95.42228,0,0,0-11.92685-6.74212c-2.1795-.98072-4.40009-1.85891-6.59656-2.79967-.39522-.1696-.8189-.33394-1.199-.52993C3.263,159.79164,3.68045,158.8064,4.69078,158.12193Z"/>
    <path class="cls-12" d="M39.99792,202.86159a23.95538,23.95538,0,0,0-9.88922,1.85513A43.96874,43.96874,0,0,0,22.28562,209.26a24.542,24.542,0,0,0-8.14474,9.06386c-1.147,2.25316-1.98834,5.441-1.21809,7.89846.90736,2.89465,3.3988,5.30912,6.68008,4.79878a12.09,12.09,0,0,0,5.43123-2.92252,20.52843,20.52843,0,0,0,4.541-5.35059c1.98917-3.29417,3.158-7.01875,4.84778-10.46144.80183-1.63351,1.57668-3.27909,2.537-4.832a7.79337,7.79337,0,0,1,1.70279-2.10163c.38588-.306,2.01284-.83523,1.39064-1.5212a20.09457,20.09457,0,0,1,18.95512,15.79769c.16312.80808.2906,1.623.42522,2.43632.085.51335.05066,2.40769.50981,2.7356,1.01245.72367.58685-1.47522.54343-1.79105q-.16848-1.228-.35777-2.45218a20.40365,20.40365,0,0,0-5.9549-11.72935A20.75737,20.75737,0,0,0,39.99792,202.86159Z"/>
    <path class="cls-12" d="M97.785,190.0995a7.72425,7.72425,0,0,0-4.36157-.686,27.98172,27.98172,0,0,0-15.166,6.5205,36.60622,36.60622,0,0,0-6.26065,6.73683,18.169,18.169,0,0,0-2.54488,4.5553,14.92482,14.92482,0,0,0-.77989,3.41252,34.28692,34.28692,0,0,0-.24847,4.29374c.00679.56308-.07387,3.55874.86056,3.53238a1.27821,1.27821,0,0,0,.01606.205,45.83512,45.83512,0,0,0-3.57143,10.73433,70.83588,70.83588,0,0,0-1.72141,9.49731,101.61515,101.61515,0,0,0-.47249,12.72513c.02329.91061.06264,1.82123.107,2.73108q.057,1.16578.114,2.33005a15.02089,15.02089,0,0,0,.18167,2.73333c.182.74174.82294.5744.79007-.17564-.03957-.9061-.11978-1.81067-.15468-2.71751q-.06932-1.80463-.13086-3.61078a84.39685,84.39685,0,0,1,2.76054-24.796,57.09477,57.09477,0,0,1,3.38938-9.48376,64.06131,64.06131,0,0,1,4.47532-7.85022,47.22618,47.22618,0,0,1,5.25635-6.88383,44.59026,44.59026,0,0,1,5.3453-4.65178A62.6569,62.6569,0,0,1,93.1,194.204c1.37119-.75835,2.77479-1.4511,4.15955-2.18457.24952-.13192.51712-.26157.75532-.41006C98.8079,191.11338,98.48224,190.49223,97.785,190.0995Z"/>
    <path class="cls-12" d="M77.12065,221.23582a15.69708,15.69708,0,0,1,6.562.67992,28.78683,28.78683,0,0,1,5.3566,2.5479,16.09891,16.09891,0,0,1,5.8104,5.484A7.48409,7.48409,0,0,1,96.07,235.04419c-.43721,1.94032-1.935,3.65147-4.10678,3.49467a7.92351,7.92351,0,0,1-3.70651-1.61692,13.45839,13.45839,0,0,1-3.255-3.25195c-1.47747-2.04585-2.4416-4.41661-3.73063-6.57552-.61209-1.02444-1.20685-2.05793-1.91845-3.02131a5.1086,5.1086,0,0,0-1.2257-1.28223c-.26836-.17866-1.35989-.43647-.99052-.9189A13.17525,13.17525,0,0,0,65.6001,233.21544c-.06309.53745-.10259,1.07645-.14684,1.61543-.02789.34.09649,1.57547-.18589,1.81441-.62265.52768-.46284-.9317-.45146-1.14128q.044-.81071.10184-1.62069a13.37736,13.37736,0,0,1,3.26017-7.98591A13.61084,13.61084,0,0,1,77.12065,221.23582Z"/>
    <path class="cls-13" d="M46.5926,9.40443l-.0095.02005C46.58717,9.41822,46.5926,9.39314,46.5926,9.40443Z"/>
    <path class="cls-13" d="M46.58626,9.414l-.00135.00627C46.58491,9.414,46.59712,9.39515,46.58626,9.414Z"/>
    <path class="cls-13" d="M46.63353,9.30789c-.00958.02508-.02179.0489-.03265.074l.01629-.0351C46.47576,9.67271,46.56553,9.46084,46.63353,9.30789Z"/>
    <path class="cls-13" d="M46.60307,9.3834l-.01636.0351C46.54729,9.48871,46.60307,9.3834,46.60307,9.3834Z"/>
    <path class="cls-13" d="M46.58717,9.41427l.00135-.00251Z"/>
    <path class="cls-13" d="M46.58069,9.42326c-.00815.015.03806-.05767,0,0Z"/>
    <path class="cls-13" d="M46.58649,9.41427l.00271-.00251Z"/>
    <path class="cls-11" d="M190.33033,78.59887h91.1748a1.70617,1.70617,0,0,1,1.70617,1.70617v0a1.70618,1.70618,0,0,1-1.70618,1.70618h-91.1748a1.70617,1.70617,0,0,1-1.70617-1.70617v0a1.70618,1.70618,0,0,1,1.70618-1.70618Z"/>
    <path class="cls-11" d="M190.33033,87.12994h66.46278a1.70618,1.70618,0,0,1,1.70618,1.70617h0a1.70618,1.70618,0,0,1-1.70618,1.70618H190.33033a1.70618,1.70618,0,0,1-1.70618-1.70618h0A1.70618,1.70618,0,0,1,190.33033,87.12994Z"/>
    <rect class="cls-11" x="188.62415" y="95.66086" width="94.58715" height="4.26543" rx="2.04955"/>
    <g class="cls-14">
      <rect class="cls-15" x="305.36742" y="55.19586" width="45.87595" height="48.93606" rx="5.46545"/>
      <path class="cls-9" d="M328.30524,83.59078c5.79081,0,10.48556-4.32781,10.48556-9.6664S334.09605,64.258,328.30524,64.258c-5.79155,0-10.48633,4.32779-10.48633,9.66638S322.51369,83.59078,328.30524,83.59078Z"/>
      <rect class="cls-16" x="311.92109" y="86.00751" width="32.76848" height="3.62489" rx="1.81244"/>
      <rect class="cls-16" x="317.16386" y="92.04933" width="22.2826" height="3.62489" rx="1.81244"/>
    </g>
    <g class="cls-14">
      <path class="cls-15" d="M365.36908,55.56553h34.94509a5.46543,5.46543,0,0,1,5.46543,5.46543V99.03614a5.46545,5.46545,0,0,1-5.46545,5.46545H365.36909a5.46545,5.46545,0,0,1-5.46545-5.46545V61.031A5.46545,5.46545,0,0,1,365.36908,55.56553Z"/>
      <path class="cls-9" d="M382.84147,83.96045c5.79079,0,10.48557-4.32773,10.48557-9.66639,0-5.33859-4.69478-9.66632-10.48557-9.66632-5.79157,0-10.48632,4.32773-10.48632,9.66632C372.35515,79.63272,377.0499,83.96045,382.84147,83.96045Z"/>
      <rect class="cls-16" x="366.4558" y="86.37688" width="32.76855" height="3.62489" rx="1.81244"/>
      <rect class="cls-16" x="371.70009" y="92.4187" width="22.28253" height="3.62489" rx="1.81244"/>
    </g>
    <g class="cls-14">
      <rect class="cls-15" x="305.36742" y="116.13446" width="45.87595" height="48.93605" rx="5.46545"/>
      <path class="cls-9" d="M328.30524,144.5299c5.79081,0,10.48556-4.32764,10.48556-9.66616s-4.69475-9.66692-10.48556-9.66692c-5.79155,0-10.48633,4.32841-10.48633,9.66692S322.51369,144.5299,328.30524,144.5299Z"/>
      <path class="cls-16" d="M313.73353,146.94663h29.1436a1.81244,1.81244,0,0,1,1.81244,1.81244h0a1.81244,1.81244,0,0,1-1.81244,1.81244h-29.1436a1.81244,1.81244,0,0,1-1.81244-1.81244h0A1.81244,1.81244,0,0,1,313.73353,146.94663Z"/>
      <path class="cls-16" d="M318.9763,152.98845H337.634a1.81244,1.81244,0,0,1,1.81244,1.81245h0a1.81244,1.81244,0,0,1-1.81244,1.81246H318.9763a1.81244,1.81244,0,0,1-1.81244-1.81246h0A1.81244,1.81244,0,0,1,318.9763,152.98845Z"/>
    </g>
    <g class="cls-14">
      <path class="cls-15" d="M365.36909,116.50458h34.94506a5.46545,5.46545,0,0,1,5.46545,5.46545V159.9752a5.46543,5.46543,0,0,1-5.46543,5.46543H365.36909a5.46545,5.46545,0,0,1-5.46545-5.46545V121.97a5.46545,5.46545,0,0,1,5.46545-5.46545Z"/>
      <path class="cls-9" d="M382.84147,144.89927c5.79079,0,10.48557-4.32765,10.48557-9.66617s-4.69478-9.66616-10.48557-9.66616c-5.79157,0-10.48632,4.32765-10.48632,9.66616S377.0499,144.89927,382.84147,144.89927Z"/>
      <rect class="cls-16" x="366.4558" y="147.316" width="32.76855" height="3.62489" rx="1.81244"/>
      <path class="cls-16" d="M373.51253,153.35783h18.65765a1.81244,1.81244,0,0,1,1.81244,1.81244h0a1.81244,1.81244,0,0,1-1.81244,1.81244H373.51253a1.81245,1.81245,0,0,1-1.81244-1.81244h0A1.81244,1.81244,0,0,1,373.51253,153.35783Z"/>
    </g>
    <g class="cls-14">
      <path class="cls-9" d="M298.7052,198.62665a3.29453,3.29453,0,1,0-3.56254-3.28362A3.43085,3.43085,0,0,0,298.7052,198.62665Z"/>
      <path class="cls-10" d="M298.70672,196.7504a1.41207,1.41207,0,1,0-1.52723-1.40737A1.47079,1.47079,0,0,0,298.70672,196.7504Z"/>
    </g>
    <g class="cls-14">
      <path class="cls-9" d="M298.70368,180.71225a3.29447,3.29447,0,1,0-3.56175-3.28362A3.432,3.432,0,0,0,298.70368,180.71225Z"/>
      <path class="cls-10" d="M298.706,178.836a1.412,1.412,0,1,0-1.52647-1.40737A1.47032,1.47032,0,0,0,298.706,178.836Z"/>
    </g>
    <path class="cls-11" d="M307.07434,175.8509H404.2141a1.70615,1.70615,0,0,1,1.70616,1.70617h0a1.70615,1.70615,0,0,1-1.70616,1.70617H307.07434a1.70618,1.70618,0,0,1-1.70618-1.70617h0A1.70618,1.70618,0,0,1,307.07434,175.8509Z"/>
    <path class="cls-11" d="M307.07434,184.38181h70.72342a1.70619,1.70619,0,0,1,1.70618,1.70618h0a1.7062,1.7062,0,0,1-1.70618,1.70619H307.07434a1.7062,1.7062,0,0,1-1.70618-1.70619h0A1.70619,1.70619,0,0,1,307.07434,184.38181Z"/>
    <path class="cls-11" d="M307.41771,192.91273h96.453a2.04953,2.04953,0,0,1,2.04953,2.04953v.16638a2.04953,2.04953,0,0,1-2.04953,2.04953h-96.453a2.04955,2.04955,0,0,1-2.04955-2.04955v-.16633a2.04955,2.04955,0,0,1,2.04955-2.04955Z"/>
    <path class="cls-11" d="M307.41771,202.29623h96.453a2.04953,2.04953,0,0,1,2.04953,2.04953v.16639a2.04953,2.04953,0,0,1-2.04953,2.04953h-96.453a2.04955,2.04955,0,0,1-2.04955-2.04955v-.16635A2.04955,2.04955,0,0,1,307.41771,202.29623Z"/>
    <rect class="cls-5" x="195.78388" y="119.07961" width="34.45543" height="12.36859" rx="2.04955"/>
    <path class="cls-7" d="M212.1379,125.88053a1.2589,1.2589,0,0,1,.96111,1.277,1.27592,1.27592,0,0,1-.22766.75608,1.45725,1.45725,0,0,1-.6528.499,2.54036,2.54036,0,0,1-.99127.17639H208.6221v-5.2262h2.5396a2.10989,2.10989,0,0,1,1.30636.36711,1.17889,1.17889,0,0,1,.48471.99051,1.22592,1.22592,0,0,1-.21333.71236A1.20284,1.20284,0,0,1,212.1379,125.88053Zm-2.17251-.46963h.96111a1.0275,1.0275,0,0,0,.55784-.11759.41787.41787,0,0,0,.1764-.37465.4375.4375,0,0,0-.184-.389.96386.96386,0,0,0-.55029-.12439h-.96111Zm1.10058,2.13556a.97018.97018,0,0,0,.56537-.12513.47612.47612,0,0,0,.17637-.41837.49448.49448,0,0,0-.16885-.42515.98959.98959,0,0,0-.57289-.12514h-1.10058v1.09379Zm5.00684,1.10811a2.38612,2.38612,0,0,1-1.73227-.57215,2.28174,2.28174,0,0,1-.58724-1.69533v-3.0243h1.34331v3.07556a1.32273,1.32273,0,0,0,.24951.86614.90383.90383,0,0,0,.72669.30076.874.874,0,0,0,.71234-.30076,1.34677,1.34677,0,0,0,.24953-.86614v-3.07556h1.35761v3.0243a2.24975,2.24975,0,0,1-.6023,1.68779A2.35858,2.35858,0,0,1,216.07281,128.65457Zm5.85637-2.06244V128.589h-1.387v-2.0044l-2.19437-3.2218h1.5559l1.32143,2.0843,1.34328-2.0843h1.5702Z"/>
    <path class="cls-7" d="M205.24577,126.24386a1.40239,1.40239,0,0,1-.41084,1.02067,1.99944,1.99944,0,0,1-1.10133.55028v.84428h-1.05683v-.80733a3.19433,3.19433,0,0,1-1.59281-.52843l.43343-.9694a2.73459,2.73459,0,0,0,1.26189.45529v-1.09377a5.15011,5.15011,0,0,1-.836-.27892,1.55567,1.55567,0,0,1-.57289-.46963,1.29656,1.29656,0,0,1-.2352-.80733,1.4089,1.4089,0,0,1,.42591-1.01991,2.10924,2.10924,0,0,1,1.11565-.5729V121.73h1.05683v.82241a3.46,3.46,0,0,1,.778.19825,2.03311,2.03311,0,0,1,.59476.3151l-.43269.97619a3.07266,3.07266,0,0,0-1.02821-.4327v1.10058a4.8019,4.8019,0,0,1,.81489.27891,1.38547,1.38547,0,0,1,.55781.4553A1.29457,1.29457,0,0,1,205.24577,126.24386Zm-2.7454-2.17248a.4341.4341,0,0,0,.27891.38142v-.7998a.47386.47386,0,0,0-.205.16886A.44108.44108,0,0,0,202.50037,124.07138Zm1.145,2.64211a.43224.43224,0,0,0,.23519-.40328.35858.35858,0,0,0-.23519-.32339Z"/>
    <rect class="cls-17" x="111.93159" y="80.30505" width="70.1781" height="50.73888" rx="2.73273"/>
    <rect class="cls-17" x="108.52359" y="76.89268" width="70.1781" height="50.73888" rx="2.73273"/>
    <path class="cls-7" d="M296.09926,162.40888l-1.13072,2.3029,6.07575-5.09654a29.30446,29.30446,0,0,1,18.05989-6.84087l4.92466-.12965a24.85035,24.85035,0,1,0-7.59694-48.70246l-1.61693.47038a26.29107,26.29107,0,0,0-17.9016,32.57761l1.078,3.71027A30.156,30.156,0,0,1,296.09926,162.40888Z"/>
    <path class="cls-17" d="M296.09926,162.40888l-1.13072,2.3029,6.07575-5.09654a29.30446,29.30446,0,0,1,18.05989-6.84087l4.92466-.12965a24.85035,24.85035,0,1,0-7.59694-48.70246l-1.61693.47038a26.29107,26.29107,0,0,0-17.9016,32.57761l1.078,3.71027A30.156,30.156,0,0,1,296.09926,162.40888Z"/>
    <path class="cls-18" d="M292.25858,160.55373l-1.13072,2.30291,6.07574-5.09578a29.30072,29.30072,0,0,1,18.05989-6.84162l4.92467-.12966a24.85035,24.85035,0,1,0-7.59695-48.70245l-1.61692.47113a26.29023,26.29023,0,0,0-17.90158,32.57686l1.078,3.71027A30.15564,30.15564,0,0,1,292.25858,160.55373Z"/>
    <path class="cls-5" d="M332.4972,131.008a4.62469,4.62469,0,0,1-1.35612,3.36653,6.59021,6.59021,0,0,1-3.63263,1.81594v2.78534h-3.48713v-2.664a10.51627,10.51627,0,0,1-5.25561-1.74357l1.42923-3.19693a9.04115,9.04115,0,0,0,4.16558,1.5016V129.2644a17.20623,17.20623,0,0,1-2.76121-.9204,5.1379,5.1379,0,0,1-1.88907-1.54984,4.27911,4.27911,0,0,1-.77491-2.664,4.64126,4.64126,0,0,1,1.40509-3.36579,6.93881,6.93881,0,0,1,3.6809-1.88906v-2.76122h3.48713v2.71222a11.51394,11.51394,0,0,1,2.56674.65431,6.75879,6.75879,0,0,1,1.96217,1.041l-1.42923,3.22105a10.117,10.117,0,0,0-3.38988-1.42848v3.63263a15.74318,15.74318,0,0,1,2.68808.91966,4.5859,4.5859,0,0,1,1.84007,1.5016A4.2694,4.2694,0,0,1,332.4972,131.008Zm-9.05709-7.168a1.433,1.433,0,0,0,.92041,1.25887V122.459a1.55,1.55,0,0,0-.67842.55707A1.45437,1.45437,0,0,0,323.44011,123.84Zm3.77814,8.71787a1.42979,1.42979,0,0,0,.77491-1.332,1.18139,1.18139,0,0,0-.77491-1.06514Z"/>
    <path class="cls-5" d="M314.53607,126.97432v3.12983h-4.786v4.81235h-3.15623v-4.81235h-4.786v-3.12983h4.786V122.162h3.15623v4.81236Z"/>
    <path class="cls-19" d="M273.29184,199.76642l-6.76473-3.157v3.157Z"/>
    <path class="cls-20" d="M178.87883,171.98835c1.98254,1.19555,3.93039,1.773,4.84477,1.537,2.29311-.591,2.50342-8.97793.72969-12.28417s-10.89338-4.74751-11.35319,1.80313a8.29431,8.29431,0,0,0,2.20566,5.95815l-2.52981,11.7889h7.34743Z"/>
    <path class="cls-21" d="M179.246,163.76724a5.95331,5.95331,0,0,1,2.03906-2.0858c3.2301.05051,3.60776-.52842,3.60776-2.48a11.37581,11.37581,0,0,0-4.42339-1.17822,5.32512,5.32512,0,0,0-3.4977.257,4.701,4.701,0,0,0-3.52634,2.89164,6.35211,6.35211,0,0,0,1.80388,8.41936c.54576-.64678,1.02217-1.27321,1.44733-1.87323a1.83641,1.83641,0,0,1,1.283-3.1502,1.95323,1.95323,0,0,1,.22163.01282,39.59368,39.59368,0,0,0,.72667,7.04966c.582,1.75715,3.97638,2.18833,5.15986,2.18833,1.02294,0,.98826-.96865.96263-1.66215-.003-.10027-.00679-.1945-.00679-.27892,0-.1779-.23066-.17715-.49073-.17639-.33847.00075-.72743.00151-.72743-.38671,0-.42289.585-.74779,1.10811-1.038a2.55,2.55,0,0,0,.75-.51937c.38444-.53748.51335-1.2619-.06559-1.2619a3.97587,3.97587,0,0,0-1.27318.40179,7.42706,7.42706,0,0,1-2.86676.747c-1.80991,0-2.232-5.87675-2.232-5.87675Z"/>
    <path class="cls-20" d="M171.3309,203.80988,192.08567,238.508l15.56023,29.3347h3.35147l-26.07144-64.03279Z"/>
    <path class="cls-22" d="M206.31693,266.15185a.509.509,0,0,0-.69048.27666,7.33646,7.33646,0,0,0-.49752,1.93277,17.94412,17.94412,0,0,0,.25176,2.2049h15.754s.61436-2.03-.70859-2.19208-2.19813-.29248-2.19813-.29248l-7.34893-3.27533a.2509.2509,0,0,0-.3347.13343l-.48169,1.1684a6.33247,6.33247,0,0,1-1.99082.57141A5.38431,5.38431,0,0,1,206.31693,266.15185Z"/>
    <path class="cls-23" d="M203.325,263.14564l6.464-1.9554s-4.24775-12.698-10.41245-27.94768-13.24151-29.43268-13.24151-29.43268H167.88068a336.37014,336.37014,0,0,0,16.68116,32.60324A249.21974,249.21974,0,0,0,203.325,263.14564Z"/>
    <path class="cls-20" d="M169.96724,203.80988c-1.95841,12.19294-5.73653,27.77129-6.09309,28.25222q-.3573.48054-25.67265,8.60252l.72441,2.955q30.18915-4.35556,31.814-6.75871c1.62447-2.40241,9.73853-21.38647,12.88194-33.051Z"/>
    <path class="cls-24" d="M144.13477,238.10994l1.27546,4.75961q22.57938,1.981,27.67027-2.8615,5.08937-4.84287,11.60271-36.19817H167.27612q-4.126,25.67645-4.61409,26.75363Q162.17468,231.64223,144.13477,238.10994Z"/>
    <path class="cls-25" d="M144.13477,238.10994l1.27546,4.75961q22.57938,1.981,27.67027-2.8615,5.08937-4.84287,11.60271-36.19817H167.27612q-4.126,25.67645-4.61409,26.75363Q162.17468,231.64223,144.13477,238.10994Z"/>
    <path class="cls-22" d="M139.48374,240.08268a.50916.50916,0,0,0-.39275-.63169,7.36825,7.36825,0,0,0-1.98931-.15454,18.0927,18.0927,0,0,0-2.128.631c.15227.86311,2.73559,15.515,2.73559,15.515s2.10616.25178,2.03606-1.07871c-.07086-1.33123-.09423-2.21622-.09423-2.21622l1.95011-7.805a.25086.25086,0,0,0-.19-.30679l-1.234-.27138a6.32838,6.32838,0,0,1-.90835-1.86116A5.374,5.374,0,0,1,139.48374,240.08268Z"/>
    <path class="cls-20" d="M195.17028,181.0982l-9.69481,5.30987,3.58062,3.843,7.04438-6.4504q5.56656-1.53438,5.09129-2.24485a1.11369,1.11369,0,0,0-1.09456-.37239c-.3098.0098-.59778.01885-.77266-.1681-.398-.42741.36184-1.92222,1.14354-3.31075.78245-1.38777-.05427-1.26641-.53219-1.0674A24.00027,24.00027,0,0,0,195.17028,181.0982Zm10.60993,8.80682-4.25829,2.33908.24272,4.27338a20.11193,20.11193,0,0,1,5.13122-2.65192c3.02506-.84352,4.24925-1.488,5.72824-3.37182.79076-1.00784,1.4624-3.0341.70935-3.69444-.28871-.25253-1.36517.34525-2.46347.95509a10.39485,10.39485,0,0,1-2.20944,1.04553c-.70481.14474-.62264-.76889-.55632-1.49858.04749-.52315.08595-.95282-.1809-.82845C206.67725,186.494,205.78021,189.905,205.78021,189.905Z"/>
    <path class="cls-26" d="M180.21384,185.894a1.695,1.695,0,0,1,1.40134-.692,23.59817,23.59817,0,0,0,9.76643-2.58031,2.28271,2.28271,0,0,1,3.13286,1.02142l.29321.65356a2.01289,2.01289,0,0,1-.47187,2.34285c-3.22105,2.83585-7.3693,5.01061-11.04415,4.90733A3.71268,3.71268,0,0,1,180.21384,185.894Z"/>
    <path class="cls-27" d="M171.59774,214.21629a57.94087,57.94087,0,0,0-6.04936-.594,2.39062,2.39062,0,0,1-2.39035-1.71721c-1.18273-5.46138.303-8.96058,1.66443-12.312a17.96133,17.96133,0,0,0,1.77824-6.84539c.00528-7.19365,5.78176-18.26643,6.63131-18.26643h5.787a2.238,2.238,0,0,1,2.18079,1.95087,83.3071,83.3071,0,0,0,3.09592,12.17109q.33921,1.10358.6739,2.20716a1.86256,1.86256,0,0,0,1.58453,1.37572c4.52289.386,11.76479-1.69156,15.10945-2.7567a2.09676,2.09676,0,0,1,2.58332,1.13449,29.23086,29.23086,0,0,1,2.08507,6.41949,1.6729,1.6729,0,0,1-.98676,1.69231,45.29155,45.29155,0,0,1-15.43511,4.94051,2.43935,2.43935,0,0,0-2.16571,2.32777,16.39243,16.39243,0,0,1-1.47445,6.41421C184.59878,215.91161,178.17779,214.75,171.59774,214.21629Z"/>
    <path class="cls-28" d="M390.93971,178.32115c7.19966,11.13535,15.58584,21.91715,20.6221,34.092-.20281-1.43449-.41762-2.86825-.65885-4.29976-1.27772-7.58864-2.866-15.12151-4.53494-22.64533-.84956-3.83089-1.74886-7.6482-2.67079-11.46477-.496-2.04963-.98519-4.10075-1.4918-6.14886-.12211-.496-.22761-1.3629-.38142-2.2411,4.89451,14.80568,9.61417,29.62265,13.06661,44.78412q.67959,2.984,1.15488,5.95816c.1078-.45229.21408-.90458.3309-1.35536a83.11473,83.11473,0,0,1,5.98681-15.8286,46.98963,46.98963,0,0,1,4.17611-6.98636c1.00562-1.37344,3.37786-3.0062,4.29524-4.41358-5.01813,8.48494-6.8303,19.10166-9.728,28.32609-.70707,2.25088-1.41869,4.498-2.116,6.74966,4.36986-8.07864,11.1489-14.716,20.57536-17.59177-11.40973,6.94941-18.2536,19.1205-22.86547,31.56748-.015.14776-.03312.29552-.049.44325a17.048,17.048,0,0,1,5.38377-6.026c4.95859-3.21954,10.45918-2.28181,15.26925.48017-3.7751-2.21168-10.59785-.19749-13.77446,2.05114a30.342,30.342,0,0,0-5.90459,5.87521c-.40483.50507-.95584,1.0938-1.53933,1.72247a72.77616,72.77616,0,0,1-4.03362,14.5637,33.73,33.73,0,0,0,.17262-4.62539c.009-.11158.01657-.22315.02637-.3347q-.43078,1.583-.83,3.1238a39.63263,39.63263,0,0,0,1.04252-6.06671q.08709-1.33086.17414-2.66172-.02829-2.526-.22162-5.06865c-.45154-1.64556-.95658-3.19842-1.37347-4.48895a55.8606,55.8606,0,0,0-6.42021-13.28523,53.35656,53.35656,0,0,0-8.85884-10.35289c-1.84456-1.678-3.77432-3.27533-5.677-4.89527-.68747-.585-1.91771-2.02475-2.9813-2.77555,7.7462,3.93641,15.71853,8.19548,21.36911,14.53808q-.99387-3.5177-2.14311-6.92305C402.47,200.62276,397.59439,188.71022,390.93971,178.32115Z"/>
    <path class="cls-29" d="M398.67836,241.35361c0,12.76509,1.096,23.11348,15.815,23.11348,14.71825,0,15.815-10.34839,15.815-23.11348"/>
    <g>
      <path class="cls-30" d="M251.44218,167.05653a77.66879,77.66879,0,0,1-.17542-7.93727c.12608-1.66273.98778-5.36094,3.36932-6.57492,2.38192-1.21435,2.846-1.28232,1.63424,1.51144-1.21179,2.79339-.59968,3.27467-.3161,3.12849.284-.14617.90629-1.12079,1.07877-.91943a5.75215,5.75215,0,0,1-1.44165,3.24215c-.79957.59456-1.11312.23936-.83429,2.82116"/>
      <path class="cls-31" d="M263.95069,159.84027l1.47636-1.396,1.4168,1.446L262.645,164.159l-1.16939-1.16684,1.25088-1.50669-23.4376-13.82371,9.202-10.22965Z"/>
      <path class="cls-32" d="M270.86949,171.58976c-4.534-.19733-16.23632-1.58964-15.49084-10.68681a1.37036,1.37036,0,0,0-.46044-1.1566,1.38867,1.38867,0,0,0-1.21179-.31282l-2.73272.61065a3.42518,3.42518,0,0,0-2.15279,1.49792,3.38721,3.38721,0,0,0-.45168,2.57267c1.0806,4.71631,4.49852,12.935,15.22589,14.9551,8.95939,1.69233,9.793-2.65855,9.49074-5.407A2.3343,2.3343,0,0,0,270.86949,171.58976Z"/>
      <path class="cls-33" d="M272.625,172.64916c.106.30441-.01279,6.43423-8.84611,4.04976s-10.83371-5.22427-13.7488-10.70252c-2.16923-4.06986-.59675-5.43294.35558-5.86561a3.41426,3.41426,0,0,0-2.01575,3.901c1.07328,4.74884,4.4923,13.00659,15.22259,15.03622,8.96159,1.70038,9.79588-2.67133,9.4933-5.43293a2.3493,2.3493,0,0,0-.1586-.62855c-.20428-.26421-.32012-.40527-.30222-.3574Z"/>
      <path class="cls-34" d="M256.381,154.10183c1.26149-2.8515.789-2.77988-1.70074-1.53849-2.31248,1.14381-3.23484,4.45686-3.4636,6.28257-.15129,1.65908,2.05558.65413,2.19189.22036.13594-.433.41294-1.50377,1.36673-1.42812.7126-.32524.7126-.47288.67386-.45168C255.2,157.075,255.09654,156.95332,256.381,154.10183Z"/>
      <path class="cls-35" d="M269.58681,192.90564s-.3289-2.41188-2.49958-1.67954a3.29148,3.29148,0,0,0-2.27411,2.80435l-2.64064-3.6909,3.96242-10.38679,2.8884-2.32563,4.47769,4.30666"/>
      <path class="cls-36" d="M276.42448,170.33741h-5.33683a1.39268,1.39268,0,0,0-1.08242.4769,1.90182,1.90182,0,0,0-.04824,2.083c.9019,2.14292-10.16533,11.2346-9.97458,13.83942.14252,1.91233,2.67573,5.62881,4.015,7.46841a.46863.46863,0,0,0,.51124.16993.46044.46044,0,0,0,.33-.421c.11439-3.24214.66583-11.51854,3.362-15.13964a17.50259,17.50259,0,0,1,5.35985-4.52958"/>
      <path class="cls-37" d="M271.30837,170.33705H276.059v.22583l-2.28288,3.055-1.81073-1.12847S272.69849,170.5797,271.30837,170.33705Z"/>
      <path class="cls-38" d="M291.19759,195.12384a10.13536,10.13536,0,0,0-4.54091-3.4742c-3.05541-1.18256-4.59864.30221-5.15885,1.60718-.56022,1.30461-4.70828-.08514-4.70828-.08514l5.05251-9.67017,6.534-1.49975,5.58934,3.6138"/>
      <path class="cls-30" d="M274.56258,168.1057a2.34061,2.34061,0,0,1,.75243,2.58619,2.58213,2.58213,0,0,1-1.86591,1.43031,2.76929,2.76929,0,0,0-1.90392,1.96532l-.96768,3.66532,2.07312,4.24856,5.73552-.22438,3.9003-4.14258,1.81219-4.99515a7.15372,7.15372,0,0,1-2.42357-4.85372"/>
      <path class="cls-39" d="M273.91978,182.0014l-1.5151-.89276s.5847-1.75848,1.859-1.43361,1.4844-.07455.99728-1.833c-.277-.9918,2.69472-.9918,1.07182,1.19314-.88472,1.19535,1.21252.81127,1.874.63221a2.4069,2.4069,0,0,0,1.79466-2.26424c-.023-1.35175-2.30736-2.0088-3.44058-3.42267-1.13321-1.41351-.37932-4.00774-.37932-4.00774l6.46858,1.15076a6.59836,6.59836,0,0,0,1.44859,1.73582l-1.81512,4.91109-3.90761,4.07205-4.45612.1586Z"/>
      <path class="cls-40" d="M269.37339,187.32288c-.30148-3.85169-3.01411-5.69094-.952-9.22032,3.396-5.79435,4.60669-5.94308,4.60669-5.94308s-5.825,7.5404,3.077,7.60837c5.16141.04276,7.35147-5.88242,7.786-7.25317a16.78714,16.78714,0,0,0-.16591,2.36072,13.80817,13.80817,0,0,0,2.125,7.72641l.03508.20172a2.54132,2.54132,0,0,1-.22109,1.5743l-4.19447,8.51283a3.44605,3.44605,0,0,0,.839,4.12906l1.25563,1.08059-5.2038,6.12434s-9.5145,4.75359-9.5145-5.45413c.00256-.00512,1.14747-3.49174.52733-11.44765Z"/>
      <path class="cls-41" d="M282.289,197.1743l1.26624,1.07657-4.63191,5.38543L277.88,203.872l-2.62858-1.67626s3.59589-.60991,2.91253-2.7605c-.6841-2.15023-3.077-1.8217-3.11279-5.71907-.038-3.82173-5.718-7.12892-5.97122-7.26706-.34716-1.69124-1.09923-2.99621-1.42593-4.3337a6.15245,6.15245,0,0,0,1.22056,1.3046c3.039,2.54234,10.431,2.24634,13.38153.84855,1.99528-.94612,1.9803-4.01505,1.77236-5.91239a12.885,12.885,0,0,0,1.2107,3.46324l.05591.10269q.09957.18327.20756.36178l.06834.11512c.09136.14544.18235.28869.27846.42646l.03545.201a2.504,2.504,0,0,1-.22292,1.56846l-4.22882,8.47921a3.404,3.404,0,0,0,.85585,4.10019Z"/>
      <path class="cls-42" d="M266.19666,215.44609c.38151,11.713,11.75314,32.92688,26.12245,47.112h2.37716s-23.397-37.33988-14.28562-55.22066l-5.85355-.18125a8.16892,8.16892,0,0,0-5.99315,2.35633,7.98623,7.98623,0,0,0-2.36729,5.93358Z"/>
      <path class="cls-43" d="M289.25932,215.94272c-2.6516,7.02185-11.22765,31.94056-25.09668,46.251h-3.45191s9.8485-8.44888,16.2831-50.73092l8.63159-2.84163c3.01485-.26421,4.69951,4.49012,3.6339,7.32151Z"/>
      <path class="cls-44" d="M276.6949,216.43241s5.04265-3.654,11.80943,1.931c0,0,5.43038-12.00092-4.79014-19.959,0,0-9.44177,8.48543-14.77165.66546,0,0-4.43712,12.17706-2.0395,20.97128.00731.00256.96293,1.60426,9.79222-3.60868Z"/>
      <path class="cls-45" d="M294.87168,262.55846h-2.557a.54376.54376,0,0,0-.49736.3172.5127.5127,0,0,0,.10232.56788l3.27906,3.3547a.52987.52987,0,0,1-.10379.82735l-1.43981.89788a.31974.31974,0,0,0-.13777.3636.334.334,0,0,0,.32012.23242h4.51313l-3.47895-6.561Z"/>
      <path class="cls-46" d="M257.70612,267.061l1.64008-3.98654a1.31994,1.31994,0,0,1,1.24431-.8807h3.40915l-5.67632,6.92574h-3.02581a.4294.4294,0,0,1-.42281-.32889.42282.42282,0,0,1,.23352-.47836l2.59825-1.25125Z"/>
      <path class="cls-30" d="M269.00649,157.38015l-.25581,6.86545a.78933.78933,0,0,0,.3837.70273,1.29877,1.29877,0,0,1,.57812.75864c.25581.88509.91067,2.63,2.3176,2.27594a3.07267,3.07267,0,0,1,3.72708,2.35414l5.7834-2.31869s-1.17415-9.24992-5.50712-11.16407c-4.33334-1.91452-7.02734.52586-7.02734.52586Z"/>
      <path class="cls-47" d="M269.11576,164.51565c.12242-.01535.57483-.09611.5825-.41a15.04015,15.04015,0,0,0,.14472-2.78389c-.12973-.0402-.49992-.19989-.69214-.29345l.14252-3.74571.01462-.01243c.03033-.02521.10013-.08588.21013-.167l1.32726-.16189,5.49871-.09136c1.81476.93405,3.04189,3.2268,3.84694,5.48665l.01974.05591c.03654.10452.07272.209.10744.31391q.099.29062.18747.5847l.03508.11329.07491.25324.04751.16226.09026.32377.06468.2379.04751.18491.05482.22.04019.15714c.02741.11621.05482.23242.08259.34388l.02229.10378.0603.25325.02485.11365.06249.296v.03289l.32743,1.8429s-.43743.167-.45972.19l-.47507.19733a8.049,8.049,0,0,1-6.46858-.25325,2.65608,2.65608,0,0,0-1.21727-.25288c.07236-.03069.16482-.05335.25-.09866,2.43709-1.10874,1.06707-6.47626-1.98431-5.45121-1.73217.58214-1.21764,3.36311-1.21764,3.36311a1.31561,1.31561,0,0,0-.16225-.36178,1.27835,1.27835,0,0,0-.25-.29089,1.2353,1.2353,0,0,0-.15239-.11657.78236.78236,0,0,1-.28759-.33913Z"/>
      <path class="cls-48" d="M269.14572,155.71559a12.09777,12.09777,0,0,1,9.05551-1.9496c6.45688,1.20046,3.514,8.56728,6.47954,10.90643,2.96588,2.33879,2.27045,7.80572,2.27045,7.80572h-2.9275s-8.72954.64426-7.8682-2.89572c.861-3.53961-.08661-8.42732-3.78629-8.55485a4.40672,4.40672,0,0,1-3.654-1.73217c-.10707-.16262-.23424-.30989-.35155-.46447A2.29709,2.29709,0,0,1,269.14572,155.71559Z"/>
      <path class="cls-49" d="M276.12189,159.84867c-2.86757-2.0099-.59821-3.2944,3.50892-2.26826,2.8091.702,2.71519-.35447,2.37533-1.09485,1.4051,2.76489.66985,6.80223,2.69546,8.43171,2.95382,2.3746,2.24633,7.92484,2.24633,7.92484h-2.91325s-8.68641.65413-7.8291-2.93993c.82917-3.48187-.03033-8.25154-3.43546-8.65974C272.77012,161.24244,278.98947,161.85857,276.12189,159.84867Z"/>
      <path class="cls-50" d="M287.26623,170.33705h-1.928a1.36766,1.36766,0,0,0-1.36673,1.19461c-.33,2.75465-.782,9.516,2.22551,12.32323a14.41962,14.41962,0,0,1,4.90524,10.71568.5668.5668,0,0,0,.38554.52184.57922.57922,0,0,0,.63074-.17359c2.61908-3.34081,8.47738-11.90773,2.62164-15.20835-6.03846-3.40586-6.85923-7.54515-6.97325-8.91261a.505.505,0,0,0-.50065-.46045Z"/>
      <path class="cls-51" d="M294.43791,180.01306a4.69828,4.69828,0,0,1,2.451,3.81076c-.21013-1.22055-1.10654-2.76342-4.03076-2.47473-3.93063.38809-6.20145-3.33314-6.20145-3.33314l3.16724-1.84655a16.37183,16.37183,0,0,0,4.614,3.84366Z"/>
      <path class="cls-30" d="M308.71549,166.32748a77.66564,77.66564,0,0,0,.17542-7.93727c-.12608-1.66273-.98778-5.36094-3.36932-6.57492-2.38192-1.21434-2.846-1.28231-1.63424,1.51145s.59968,3.27467.3161,3.12849c-.28395-.14617-.90628-1.12079-1.07876-.91943a5.75207,5.75207,0,0,0,1.44164,3.24214c.79957.59457,1.11312.23936.83429,2.82117"/>
      <path class="cls-52" d="M287.82644,171.581c4.534-.1977,16.23632-1.58855,15.49083-10.67913a1.36856,1.36856,0,0,1,.46045-1.15551,1.38977,1.38977,0,0,1,1.21179-.31282l2.73273.61028a3.42519,3.42519,0,0,1,2.15278,1.49683,3.38248,3.38248,0,0,1,.45168,2.57084c-1.08059,4.72034-4.4934,12.93278-15.22589,14.95876-8.95939,1.69123-9.793-2.65672-9.49073-5.40334a2.33321,2.33321,0,0,1,2.21636-2.08628Z"/>
      <path class="cls-53" d="M286.07856,172.64587c-.106.30441.01243,6.4324,8.84319,4.04867,8.83039-2.38374,10.83042-5.22281,13.74441-10.7,2.16849-4.0684.59675-5.43111-.35521-5.86378a3.41354,3.41354,0,0,1,2.015,3.9003c-1.0806,4.74482-4.4934,13.00038-15.22552,15.03732-8.959,1.69964-9.79259-2.67061-9.49037-5.43148a2.35817,2.35817,0,0,1,.15859-.62855C285.98026,172.73906,286.09611,172.59836,286.07856,172.64587Z"/>
      <path class="cls-54" d="M303.77663,153.00808c-1.26149-2.8515-.789-2.77951,1.70073-1.53849,2.31248,1.14382,3.23484,4.45686,3.46361,6.28294.15129,1.65908-2.05558.65377-2.19189.22036-.13594-.43341-.30331-1.57978-1.36673-1.42849s-1.38756-.42025-1.38756-.42025a.61.61,0,0,0,.10817.07674C304.411,156.342,305.06113,155.85994,303.77663,153.00808Z"/>
      <path class="cls-55" d="M242.98709,131.5241l-2.19262-7.65662m-2.74077,9.49257-6.76056-5.48154m5.48154,11.35884-7.67416-1.5224"/>
      <circle class="cls-56" cx="239.88088" cy="153.27631" r="0.73087"/>
      <circle class="cls-57" cx="237.32283" cy="126.59948" r="0.73087"/>
      <circle class="cls-58" cx="262.72063" cy="149.43923" r="0.91359"/>
      <circle class="cls-59" cx="252.48842" cy="134.09092" r="0.91359"/>
    </g>
  </g>
</svg>
