<svg id="Layer_1" data-name="Layer 1" xmlns="http://www.w3.org/2000/svg" xmlns:xlink="http://www.w3.org/1999/xlink" viewBox="0 0 349.62557 217.90029">
  <defs>
    <style>
      .cls-1 {
        fill: #f9aa8f;
      }

      .cls-2 {
        fill: #6e6861;
      }

      .cls-3 {
        fill: #dc4d1c;
      }

      .cls-4 {
        fill: #0062ba;
      }

      .cls-5 {
        fill: #16495c;
      }

      .cls-6 {
        fill: #fff;
      }

      .cls-7 {
        fill: #59544f;
      }

      .cls-8 {
        fill: url(#linear-gradient);
      }

      .cls-9 {
        fill: #d95d32;
      }

      .cls-10 {
        fill: url(#linear-gradient-2);
      }

      .cls-11 {
        fill: #d00000;
      }

      .cls-12 {
        fill: url(#linear-gradient-3);
      }

      .cls-13 {
        fill: #324f00;
      }

      .cls-14 {
        fill: #cf7f00;
      }

      .cls-15 {
        fill: #524b43;
      }

      .cls-16, .cls-18 {
        fill: none;
        stroke-width: 0.36469px;
      }

      .cls-16 {
        stroke: #d63d31;
      }

      .cls-17 {
        fill: #41a8df;
      }

      .cls-18 {
        stroke: #45a0d4;
      }

      .cls-19 {
        fill: #fb330b;
      }

      .cls-20 {
        fill: #ffba08;
      }

      .cls-21 {
        fill: #3f3d56;
      }

      .cls-22 {
        fill: #0b7cf5;
      }

      .cls-23 {
        fill: #2f2e41;
      }

      .cls-24 {
        fill: #fbbebe;
      }

      .cls-25 {
        opacity: 0.2;
        isolation: isolate;
      }

      .cls-26 {
        fill: #cfcce0;
      }

      .cls-27 {
        fill: #c40980;
      }

      .cls-28 {
        fill: url(#radial-gradient);
      }

      .cls-29 {
        fill: url(#radial-gradient-2);
      }
    </style>
    <linearGradient id="linear-gradient" x1="5415.82546" y1="-1531.29468" x2="5415.28985" y2="-1531.58878" gradientTransform="translate(167918.96131 -76260.99572) rotate(180) scale(30.99961 49.85695)" gradientUnits="userSpaceOnUse">
      <stop offset="0" stop-color="#f78e6b"/>
      <stop offset="1" stop-color="#f9aa8f"/>
    </linearGradient>
    <linearGradient id="linear-gradient-2" x1="5441.03549" y1="-1576.71702" x2="5440.91325" y2="-1575.96301" gradientTransform="translate(146941.23656 -37646.11804) rotate(180) scale(27.00007 23.932)" gradientUnits="userSpaceOnUse">
      <stop offset="0" stop-color="#e56d55"/>
      <stop offset="1" stop-color="#de5337"/>
    </linearGradient>
    <linearGradient id="linear-gradient-3" x1="5358.00264" y1="-1517.59304" x2="5357.76251" y2="-1516.86823" gradientTransform="translate(251885.26286 -114909.00962) rotate(180) scale(47.00034 75.78273)" gradientUnits="userSpaceOnUse">
      <stop offset="0" stop-color="#e6f0f8"/>
      <stop offset="1" stop-color="#9bb8cc"/>
    </linearGradient>
    <radialGradient id="radial-gradient" cx="3919.09973" cy="989.35844" r="6.88729" gradientTransform="matrix(0, -1.98198, -1.8439, 0, 2033.97536, 7930.90961)" gradientUnits="userSpaceOnUse">
      <stop offset="0" stop-color="#fd5"/>
      <stop offset="0.1" stop-color="#fd5"/>
      <stop offset="0.5" stop-color="#ff543e"/>
      <stop offset="1" stop-color="#c837ab"/>
    </radialGradient>
    <radialGradient id="radial-gradient-2" cx="7050.25454" cy="-2978.25564" r="6.88729" gradientTransform="matrix(0.17394, 0.86872, 3.5818, -0.71718, 9644.92477, -8111.15209)" gradientUnits="userSpaceOnUse">
      <stop offset="0" stop-color="#3771c8"/>
      <stop offset="0.128" stop-color="#3771c8"/>
      <stop offset="1" stop-color="#60f" stop-opacity="0"/>
    </radialGradient>
  </defs>
  <g>
    <g>
      <path class="cls-1" d="M55.83341,96.644s-1.14659-3.33437-3.27128-4.125c-2.12433-.791-3.48462.12472-3.27128.54084a8.18843,8.18843,0,0,0,1.48758,1.36467A4.44721,4.44721,0,0,0,53.96364,96.935"/>
      <path class="cls-2" d="M43.06922,98.00938a41.01413,41.01413,0,0,1,8.184,10.3379c3.81466,6.52542,4.6633-3.89709,1.90624-11.12782A1.28794,1.28794,0,0,1,54.57523,95.497a1.72894,1.72894,0,0,1,.75017.3089c1.03937.77679,9.0137,19.85378.95184,24.0149-8.06223,4.16113-11.1745-4.66549-11.1745-4.66549"/>
      <path class="cls-3" d="M43.06922,98.00938a41.01413,41.01413,0,0,1,8.184,10.3379c3.81466,6.52542,4.6633-3.89709,1.90624-11.12782A1.28794,1.28794,0,0,1,54.57523,95.497a1.72894,1.72894,0,0,1,.75017.3089c1.03937.77679,9.0137,19.85378.95184,24.0149-8.06223,4.16113-11.1745-4.66549-11.1745-4.66549"/>
      <path class="cls-2" d="M51.38856,132.84139s6.633,28.65816,6.633,55.36923H55.30023S40.13382,146.324,33.95194,138.17938c-.00255,0,7.05751-15.71017,17.43662-5.338Z"/>
      <path class="cls-4" d="M51.38856,132.84139s6.633,28.65816,6.633,55.36923H55.30023S40.13382,146.324,33.95194,138.17938c-.00255,0,7.05751-15.71017,17.43662-5.338Z"/>
      <path class="cls-4" d="M28.47647,136.58312s21.84427-18.37423,16.22,6.39741a148.71781,148.71781,0,0,1-17.92092,44.50325H23.3759s4.373-30.30947,5.72492-47.48059l-.62435-3.42008Z"/>
      <path class="cls-5" d="M26.29343,168.5658c1.20531-9.3959,2.5109-20.41541,3.152-28.51884l-.62508-3.42883a46.21436,46.21436,0,0,1,5.93316-4.133l10.09136-1.00363c1.30341,1.74212,1.6422,5.2552.2148,11.5607q-1.02566,4.514-2.3311,8.95755c-.94565,2.722-2.29646,5.49407-3.95435,5.87225-3.37448.77242-11.09828.23122-12.48082,10.70186Z"/>
      <circle class="cls-6" cx="59.48032" cy="84.57088" r="1.09407"/>
      <circle class="cls-6" cx="56.92748" cy="79.84339" r="0.72938"/>
      <circle class="cls-6" cx="56.38045" cy="84.0253" r="0.36469"/>
      <path class="cls-7" d="M32.12849,130.89977c.24215.03283.48431.05836.72938.07294C32.67006,130.95083,32.413,130.92166,32.12849,130.89977Z"/>
      <path class="cls-1" d="M30.305,85.5891c0-4.21948,2.33184-5.38211,6.831-5.38211,3.13015,0,4.695,5.62207,5.13048,8.19606.18781,1.09408.06564,3.16443-.97555,3.53094a3.134,3.134,0,0,0-1.93505,2.91644c.02844,1.30267.60757,2.03315.46425,2.16262-1.53644,1.37634-8.55273,2.64984-7.79637-1.07365,1.59881-7.87916-1.71879-6.12572-1.71879-10.34957Z"/>
      <path class="cls-8" d="M37.11309,80.20881c1.64876,0,2.86063,1.566,3.698,3.427-.36906.08169-1.30012.33734-1.256.791.06491.5587,1.27423,3.50869,1.21187,4.02545s.6579-.1714.806.12911a.775.775,0,0,1-.82931.94637c-.68124-.0237-.744-2.73372-1.56051-3.5747s-3.01636-.52734-2.78259,2.08785c.23413,2.61484,1.17576,5.12756,4.68117,3.95435l-.12764.05543c-.70458.32166-3.919,1.87707-4.24135,3.71694-.36141,2.0667.08314,2.37267,1.42229,2.0853-2.56888.85411-6.7012.99378-6.11587-1.9139C33.61278,88.05951,30.305,89.81,30.305,85.5891a5.18651,5.18651,0,0,1,1.27424-3.89344L34.154,80.45935A14.88437,14.88437,0,0,1,37.11309,80.20881Z"/>
      <path class="cls-9" d="M41.54883,79.35726s2.01382,2.12432-2.71185,3.5871c-3.73078,1.16555-3.93793,2.98426-3.87484,3.69322a.485.485,0,0,1-.22866.47009.46681.46681,0,0,1-.64012-.16145l-.00028-.00047a1.28317,1.28317,0,0,0-1.473-.74871c-.88475.26549-.61961,1.96714-.17579,2.85662a.66011.66011,0,0,1,.03757.504.6504.6504,0,0,1-.329.38038l-.17869.08752s-3.9011-4.827-2.99011-7.86164C29.89512,79.129,40.17577,77.91563,41.54883,79.35726Z"/>
      <path class="cls-10" d="M28.98485,82.40024a2.345,2.345,0,0,1,.8614-1.10246c-.75491,1.597,1.22536,1.94453,2.54555,1.18743,1.32091-.7571,2.30156-.41976,2.32308.82129.02115,1.2414,3.978-.05908,3.978-.05908-3.49994,1.13309-3.70709,2.83292-3.63524,3.49191a.46453.46453,0,0,1-.23122.45587.4846.4846,0,0,1-.64842-.15682,1.31212,1.31212,0,0,0-1.49085-.72647c-.89569.25748-.62727,1.90843-.17834,2.77093a.61593.61593,0,0,1,.0383.48868.63992.63992,0,0,1-.333.36907l-.18089.085s-3.97039-4.6819-3.04808-7.62569Z"/>
      <path class="cls-11" d="M42.98717,97.73513a4.75716,4.75716,0,0,1-.903-1.36686,12.37638,12.37638,0,0,1-.558-1.51055c-.47884-1.66773-9.02757-.52333-10.188.7695-1.16081,1.29356-.48978,1.2673-1.97408,2.61848-1.48429,1.35082-6.9904,7.04729-3.25049,20.49856s1.44491,21.36834,3.25049,21.78993c1.54775.36105,1.3975-1.01858,9.57752.34791a30.523,30.523,0,0,0,11.43854-.26185c1.95547-.42121,3.63232-.73813,3.94814-3.0944.26294-1.97918-.6528-3.99483-1.19764-5.86168q-1.024-3.49848-1.87123-7.04511C49.16686,115.87523,49.55635,104.64894,42.98717,97.73513Z"/>
      <path class="cls-12" d="M54.03512,92.70057A8.47653,8.47653,0,0,0,52.572,86.15145c-2.30011-3.097-.73522-8.95389,1.91681-7.358s4.54515-1.33258,2.46422-5.54877c-2.08093-4.21693,2.30521-7.48492,5.79968-4.7749a10.24662,10.24662,0,0,1,2.38618,13.43084c-3.10863,5.04331-1.70311,5.50684,1.36394,4.477,3.06669-1.02952,2.93868,5.79385-1.53352,5.9255-4.47221.13129-6.303.13968-5.45286,1.51711.85009,1.37708-1.22026,1.84315-1.80158.4741-.58168-1.36978-2.32892-1.58057-2.45692-.7323"/>
      <path class="cls-13" d="M45.92512,105.0016q.46892-1.05565.99925-2.08238c1.09918-2.30667,3.12613-5.97984,5.03383-7.78069a5.91687,5.91687,0,0,0,1.2797-1.78516.45588.45588,0,0,1,.02663-.2396l.26476-.6083a.47749.47749,0,0,1,.62253-.263l1.74614.72939a.47118.47118,0,0,1,.2688.60973l-.00367.00915-.26513.60794a.46842.46842,0,0,1-.31.2633v.03939a17.37776,17.37776,0,0,1-.55652,5.9266c-.12983.59809-.26477,1.19545-.42377,1.7775-.41867,1.62434-.88256,3.10425-1.2374,4.05974q-.42733.94179-.91136,1.85628a3.59229,3.59229,0,0,1-4.47768,1.659l-.085-.03173a3.55257,3.55257,0,0,1-1.97116-4.74719Z"/>
      <circle class="cls-14" cx="50.80777" cy="102.46456" r="2.17794" transform="translate(-35.09406 26.95766) rotate(-22.31)"/>
      <path class="cls-3" d="M29.36887,98.22637c1.48393-1.35191.8129-1.33623,1.973-2.62577.67614-.74762,3.849-1.45147,6.47983-1.5751,0,0-5.41165,4.74171-1.13127,11.618,4.28,6.87589,2.7071,7.63481.12874,8.83464s6.97945-.70859,6.97945-.70859-9.42617,6.86312-7.29747,11.81489c2.128,4.95141,1.73885,5.734.45222,8.61947-1.28626,2.88507,4.37484,3.62832,4.37484,3.62832l-3.41971,2.741H36.06679a15.84035,15.84035,0,0,0-5.29313,0H29.19528c-1.50253-.87453.52625-8.73-3.08857-21.79138C22.37883,105.29445,27.8853,99.579,29.36887,98.22674Z"/>
      <path class="cls-3" d="M38.18892,137.37158a31.39541,31.39541,0,0,0,6.172.41356,2.11584,2.11584,0,0,0,2.03534-2.17064,40.44089,40.44089,0,0,0-.86651-6.80695,46.11987,46.11987,0,0,1-1.10064-7.49076c-.4989-4.79861-1.11887-10.77079-2.466-13.82362A44.58017,44.58017,0,0,1,38.33845,94.0255c.368,0,.7199,0,1.05067.0237a44.07648,44.07648,0,0,0,3.52219,13.02786c1.41281,3.19944,2.04336,9.26024,2.54736,14.138a46.49558,46.49558,0,0,0,1.05068,7.28617l.01568.05762a41.35857,41.35857,0,0,1,.8851,6.54548,2.12119,2.12119,0,0,0,2.54482,2.00544h.02918c2.06962-.44493,3.81612-.927,3.83983-1.28007V135.481a27.03319,27.03319,0,0,1,.17614,3.9011c-.0237.34281-1.71259.80633-3.71656,1.23849a30.38966,30.38966,0,0,1-11.41192.26185c-8.16288-1.36686-8.013.01568-9.55746-.34828-.66957-.15681-.775-1.35118-.83258-3.47952,1.42594.21991,1.61776-1.03682,9.70734.31692Z"/>
      <path class="cls-1" d="M41.97515,112.07734s2.11958-2.52147,4.22093-2.458c2.10135.06383,3.55647-.752,3.42992,0-.12654.75236-5.27817,3.97769-7.13664,4.77053"/>
      <path class="cls-11" d="M29.46369,98.37954s-10.397,10.59793-8.84813,20.45334c1.45694,9.25221,17.10328,3.13269,23.29355-4.80627a1.22629,1.22629,0,0,0-1.08788-1.96933,2.27553,2.27553,0,0,0-.91391.28811c-1.31727.75855-11.91154,5.96634-12.14859,1.79245-.237-4.17425,6.22163-7.71394,5.98749-11.2726C35.51173,99.30732,31.48918,97.13412,29.46369,98.37954Z"/>
      <path class="cls-15" d="M58.20974,188.21062V190.169a2.92335,2.92335,0,0,0,1.32018,2.43978l2.3559,1.55213a.32385.32385,0,0,1-.17942.59554H58.15175a1.54666,1.54666,0,0,1-1.51347-1.21479l-1.16956-5.33142m-28.35255-.72136-1.36977,3.4033a2.24146,2.24146,0,0,0,.585,2.51345l.95695.82712a.30524.30524,0,0,1,.08132.32895.28921.28921,0,0,1-.26877.19475h-3.066a1.01678,1.01678,0,0,1-.775-.37163,1.09043,1.09043,0,0,1-.23778-.84826l.85812-6.05314"/>
      <ellipse class="cls-3" cx="28.48158" cy="104.93523" rx="1.82346" ry="1.81835"/>
      <circle class="cls-16" cx="50.36304" cy="60.18544" r="0.72938"/>
      <circle class="cls-17" cx="52.55119" cy="68.93803" r="0.72938"/>
      <circle class="cls-18" cx="25.92874" cy="74.77309" r="0.72938"/>
      <circle class="cls-19" cx="48.72193" cy="86.26086" r="0.91173"/>
      <circle class="cls-19" cx="60.39205" cy="60.36779" r="0.91173"/>
      <path class="cls-20" d="M289.29666,96.85625l.00077-.00032a7.73854,7.73854,0,0,0,3.24572-5.082,7.00351,7.00351,0,0,0-.52142-4.5482,7.68022,7.68022,0,0,0-2.54506-2.93737,18.08074,18.08074,0,0,0-2.2727-1.35244l.39262-2.13017a10.98644,10.98644,0,0,1,1.72025,1.47675,1.75183,1.75183,0,0,0,2.70257-.20764l2.22537-3.18659a1.75205,1.75205,0,0,0-.04346-2.06662,9.76362,9.76362,0,0,0-2.784-2.39864,16.34742,16.34742,0,0,0-2.11907-1.10678l.37168-2.01518a1.75237,1.75237,0,0,0-1.40522-2.04077l-3.78887-.69858a1.7518,1.7518,0,0,0-2.0407,1.40545l-.38875,2.10681a10.01748,10.01748,0,0,0-4.73628,1.694,7.73734,7.73734,0,0,0-3.32642,5.11044,7.24229,7.24229,0,0,0,.50125,4.63534l.104-.05222-.104.05222c.007.01428.01474.02848.02251.04252l.10164-.05462-.10164.05462A8.40613,8.40613,0,0,0,277.12,86.5047a21.38965,21.38965,0,0,0,2.35884,1.41064l-.40737,2.21218a9.68949,9.68949,0,0,1-2.61334-1.98615,1.75214,1.75214,0,0,0-2.71032.1998l-2.22537,3.1866a1.75193,1.75193,0,0,0,.12414,2.16384,13.85412,13.85412,0,0,0,5.72871,3.71989l-.34607,1.87519a1.7523,1.7523,0,0,0,1.40521,2.04079l3.78965.69857a1.7522,1.7522,0,0,0,2.0407-1.40537l.39339-2.13467a9.69265,9.69265,0,0,0,4.62611-1.62123l.00078-.00031Zm-4.17373-12.93758-.01708.09.08381.0374a18.77806,18.77806,0,0,1,3.21545,1.77331l.00232.00117a5.80669,5.80669,0,0,1,1.94682,2.2488h0l.00078.00163a5.14277,5.14277,0,0,1,.35072,3.36413,5.872,5.872,0,0,1-2.48143,3.89091,8.42471,8.42471,0,0,1-5.03425,1.3509l-.09776-.00148-.01784.09676-.62618,3.39525-3.56-.65644.6029-3.27094.01862-.10421-.10164-.02886a13.03427,13.03427,0,0,1-6.30057-3.585l2.09113-2.99448a12.05169,12.05169,0,0,0,1.1251,1.02889,11.18918,11.18918,0,0,0,2.47988,1.514,11.58816,11.58816,0,0,0,1.57592.56543l.1226.03437.02328-.12531,1.03044-5.59059.01629-.08815-.0807-.03825a22.8281,22.8281,0,0,1-3.30081-1.85417,6.53855,6.53855,0,0,1-2.036-2.29947,5.39505,5.39505,0,0,1-.33365-3.45716A5.87113,5.87113,0,0,1,278.37,75.30684a8.59958,8.59958,0,0,1,5.14442-1.4271l.09854.00156.01786-.09684.62074-3.36413,3.56.65636-.61455,3.33309-.01862.09956.09622.032a14.91807,14.91807,0,0,1,3.16968,1.47652h0l.00156.001a8.01352,8.01352,0,0,1,2.21838,1.86984l-2.09579,3.00038a13.32459,13.32459,0,0,0-1.12277-1.03036,11.58113,11.58113,0,0,0-1.55575-1.0742,10.59351,10.59351,0,0,0-1.54642-.73062l-.13036-.049-.02561.1368Zm-.64248,4.36408-.14509-.09172-.03182.16907-.824,4.47247-.02871.15317.1552-.01629a2.68659,2.68659,0,0,0,1.90258-.91754,2.74217,2.74217,0,0,0,.54083-1.25041,1.68862,1.68862,0,0,0-.298-1.359A4.04448,4.04448,0,0,0,284.48045,88.28275Zm-2.27425-5.72227.14431.08652.03026-.1652.88146-4.78307.028-.15108-.15287.01412a3.2447,3.2447,0,0,0-1.787.67087l-.00078.00024c-.02406.01994-.04811.04027-.07139.06106l.07682.08714-.07682-.08714a2.4926,2.4926,0,0,0-.78369,1.46372,2.11614,2.11614,0,0,0,.24053,1.5036q.02213.03818.04657.07573v.00008l.00387.00535A4.77418,4.77418,0,0,0,282.2062,82.56048Z"/>
      <g>
        <path class="cls-20" d="M211.40837,73.80573a.54521.54521,0,1,0-.28469.71656A.54468.54468,0,0,0,211.40837,73.80573Z"/>
        <path class="cls-20" d="M214.1182,69.07372a1.63578,1.63578,0,1,0-.85427,2.15007A1.63758,1.63758,0,0,0,214.1182,69.07372Zm-2.00269.86414a.5453.5453,0,1,1,.71635.28462A.54555.54555,0,0,1,212.11551,69.93786Z"/>
        <path class="cls-20" d="M216.84691,72.64735a1.63592,1.63592,0,1,0,.8542-2.15007A1.635,1.635,0,0,0,216.84691,72.64735Zm2.00289-.86387a.54534.54534,0,1,1-.71649-.28489A.5454.5454,0,0,1,218.8498,71.78348Z"/>
        <path class="cls-20" d="M214.67768,75.26468a.54458.54458,0,0,0,.634-.43828l1.41389-7.7358a.54506.54506,0,1,0-1.07234-.19607l-1.414,7.73581A.54478.54478,0,0,0,214.67768,75.26468Z"/>
        <path class="cls-20" d="M206.33072,64.38329a.545.545,0,0,0,.00593.41714l3.20633,7.434a.54528.54528,0,0,0,1.00144-.4318L207.554,64.86928l9.012-3.88682,6.85605,15.89632-9.01164,3.8871L212.272,75.808a.54526.54526,0,1,0-1.00131.432L213.625,81.6984a.54508.54508,0,0,0,.71656.28469l10.01377-4.3189a.5453.5453,0,0,0,.28427-.71655L217.35139,60.0498a.545.545,0,0,0-.71649-.28482l-10.01357,4.31889A.54507.54507,0,0,0,206.33072,64.38329Z"/>
        <path class="cls-20" d="M207.45678,53.62794l1.31061,3.03917a3.85374,3.85374,0,0,0-1.74,4.264l-2.541,1.05312-.00723.00314a1.63468,1.63468,0,0,0-.85365,2.15075l8.64494,19.92549a1.6354,1.6354,0,0,0,2.15021.85439l2.80869-1.21148a3.87362,3.87362,0,0,0,6.39861-2.7598l2.80868-1.21142a1.63593,1.63593,0,0,0,.85488-2.149l-8.56034-19.96468a1.63432,1.63432,0,0,0-2.14946-.85413l-.0075.00314L214.065,57.89591a3.84557,3.84557,0,0,0-4.296-1.6608l-1.31075-3.0389a.54527.54527,0,1,0-1.00144.43173ZM213.319,58.8193a.54518.54518,0,0,0,.72378.28162l2.97325-1.33324a.54457.54457,0,0,1,.71308.28482L226.2894,78.017a.546.546,0,0,1-.285.717l-3.14,1.35457a.54485.54485,0,0,0-.32859.53352,2.78119,2.78119,0,0,1-4.79316,2.06758.54548.54548,0,0,0-.61355-.12755l-3.1404,1.35437a.54643.54643,0,0,1-.71751-.28577L204.62642,63.705a.54493.54493,0,0,1,.28155-.71506l3.0104-1.24755a.54471.54471,0,0,0,.29219-.71975,2.745,2.745,0,0,1,.99469-3.34043l.448,1.0386a1.63447,1.63447,0,1,0,1.001-.43289l-.44782-1.03832A2.74075,2.74075,0,0,1,213.319,58.8193Zm-2.77037.6008a.54545.54545,0,1,1-.28489.717A.5452.5452,0,0,1,210.54858,59.4201Z"/>
        <path class="cls-20" d="M211.40837,73.80573a.54521.54521,0,1,0-.28469.71656A.54468.54468,0,0,0,211.40837,73.80573Z"/>
        <path class="cls-20" d="M214.1182,69.07372a1.63578,1.63578,0,1,0-.85427,2.15007A1.63758,1.63758,0,0,0,214.1182,69.07372Zm-2.00269.86414a.5453.5453,0,1,1,.71635.28462A.54555.54555,0,0,1,212.11551,69.93786Z"/>
        <path class="cls-20" d="M216.84691,72.64735a1.63592,1.63592,0,1,0,.8542-2.15007A1.635,1.635,0,0,0,216.84691,72.64735Zm2.00289-.86387a.54534.54534,0,1,1-.71649-.28489A.5454.5454,0,0,1,218.8498,71.78348Z"/>
        <path class="cls-20" d="M214.67768,75.26468a.54458.54458,0,0,0,.634-.43828l1.41389-7.7358a.54506.54506,0,1,0-1.07234-.19607l-1.414,7.73581A.54478.54478,0,0,0,214.67768,75.26468Z"/>
        <path class="cls-20" d="M206.33072,64.38329a.545.545,0,0,0,.00593.41714l3.20633,7.434a.54528.54528,0,0,0,1.00144-.4318L207.554,64.86928l9.012-3.88682,6.85605,15.89632-9.01164,3.8871L212.272,75.808a.54526.54526,0,1,0-1.00131.432L213.625,81.6984a.54508.54508,0,0,0,.71656.28469l10.01377-4.3189a.5453.5453,0,0,0,.28427-.71655L217.35139,60.0498a.545.545,0,0,0-.71649-.28482l-10.01357,4.31889A.54507.54507,0,0,0,206.33072,64.38329Z"/>
        <path class="cls-20" d="M207.45678,53.62794l1.31061,3.03917a3.85374,3.85374,0,0,0-1.74,4.264l-2.541,1.05312-.00723.00314a1.63468,1.63468,0,0,0-.85365,2.15075l8.64494,19.92549a1.6354,1.6354,0,0,0,2.15021.85439l2.80869-1.21148a3.87362,3.87362,0,0,0,6.39861-2.7598l2.80868-1.21142a1.63593,1.63593,0,0,0,.85488-2.149l-8.56034-19.96468a1.63432,1.63432,0,0,0-2.14946-.85413l-.0075.00314L214.065,57.89591a3.84557,3.84557,0,0,0-4.296-1.6608l-1.31075-3.0389a.54527.54527,0,1,0-1.00144.43173ZM213.319,58.8193a.54518.54518,0,0,0,.72378.28162l2.97325-1.33324a.54457.54457,0,0,1,.71308.28482L226.2894,78.017a.546.546,0,0,1-.285.717l-3.14,1.35457a.54485.54485,0,0,0-.32859.53352,2.78119,2.78119,0,0,1-4.79316,2.06758.54548.54548,0,0,0-.61355-.12755l-3.1404,1.35437a.54643.54643,0,0,1-.71751-.28577L204.62642,63.705a.54493.54493,0,0,1,.28155-.71506l3.0104-1.24755a.54471.54471,0,0,0,.29219-.71975,2.745,2.745,0,0,1,.99469-3.34043l.448,1.0386a1.63447,1.63447,0,1,0,1.001-.43289l-.44782-1.03832A2.74075,2.74075,0,0,1,213.319,58.8193Zm-2.77037.6008a.54545.54545,0,1,1-.28489.717A.5452.5452,0,0,1,210.54858,59.4201Z"/>
      </g>
      <g>
        <path class="cls-20" d="M268.16731,47.64677a.92757.92757,0,0,0-.74164-.37063h-8.63961L255.31269,38.592a.92635.92635,0,0,0-1.72048,0l-3.47458,8.68417H241.478a.92677.92677,0,0,0-.55608,1.668l6.86449,5.1478L244.31365,63.637a.92686.92686,0,0,0,1.44964,1.0407l8.65642-6.92622,7.75625,6.89379a.92672.92672,0,0,0,1.5097-.936l-2.61344-9.58206,6.90953-5.183A.92689.92689,0,0,0,268.16731,47.64677Z"/>
        <path class="cls-20" d="M247.96418,43.18621l-2.39605-2.39636a.92684.92684,0,0,0-1.31092,1.31057l2.39665,2.39635a.92662.92662,0,0,0,1.31032-1.31056Z"/>
        <path class="cls-20" d="M263.33556,40.78859,260.93951,43.185a.92662.92662,0,1,0,1.31032,1.31056l2.39606-2.39635a.92663.92663,0,0,0-1.31033-1.31057Z"/>
        <path class="cls-20" d="M243.33181,54.68973h-3.707a.92672.92672,0,0,0,0,1.85343h3.707a.92672.92672,0,0,0,0-1.85343Z"/>
        <path class="cls-20" d="M269.27826,54.68973h-3.707a.92672.92672,0,0,0,0,1.85343h3.707a.92672.92672,0,0,0,0-1.85343Z"/>
        <path class="cls-20" d="M255.37934,64.88359V61.1768a.9269.9269,0,0,0-1.85379,0v3.70679a.9269.9269,0,0,0,1.85379,0Z"/>
      </g>
      <g>
        <path class="cls-20" d="M236.29152,24.90915A26.91908,26.91908,0,0,0,228.082,36.14461l-1.0651,2.76353a.81747.81747,0,0,0,1.52477.58869L229.6098,36.736a25.26518,25.26518,0,0,1,7.7108-10.55132.83981.83981,0,0,0,.18757-.22235.81744.81744,0,0,0-1.21665-1.0532Z"/>
        <path class="cls-20" d="M226.86969,15.95755a.81757.81757,0,0,0-.88767.741l-1.70538,18.93682a.81741.81741,0,0,0,.7407.88759l.00018,0a.81757.81757,0,0,0,.88767-.74073V35.782l1.70545-18.93684A.81752.81752,0,0,0,226.86969,15.95755Z"/>
        <path class="cls-20" d="M205.54635,31.48022a.8175.8175,0,0,0-.53561,1.54479l.02852.0092A22.86612,22.86612,0,0,1,216.314,41.1227l1.84951,2.47517a.81746.81746,0,0,0,1.14093.16505.80616.80616,0,0,0,.214-.23818.81737.81737,0,0,0-.04848-.90538l-1.8462-2.47419A24.49158,24.49158,0,0,0,205.54635,31.48022Z"/>
        <path class="cls-20" d="M238.88511,22.02814a2.45237,2.45237,0,1,0,3.35935-.862A2.45234,2.45234,0,0,0,238.88511,22.02814Zm2.8142,1.66493a.81745.81745,0,1,1-.28732-1.11978A.81755.81755,0,0,1,241.69931,23.69307Z"/>
        <path class="cls-20" d="M209.1948,27.25987a2.45237,2.45237,0,1,0,3.35936-.86194A2.45234,2.45234,0,0,0,209.1948,27.25987Zm2.81421,1.66494a.81746.81746,0,1,1-.28732-1.11978A.81747.81747,0,0,1,212.009,28.92481Z"/>
        <path class="cls-20" d="M202.63379,31.92746a1.63485,1.63485,0,1,0-2.2395.57461A1.63477,1.63477,0,0,0,202.63379,31.92746Z"/>
        <path class="cls-20" d="M214.99086,12.64233a.81747.81747,0,0,0,.28731,1.11978l.70356.41624a.81746.81746,0,0,0,.83247-1.40711l-.70355-.41623A.81747.81747,0,0,0,214.99086,12.64233Z"/>
        <path class="cls-20" d="M211.47522,10.56337a.81748.81748,0,0,0,.28732,1.11979l.70355.41624a.81746.81746,0,0,0,.83247-1.40711l-.70355-.41623A.81755.81755,0,0,0,211.47522,10.56337Z"/>
        <path class="cls-20" d="M214.8336,9.70139l-.41623.70355a.81742.81742,0,1,0,1.40707.83239l.41626-.70347a.81746.81746,0,1,0-1.4071-.83247Z"/>
        <path class="cls-20" d="M212.75169,13.21683l-.41624.70355a.81746.81746,0,1,0,1.4071.83247l.41624-.70355a.81746.81746,0,1,0-1.4071-.83247Z"/>
        <path class="cls-20" d="M216.28774,20.05589l-2.08992,3.53251a.81746.81746,0,0,0,.28731,1.11979l3.53251,2.08992a.81753.81753,0,0,0,1.11978-.28731l2.08993-3.53251A.81755.81755,0,0,0,220.94,21.8585l-3.5325-2.08992A.81748.81748,0,0,0,216.28774,20.05589Zm3.11627,2.79348-1.25745,2.12541-2.12541-1.25746,1.25746-2.12541Z"/>
        <path class="cls-20" d="M219.12743,28.6546a.81744.81744,0,0,0-.62717.94365l2.16958,10.78154a.8173.8173,0,1,0,1.60241-.32277l-2.16961-10.78163A.81734.81734,0,0,0,219.12743,28.6546Z"/>
        <path class="cls-20" d="M229.32264,17.32153a.81755.81755,0,0,0,.28732,1.11979l.70355.41623a.81746.81746,0,1,0,.83247-1.4071l-.70355-.41623A.81746.81746,0,0,0,229.32264,17.32153Z"/>
        <path class="cls-20" d="M230.96644,14.26455l-.79166.20316a.81744.81744,0,0,0,.40623,1.58335l.79169-.20308a.81748.81748,0,0,0-.40626-1.58343Z"/>
        <path class="cls-20" d="M228.58967,12.1404l-.41623.70355a.81746.81746,0,1,0,1.4071.83247l.41624-.70355a.81746.81746,0,1,0-1.40711-.83247Z"/>
        <path class="cls-20" d="M225.9832,11.33523a.81763.81763,0,0,0-.57835.97759l.20316.79167a.81731.81731,0,1,0,1.58332-.40631l-.20307-.79169A.81737.81737,0,0,0,225.9832,11.33523Z"/>
        <path class="cls-20" d="M222.98985,13.57471a.81755.81755,0,0,0,.28731,1.11979l.70355.41624a.81746.81746,0,0,0,.83247-1.40711l-.70355-.41623A.81753.81753,0,0,0,222.98985,13.57471Z"/>
        <path class="cls-20" d="M223.84038,16.09418l-.79166.20316a.81744.81744,0,0,0,.40623,1.58335l.79166-.20315a.81744.81744,0,0,0-.40623-1.58336Z"/>
        <path class="cls-20" d="M198.67955,39.12878a.81739.81739,0,0,0-.8143.2847l-1.52207,1.8872-2.41555-.18586a.851.851,0,0,0-.74677,1.26218l1.32345,2.032-.9213,2.24265a.81741.81741,0,0,0,.96815,1.10079l2.34-.632,1.84833,1.56843a.81746.81746,0,0,0,1.34875-.58119l.11888-2.42286,2.06356-1.27239a.81743.81743,0,0,0-.13766-1.4596l-2.26457-.86488-.57224-2.3559A.81719.81719,0,0,0,198.67955,39.12878ZM198.38,42.89414a.81727.81727,0,0,0,.502.57057l1.1199.427-1.01958.62686a.81762.81762,0,0,0-.38711.65425l-.06127,1.19851-.91336-.776a.81743.81743,0,0,0-.739-.16842l-1.15724.31359.45556-1.10861a.8176.8176,0,0,0-.07142-.75752l-.65449-1.0017,1.19347.09067a.81788.81788,0,0,0,.69789-.30139l.752-.93235Z"/>
        <path class="cls-20" d="M247.3464,26.74594l-.00117.00186-.41251.02225a8.394,8.394,0,0,0-5.95258,2.9681.55622.55622,0,0,0,.85058.71648,7.27791,7.27791,0,0,1,4.198-2.44842,3.28215,3.28215,0,0,0,.18216,2.69306,2.22508,2.22508,0,0,0,3.84561-2.23945,3.22608,3.22608,0,0,0-1.04514-1.0378,2.71791,2.71791,0,0,1,2.5482,1.36605.55627.55627,0,0,0,.97572-.53451l-.01487-.0255A3.88327,3.88327,0,0,0,247.3464,26.74594Zm1.74887,2.27235a1.1125,1.1125,0,1,1-1.91719,1.12915l-.00529-.00887a2.08458,2.08458,0,0,1-.07654-1.79553.5662.5662,0,0,1,.19719-.20652C247.758,27.86583,248.74835,28.4227,249.09527,29.01829Z"/>
      </g>
      <rect class="cls-21" x="143.95299" y="183.05187" width="129.20465" height="0.60946"/>
      <path class="cls-22" d="M148.37767,97.63967a4.57235,4.57235,0,0,1,7.49935,5.23219,21.45334,21.45334,0,0,0,2.3982,27.4316l11.3054,11.30541,16.76,16.76,9.42218,9.42218a21.413,21.413,0,0,0,35.79029-9.42218,20.85006,20.85006,0,0,0,.56681-2.74255,21.954,21.954,0,0,0,.20417-2.98025,21.26575,21.26575,0,0,0-3.05033-11.03724,21.59514,21.59514,0,0,0-3.221-4.10772l-16.35476-16.35476a4.57023,4.57023,0,0,1,6.46328-6.46327l16.35474,16.35474a30.49268,30.49268,0,0,1,6.90514,10.571q.5226,1.34843.91113,2.74255a30.70262,30.70262,0,0,1,1.13359,8.29469q-.00151,1.50383-.14322,2.98025-.13255,1.385-.3931,2.74255a30.10054,30.10054,0,0,1-4.82689,11.57966,29.51155,29.51155,0,0,1-2.13005,2.74255c-.46318.53633-.95075,1.05742-1.4566,1.56326a30.56,30.56,0,0,1-43.21651,0l-37.48764-37.48764A30.61205,30.61205,0,0,1,148.37767,97.63967Z"/>
      <path class="cls-22" d="M93.13351,63.29379a30.3,30.3,0,0,1,2.98024-11.27493,29.33717,29.33717,0,0,1,1.51449-2.74255,30.59061,30.59061,0,0,1,47.60156-5.52472l37.48764,37.48764a30.59325,30.59325,0,0,1,0,43.2165h0a4.57023,4.57023,0,1,1-6.46329-6.46327,21.44506,21.44506,0,0,0,0-30.29l-37.4876-37.48764c-.32606-.32606-.6582-.63993-1.00255-.93856a21.4192,21.4192,0,0,0-28.28485,0c-.34434.29863-.67648.6125-1.00254.93856a21.39435,21.39435,0,0,0-6.1738,13.07892q-.09753,1.02389-.09751,2.06606c0,.22549.003.451.01218.67649a21.29261,21.29261,0,0,0,6.11589,14.32222c.0457.04875.09447.09751.14322.14627l16.35474,16.35475a4.57024,4.57024,0,0,1-6.46329,6.46328L102.0133,86.96811a30.64422,30.64422,0,0,1-5.03106-6.60955A29.50812,29.50812,0,0,1,95.611,77.616a30.41831,30.41831,0,0,1-2.53839-11.57966q-.00915-.33825-.00915-.67649Q93.065,64.32226,93.13351,63.29379Z"/>
      <path class="cls-3" d="M290.02959,184.96038s4.78156,3.196,6.17755,8.35635-1.12224,10.3311-1.12224,10.3311-4.78157-3.196-6.17755-8.35636S290.02959,184.96038,290.02959,184.96038Z"/>
      <path class="cls-3" d="M300.48469,184.96038s-4.78157,3.196-6.17756,8.35635,1.12224,10.3311,1.12224,10.3311,4.78157-3.196,6.17755-8.35636S300.48469,184.96038,300.48469,184.96038Z"/>
      <path class="cls-3" d="M309.129,190.13994s-.46788,5.73225-4.29849,9.46119-9.57336,4.0425-9.57336,4.0425.46789-5.73223,4.29849-9.46119S309.129,190.13994,309.129,190.13994Z"/>
      <path class="cls-3" d="M281.3853,190.13994s.46789,5.73225,4.29849,9.46119,9.57336,4.0425,9.57336,4.0425-.46789-5.73223-4.2985-9.46119S281.3853,190.13994,281.3853,190.13994Z"/>
      <path class="cls-20" d="M118.96532,64.81743a6.08913,6.08913,0,1,1,.12188,1.21891,6.16976,6.16976,0,0,1-.1219-1.21891Z"/>
      <rect class="cls-21" x="256.70233" y="203.16392" width="70.39216" height="0.60946"/>
      <path class="cls-22" d="M153.49707,52.01886H140.5705l-1.804-1.804c-.32607-.32606-.65821-.63993-1.00255-.93856h12.99055Z"/>
      <path class="cls-22" d="M97.62822,49.27631H109.4791c-.34435.29863-.67649.6125-1.00255.93856a21.37845,21.37845,0,0,0-1.612,1.804H96.11375A29.3324,29.3324,0,0,1,97.62822,49.27631Z"/>
      <polygon class="cls-22" points="167.515 66.036 154.588 66.036 151.845 63.294 164.772 63.294 167.515 66.036"/>
      <path class="cls-20" d="M130.96244,63.29379a6.14781,6.14781,0,0,1,.07008,2.74255H119.0872a6.14781,6.14781,0,0,1,.07008-2.74255Z"/>
      <path class="cls-22" d="M93.13351,63.29379h9.16927q-.09752,1.02388-.09752,2.06606c0,.22549.003.451.01218.67649H93.07257q-.00915-.33825-.00915-.67649Q93.065,64.32226,93.13351,63.29379Z"/>
      <polygon class="cls-22" points="181.837 80.359 168.91 80.359 166.168 77.616 179.094 77.616 181.837 80.359"/>
      <path class="cls-22" d="M106.05093,77.616a21.15655,21.15655,0,0,0,2.28241,2.74256H96.98222A29.508,29.508,0,0,1,95.611,77.616Z"/>
      <path class="cls-22" d="M239.42121,141.60887q.5226,1.34843.91113,2.74255h-9.666a21.26069,21.26069,0,0,0-1.39261-2.74255Z"/>
      <polygon class="cls-22" points="169.581 141.609 172.323 144.351 159.397 144.351 156.654 141.609 169.581 141.609"/>
      <path class="cls-22" d="M232.11992,155.62636h9.20279q-.13255,1.385-.3931,2.74255h-9.37648A20.85067,20.85067,0,0,0,232.11992,155.62636Z"/>
      <polygon class="cls-22" points="183.598 155.626 186.341 158.369 173.414 158.369 170.672 155.626 183.598 155.626"/>
      <path class="cls-22" d="M223.53574,169.94857h12.567a29.51155,29.51155,0,0,1-2.13005,2.74255H218.47726A21.20289,21.20289,0,0,0,223.53574,169.94857Z"/>
      <path class="cls-22" d="M198.2799,169.94857a21.20282,21.20282,0,0,0,5.05847,2.74255H187.7363l-2.74255-2.74255Z"/>
      <path class="cls-23" d="M229.73153,98.23412c-.19031,2.22707,5.72019,1.96807,11.92642,2.16844a22.67332,22.67332,0,0,0,2.47957-.04237l.64827-3.50064,1.04679,3.25808c5.79524-1.30817,2.08885-6.70376-.5967-12.292-2.88123-5.99547-7.37269-5.42111-7.37269-5.42111a9.05006,9.05006,0,0,0-6.939,4.12C228.68248,90.31232,229.98453,95.27356,229.73153,98.23412Z"/>
      <polygon class="cls-24" points="242.228 172.843 241.923 181.376 247.408 181.376 247.713 173.453 242.228 172.843"/>
      <path class="cls-23" d="M240.09465,116.46883l7.92292.60945s3.96147,12.18912,3.65674,14.62694c-.06094.48147-.2255,2.44087-.454,5.28093-.62164,7.67915-1.69429,21.7911-2.34945,30.39662-.32605,4.34542-.54851,7.28908-.54851,7.28908l-7.6182-.91418.60946-28.035-.7923-2.62675-7.18548-23.86935-.5546-1.8436Z"/>
      <path class="cls-23" d="M241.31357,180.157s.30473,6.704-.30473,8.53238,3.04728,3.04728,3.65674,3.04728a14.044,14.044,0,0,1,3.04728,1.52364c1.52364,2.43782,6.09455,3.04728,6.09455,3.04728,9.14184-.60946-1.52364-7.6182-1.52364-7.6182s-3.65673-7.00874-3.96146-8.83711-2.43782.60946-2.43782.60946Z"/>
      <polygon class="cls-24" points="241.923 163.092 239.18 169.187 243.447 171.32 246.189 166.139 241.923 163.092"/>
      <path class="cls-25" d="M240.52127,143.09595c-3.97974-4.75375-7.89854-10.72033-7.43536-15.3522l1.98074.15237,6.39928.30472s5.33883,5.43026,9.7513,10.36075a41.11974,41.11974,0,0,1-2.89492,12.64621A85.078,85.078,0,0,1,240.52127,143.09595Z"/>
      <path class="cls-23" d="M236.74265,117.99246l-5.18038-.60946-.30472,10.36075c-.56623,5.6623,5.41417,13.312,10.04871,18.31487,2.84795,3.07432,5.18768,5.14918,5.18768,5.14918l-5.581,12.9424,5.8857,3.51291s7.6182-8.53238,10.36075-15.54112-16.76-24.07351-16.76-24.07351Z"/>
      <path class="cls-23" d="M240.09466,168.5773c-.30473-.30473-1.21891.30472-3.96147.91418s-.60945,6.09456-.60945,6.09456-1.52364,8.83711,4.26619,12.18912,3.352-10.97021,3.352-10.97021.60945-3.04728.91418-4.87565-1.82837-1.82836-1.82837-1.82836S240.39939,168.882,240.09466,168.5773Z"/>
      <circle class="cls-24" cx="237.96156" cy="89.95749" r="5.4851"/>
      <path class="cls-24" d="M233.69537,92.09058c.30473,2.1331-3.352,7.00874-3.352,7.00874l7.92293,4.2662,3.04728-2.74256A13.69589,13.69589,0,0,0,238.571,98.7946c-.91419-.30473,1.52364-6.704,1.52364-6.704Z"/>
      <path class="cls-26" d="M224.2488,99.70878c-1.82836,1.21891,4.57092,13.1033,4.57092,13.1033s1.82837,6.704,2.43783,9.44657,8.22765-1.82837,10.66547-4.57092,5.78984,2.74255,7.00875,2.13309,0,0,.60945-.60945-.60945-.60946-.60945-1.21891a7.04447,7.04447,0,0,0-2.43783-3.352c-1.21891-.91418-1.37127-1.37128-.45709-4.11383s-.15236-4.41855-1.676-5.028-.30473-2.43782-.91419-4.57092-4.43-1.93274-4.43-1.93274c-2.29693,2.02873-8.67327-1.11454-8.67327-1.11454S226.07717,98.48987,224.2488,99.70878Z"/>
      <path class="cls-24" d="M229.12445,122.25865l3.352.60945s2.43782,5.48511,5.78983,5.18038-1.82837-5.18038-2.74255-7.31347-4.26619-1.52364-4.26619-1.52364Z"/>
      <path class="cls-26" d="M230.34336,109.46007l-3.65673,7.6182,5.18037,1.82837-.91418,4.26619s-7.92293-.91418-11.57966-2.43782,2.13309-15.2364,2.43782-17.06477a8.95244,8.95244,0,0,1,2.10929-3.73951l3.98527-.22195Z"/>
      <polygon class="cls-25" points="241.771 145.875 246.951 151.36 241.024 163.891 246.037 151.36 241.771 145.875"/>
      <polygon class="cls-25" points="248.475 167.815 246.951 167.815 249.041 165.154 248.475 167.815"/>
      <circle class="cls-23" cx="237.29908" cy="82.42443" r="3.33274"/>
      <path class="cls-23" d="M238.0007,84.86139a3.3672,3.3672,0,0,0,.35082.01874h.01009a3.33274,3.33274,0,1,0-.01009-6.66548,3.3672,3.3672,0,0,0-.35082.01874,3.33249,3.33249,0,0,1,0,6.628Z"/>
      <polygon class="cls-23" points="231.737 90.373 237.05 90.482 237.592 86.904 238.459 90.265 239.954 90.323 239.954 88.246 240.859 90.357 244.098 90.482 242.796 84.736 236.508 83.76 231.954 86.145 231.737 90.373"/>
    </g>
    <g>
      <path class="cls-27" d="M89.17681,207.97713a.51936.51936,0,0,1-.1499-.37207.54753.54753,0,0,1,.03613-.19238l.77979-2.00391L87.587,199.91268a.6026.6026,0,0,1-.04785-.22754.53953.53953,0,0,1,.15576-.38965.51086.51086,0,0,1,.38428-.16211.52625.52625,0,0,1,.30566.09571.54619.54619,0,0,1,.19824.24023l1.84815,4.584,1.88379-4.56055a.52432.52432,0,0,1,.5039-.35938.51236.51236,0,0,1,.38428.16211.5415.5415,0,0,1,.15576.38965.5685.5685,0,0,1-.03613.2041l-3.27588,7.87207a.54016.54016,0,0,1-.50391.37207A.491.491,0,0,1,89.17681,207.97713Z"/>
      <path class="cls-27" d="M95.6148,205.0367a2.68714,2.68714,0,0,1-1.07373-1.12207,3.83725,3.83725,0,0,1,0-3.32324,2.6872,2.6872,0,0,1,1.07373-1.12207,3.48341,3.48341,0,0,1,3.228,0,2.72888,2.72888,0,0,1,1.08008,1.12207,3.78889,3.78889,0,0,1,0,3.32324,2.72882,2.72882,0,0,1-1.08008,1.12207,3.48334,3.48334,0,0,1-3.228,0Zm2.562-.82714a1.83916,1.83916,0,0,0,.74414-.72071,2.40432,2.40432,0,0,0,.29395-1.248,2.37549,2.37549,0,0,0-.29395-1.23536,1.79869,1.79869,0,0,0-.74414-.71484,2.10988,2.10988,0,0,0-.94189-.22168,2.13511,2.13511,0,0,0-.9541.22168,1.75958,1.75958,0,0,0-.7378.71484,2.40933,2.40933,0,0,0-.28808,1.23536,2.43874,2.43874,0,0,0,.28808,1.248,1.79869,1.79869,0,0,0,.7378.72071,2.09,2.09,0,0,0,.9541.22753A2.06546,2.06546,0,0,0,98.17681,204.20956Z"/>
      <path class="cls-27" d="M102.77252,205.12069a2.0256,2.0256,0,0,1-.74366-.85156,2.71631,2.71631,0,0,1-.2583-1.18848v-3.40723a.51446.51446,0,0,1,.16211-.38476.543.543,0,0,1,.39014-.15528.532.532,0,0,1,.54.54v3.28809q0,1.46337,1.31982,1.46387a1.91194,1.91194,0,0,0,1.07422-.3125,3.88227,3.88227,0,0,0,.894-.83985v-3.59961a.514.514,0,0,1,.16163-.38476.5446.5446,0,0,1,.39013-.15528.53123.53123,0,0,1,.54.54v5.14746a.54542.54542,0,0,1-.15576.39063.51508.51508,0,0,1-.38428.16113.551.551,0,0,1-.55176-.55176v-.49218a4.0023,4.0023,0,0,1-.98437.80468,2.49186,2.49186,0,0,1-1.24805.29981A2.07568,2.07568,0,0,1,102.77252,205.12069Z"/>
      <path class="cls-27" d="M109.295,205.21737a.524.524,0,0,1-.15625-.38477v-5.14746a.53993.53993,0,0,1,.15625-.38965.5098.5098,0,0,1,.38379-.16211.55349.55349,0,0,1,.55224.55176v.51563a2.36429,2.36429,0,0,1,1.88379-1.12793h.06006a.50446.50446,0,0,1,.37793.15625.53366.53366,0,0,1,.1499.38379.48225.48225,0,0,1-.15576.37207.56334.56334,0,0,1-.396.14453h-.06005a2.05158,2.05158,0,0,0-1.05616.28125,2.43581,2.43581,0,0,0-.80371.77441v3.64746a.51446.51446,0,0,1-.16211.38477.54384.54384,0,0,1-.39013.15527A.52213.52213,0,0,1,109.295,205.21737Z"/>
      <path class="cls-27" d="M113.53033,204.89315a.45949.45949,0,0,1-.20361-.39649.48309.48309,0,0,1,.13183-.33593.43574.43574,0,0,1,.33594-.14356.52568.52568,0,0,1,.21631.04785,4.76215,4.76215,0,0,0,.76758.26368,3.54752,3.54752,0,0,0,.86425.09668q1.33155,0,1.332-.85254a.45434.45434,0,0,0-.30615-.41993,6.31122,6.31122,0,0,0-1.00195-.32421,8.9074,8.9074,0,0,1-1.16992-.34766,2.054,2.054,0,0,1-.792-.5459,1.38747,1.38747,0,0,1-.33007-.96582,1.72932,1.72932,0,0,1,.60595-1.36816,2.56242,2.56242,0,0,1,1.73389-.52832,5.02281,5.02281,0,0,1,1.74023.2998.45264.45264,0,0,1,.25782.18067.48131.48131,0,0,1,.09033.27539.46925.46925,0,0,1-.13818.33593.45337.45337,0,0,1-.34229.14453.64492.64492,0,0,1-.15576-.02441,4.61289,4.61289,0,0,0-1.36817-.21582,1.87056,1.87056,0,0,0-1.01367.23438.69755.69755,0,0,0-.36621.60546.55512.55512,0,0,0,.33594.52832,4.8039,4.8039,0,0,0,1.04394.32422,10.22264,10.22264,0,0,1,1.15235.35352,1.91423,1.91423,0,0,1,.76172.5459,1.48176,1.48176,0,0,1,.31787.99609,1.58393,1.58393,0,0,1-.606,1.27246,2.60266,2.60266,0,0,1-1.71.50391A4.46159,4.46159,0,0,1,113.53033,204.89315Z"/>
      <path class="cls-27" d="M119.65093,205.21737a.52407.52407,0,0,1-.15625-.38477v-7.78711a.54383.54383,0,0,1,.15625-.39062.51339.51339,0,0,1,.38379-.16211.55348.55348,0,0,1,.55225.55273v3.13184a3.99138,3.99138,0,0,1,.98389-.80469,2.49312,2.49312,0,0,1,1.248-.2998,2.07574,2.07574,0,0,1,1.146.3125,2.03573,2.03573,0,0,1,.74414.85156,2.72292,2.72292,0,0,1,.25781,1.18848v3.40722a.51446.51446,0,0,1-.16211.38477.54384.54384,0,0,1-.39013.15527.532.532,0,0,1-.54-.54v-3.28711q0-1.46484-1.31983-1.46484a1.90913,1.90913,0,0,0-1.07373.3125,3.884,3.884,0,0,0-.894.83984v3.59961a.51446.51446,0,0,1-.16211.38477.54384.54384,0,0,1-.39014.15527A.52216.52216,0,0,1,119.65093,205.21737Z"/>
      <path class="cls-27" d="M127.88238,205.0367a2.68714,2.68714,0,0,1-1.07373-1.12207,3.83725,3.83725,0,0,1,0-3.32324,2.6872,2.6872,0,0,1,1.07373-1.12207,3.48341,3.48341,0,0,1,3.228,0,2.72885,2.72885,0,0,1,1.08007,1.12207,3.78889,3.78889,0,0,1,0,3.32324,2.72879,2.72879,0,0,1-1.08007,1.12207,3.48334,3.48334,0,0,1-3.228,0Zm2.562-.82714a1.83916,1.83916,0,0,0,.74414-.72071,2.40432,2.40432,0,0,0,.294-1.248,2.37549,2.37549,0,0,0-.294-1.23536,1.79869,1.79869,0,0,0-.74414-.71484,2.10991,2.10991,0,0,0-.94189-.22168,2.13518,2.13518,0,0,0-.95411.22168,1.75962,1.75962,0,0,0-.73779.71484,2.40933,2.40933,0,0,0-.28808,1.23536,2.43874,2.43874,0,0,0,.28808,1.248,1.79873,1.79873,0,0,0,.73779.72071,2.09006,2.09006,0,0,0,.95411.22753A2.06549,2.06549,0,0,0,130.44439,204.20956Z"/>
      <path class="cls-27" d="M134.25445,207.97127a.54381.54381,0,0,1-.15625-.39062v-7.90723a.532.532,0,0,1,.54-.54.54383.54383,0,0,1,.39014.15528.51445.51445,0,0,1,.1621.38476v.31153a2.75827,2.75827,0,0,1,2.05176-.91211,2.81356,2.81356,0,0,1,1.41016.37793,2.86979,2.86979,0,0,1,1.08008,1.10449,3.68765,3.68765,0,0,1,0,3.39551,2.86986,2.86986,0,0,1-1.08008,1.10449,2.81366,2.81366,0,0,1-1.41016.37793,2.75476,2.75476,0,0,1-2.05176-.91211v3.05957a.53454.53454,0,0,1-.55224.55273A.51334.51334,0,0,1,134.25445,207.97127Zm4.25977-4.12207a2.629,2.629,0,0,0,0-3.19238,1.885,1.885,0,0,0-1.42774-.56348,2.26513,2.26513,0,0,0-1.03809.2461,2.96323,2.96323,0,0,0-.85791.65332v2.52051a2.94645,2.94645,0,0,0,.85791.65332,2.26512,2.26512,0,0,0,1.03809.24609A1.885,1.885,0,0,0,138.51422,203.8492Z"/>
      <path class="cls-27" d="M141.62847,205.151a.64716.64716,0,0,1-.19824-.47363v-.07227a.67689.67689,0,0,1,.67236-.67187h.12012a.67691.67691,0,0,1,.67188.67187v.07227a.67691.67691,0,0,1-.67188.67187h-.12012A.64743.64743,0,0,1,141.62847,205.151Z"/>
      <path class="cls-27" d="M145.78668,205.0494a2.95182,2.95182,0,0,1-1.17041-1.10449,3.48677,3.48677,0,0,1,0-3.38379,2.95857,2.95857,0,0,1,1.17041-1.10449,3.38384,3.38384,0,0,1,1.5957-.38379,3.34285,3.34285,0,0,1,1.09814.16211,4.18261,4.18261,0,0,1,.85791.41406.47709.47709,0,0,1,.10205.75.42038.42038,0,0,1-.31787.15039.54817.54817,0,0,1-.26416-.07227,4.55937,4.55937,0,0,0-.67822-.29394,2.32121,2.32121,0,0,0-.70166-.08985,2.175,2.175,0,0,0-1.62012.59375,2.37946,2.37946,0,0,0,0,3.13184,2.175,2.175,0,0,0,1.62012.59375,2.32155,2.32155,0,0,0,.70166-.08984,4.45831,4.45831,0,0,0,.67822-.294.54826.54826,0,0,1,.26416-.07226.42369.42369,0,0,1,.31787.15039.47709.47709,0,0,1-.10205.75,4.18313,4.18313,0,0,1-.85791.41406,3.31741,3.31741,0,0,1-1.09814.16211A3.38384,3.38384,0,0,1,145.78668,205.0494Z"/>
      <path class="cls-27" d="M151.97857,205.0367a2.68714,2.68714,0,0,1-1.07373-1.12207,3.83725,3.83725,0,0,1,0-3.32324,2.6872,2.6872,0,0,1,1.07373-1.12207,3.48341,3.48341,0,0,1,3.228,0,2.72888,2.72888,0,0,1,1.08008,1.12207,3.78889,3.78889,0,0,1,0,3.32324,2.72882,2.72882,0,0,1-1.08008,1.12207,3.48334,3.48334,0,0,1-3.228,0Zm2.562-.82714a1.83916,1.83916,0,0,0,.74414-.72071,2.40432,2.40432,0,0,0,.29395-1.248,2.37549,2.37549,0,0,0-.29395-1.23536,1.79869,1.79869,0,0,0-.74414-.71484,2.10991,2.10991,0,0,0-.94189-.22168,2.13511,2.13511,0,0,0-.9541.22168,1.75958,1.75958,0,0,0-.7378.71484,2.40933,2.40933,0,0,0-.28808,1.23536,2.43874,2.43874,0,0,0,.28808,1.248,1.79869,1.79869,0,0,0,.7378.72071,2.09,2.09,0,0,0,.9541.22753A2.06549,2.06549,0,0,0,154.54058,204.20956Z"/>
      <path class="cls-27" d="M158.35064,205.21737a.52407.52407,0,0,1-.15625-.38477v-5.14746a.54.54,0,0,1,.15625-.38965.50981.50981,0,0,1,.38379-.16211.55349.55349,0,0,1,.55225.55176v.49219a2.97419,2.97419,0,0,1,.81005-.792,2.19854,2.19854,0,0,1,1.23-.3125,1.8647,1.8647,0,0,1,1.15185.36035,2.014,2.014,0,0,1,.68408.876,2.41661,2.41661,0,0,1,2.208-1.23632,1.82662,1.82662,0,0,1,1.12207.33593,2.01329,2.01329,0,0,1,.666.86426,2.89812,2.89812,0,0,1,.21582,1.10449v3.45508a.51446.51446,0,0,1-.16211.38477.54384.54384,0,0,1-.39014.15527.532.532,0,0,1-.54-.54v-3.23926a1.91091,1.91091,0,0,0-.27588-1.14648,1.11374,1.11374,0,0,0-.94775-.36621,1.58473,1.58473,0,0,0-1.01416.31836,3.07747,3.07747,0,0,0-.71387.834v3.59961a.51446.51446,0,0,1-.16211.38477.54384.54384,0,0,1-.39013.15527.532.532,0,0,1-.54-.54v-3.23926a1.91091,1.91091,0,0,0-.27588-1.14648,1.11375,1.11375,0,0,0-.94776-.36621,1.58473,1.58473,0,0,0-1.01416.31836,3.07744,3.07744,0,0,0-.71386.834v3.59961a.51446.51446,0,0,1-.16211.38477.54384.54384,0,0,1-.39014.15527A.52215.52215,0,0,1,158.35064,205.21737Z"/>
      <path class="cls-27" d="M168.97662,206.30916a.48279.48279,0,0,1-.13819-.34765.59577.59577,0,0,1,.03614-.18067l3.18017-9.2998a.50868.50868,0,0,1,.168-.24023.51229.51229,0,0,1,.65381.04785.48873.48873,0,0,1,.13818.34863.59587.59587,0,0,1-.03613.17969l-3.18018,9.2998a.504.504,0,0,1-.168.24024.4617.4617,0,0,1-.29981.0957A.46908.46908,0,0,1,168.97662,206.30916Z"/>
      <path class="cls-27" d="M176.17047,205.73885a3.956,3.956,0,0,1-1.48194-1.52344,4.19777,4.19777,0,0,1-.522-2.04589,4.88775,4.88775,0,0,1,.6958-2.53223,5.30946,5.30946,0,0,1,1.86621-1.87793,4.81621,4.81621,0,0,1,2.52588-.70215,4.96631,4.96631,0,0,1,2.28613.53418,4.2626,4.2626,0,0,1,1.668,1.47559,3.81649,3.81649,0,0,1,.61817,2.14258,4.30516,4.30516,0,0,1-.23438,1.42773,2.526,2.526,0,0,1-.73193,1.10352,1.862,1.862,0,0,1-1.26563.43261,1.47439,1.47439,0,0,1-.936-.26465,1.04647,1.04647,0,0,1-.40821-.624,2.31533,2.31533,0,0,1-.88818.67871,2.74179,2.74179,0,0,1-1.0918.22168,1.93567,1.93567,0,0,1-1.5-.58789,2.1657,2.1657,0,0,1-.54-1.52441,2.93772,2.93772,0,0,1,.40186-1.55957,2.70893,2.70893,0,0,1,1.05615-1.00782,2.90451,2.90451,0,0,1,1.38623-.34863,2.13385,2.13385,0,0,1,1.53565.61231l.03613-.20411a.42324.42324,0,0,1,.1499-.26367.4371.4371,0,0,1,.294-.1084.41679.41679,0,0,1,.30615.126.432.432,0,0,1,.126.31836l-.01221.13184-.396,2.28027a4.28766,4.28766,0,0,0-.084.7793.97617.97617,0,0,0,.15039.55859.50723.50723,0,0,0,.44971.22168,1.27489,1.27489,0,0,0,1.146-.64746,3.30487,3.30487,0,0,0,.40235-1.75195,3.21131,3.21131,0,0,0-.56446-1.90235,3.55248,3.55248,0,0,0-1.46972-1.20605,4.563,4.563,0,0,0-1.89014-.40821,4.2448,4.2448,0,0,0-2.21387.61231,4.646,4.646,0,0,0-1.63818,1.64355,4.28412,4.28412,0,0,0-.61182,2.22071,3.6007,3.6007,0,0,0,.42578,1.69726,3.38821,3.38821,0,0,0,1.23633,1.31446,3.57137,3.57137,0,0,0,1.92578.5039,5.19057,5.19057,0,0,0,1.272-.13769,10.65683,10.65683,0,0,0,1.23632-.41407.40358.40358,0,0,1,.13184-.02441.2937.2937,0,0,1,.21582.084.27828.27828,0,0,1,.084.20411.30758.30758,0,0,1-.04785.1621.3017.3017,0,0,1-.12011.11426,6.11335,6.11335,0,0,1-2.772.63574A4.24337,4.24337,0,0,1,176.17047,205.73885Zm4.11621-4.06152.19189-1.11621a1.79318,1.79318,0,0,0-1.356-.55176,2.11635,2.11635,0,0,0-.9663.22754,1.81578,1.81578,0,0,0-.72559.666,1.92977,1.92977,0,0,0-.27637,1.04981,1.35835,1.35835,0,0,0,.38428,1.05078,1.41379,1.41379,0,0,0,.99609.35352Q179.99811,203.357,180.28668,201.67733Z"/>
      <path class="cls-27" d="M185.67437,205.21737a.52364.52364,0,0,1-.15576-.38477v-7.40332a.54339.54339,0,0,1,.15576-.39062.5136.5136,0,0,1,.38428-.16114.55182.55182,0,0,1,.55176.55176v7.40332a.51446.51446,0,0,1-.16211.38477.54272.54272,0,0,1-.38965.15527A.52327.52327,0,0,1,185.67437,205.21737Z"/>
      <path class="cls-27" d="M190.45025,204.88729a3.789,3.789,0,0,1-1.48779-1.52441,4.60678,4.60678,0,0,1-.52832-2.22559,4.52879,4.52879,0,0,1,.55224-2.25586,3.91366,3.91366,0,0,1,1.50586-1.52441,4.2221,4.2221,0,0,1,2.11817-.54,5.30306,5.30306,0,0,1,1.63818.22851,5.96026,5.96026,0,0,1,1.34961.63575.42234.42234,0,0,1,.168.168.50044.50044,0,0,1,.07226.26368.482.482,0,0,1-.5039.49218.55282.55282,0,0,1-.252-.05957,4.994,4.994,0,0,0-1.12841-.50488,4.292,4.292,0,0,0-1.22364-.168,3.4851,3.4851,0,0,0-1.644.38477,2.76039,2.76039,0,0,0-1.146,1.12207,3.86242,3.86242,0,0,0-.02392,3.43164,2.86821,2.86821,0,0,0,1.12793,1.16406,3.42957,3.42957,0,0,0,1.74609.42578,4.32455,4.32455,0,0,0,2.09961-.52832v-2.17187h-1.98a.4917.4917,0,1,1,0-.9834h2.36426a.5735.5735,0,0,1,.57568.57617v2.72363a.82069.82069,0,0,1-.126.4502.78306.78306,0,0,1-.32959.29394,6.0789,6.0789,0,0,1-2.74805.67188A4.36139,4.36139,0,0,1,190.45025,204.88729Z"/>
      <path class="cls-27" d="M197.60211,206.96346a.37455.37455,0,0,1-.11963-.28222.41.41,0,0,1,.396-.39649h5.916a.37319.37319,0,0,1,.28174.12012.3888.3888,0,0,1,.11425.27637.38864.38864,0,0,1-.396.3955h-5.916A.3927.3927,0,0,1,197.60211,206.96346Z"/>
      <path class="cls-27" d="M206.70416,205.12069a2.0256,2.0256,0,0,1-.74366-.85156,2.71631,2.71631,0,0,1-.2583-1.18848v-3.40723a.51446.51446,0,0,1,.16211-.38476.543.543,0,0,1,.39014-.15528.532.532,0,0,1,.54.54v3.28809q0,1.46337,1.31982,1.46387a1.91189,1.91189,0,0,0,1.07422-.3125,3.88227,3.88227,0,0,0,.894-.83985v-3.59961a.514.514,0,0,1,.16163-.38476.5446.5446,0,0,1,.39013-.15528.53123.53123,0,0,1,.54.54v5.14746a.54538.54538,0,0,1-.15576.39063.51508.51508,0,0,1-.38428.16113.551.551,0,0,1-.55176-.55176v-.49218a4.00212,4.00212,0,0,1-.98437.80468,2.49186,2.49186,0,0,1-1.248.29981A2.07571,2.07571,0,0,1,206.70416,205.12069Z"/>
      <path class="cls-27" d="M212.86578,204.89315a.4595.4595,0,0,1-.20362-.39649.4831.4831,0,0,1,.13184-.33593.43574.43574,0,0,1,.33594-.14356.52568.52568,0,0,1,.21631.04785,4.76238,4.76238,0,0,0,.76757.26368,3.54766,3.54766,0,0,0,.86426.09668q1.33155,0,1.332-.85254a.45434.45434,0,0,0-.30615-.41993,6.31122,6.31122,0,0,0-1.00195-.32421,8.9074,8.9074,0,0,1-1.16992-.34766,2.054,2.054,0,0,1-.792-.5459,1.38747,1.38747,0,0,1-.33007-.96582,1.72929,1.72929,0,0,1,.606-1.36816,2.56242,2.56242,0,0,1,1.73389-.52832,5.02281,5.02281,0,0,1,1.74023.2998.45264.45264,0,0,1,.25782.18067.48131.48131,0,0,1,.09033.27539.46925.46925,0,0,1-.13818.33593.45337.45337,0,0,1-.34229.14453.64492.64492,0,0,1-.15576-.02441,4.61289,4.61289,0,0,0-1.36817-.21582,1.87054,1.87054,0,0,0-1.01367.23438.69755.69755,0,0,0-.36621.60546.55512.55512,0,0,0,.33594.52832,4.8039,4.8039,0,0,0,1.04394.32422,10.22264,10.22264,0,0,1,1.15235.35352,1.91423,1.91423,0,0,1,.76172.5459,1.48176,1.48176,0,0,1,.31787.99609,1.58393,1.58393,0,0,1-.606,1.27246,2.60266,2.60266,0,0,1-1.71.50391A4.46159,4.46159,0,0,1,212.86578,204.89315Z"/>
      <path class="cls-27" d="M219.28033,204.5992a3.197,3.197,0,0,1-.82227-2.3457,3.90943,3.90943,0,0,1,.312-1.57226,2.67145,2.67145,0,0,1,.96-1.16407,2.75912,2.75912,0,0,1,1.59619-.44433,2.79788,2.79788,0,0,1,1.53613.41406,2.68076,2.68076,0,0,1,.98389,1.10449,3.39125,3.39125,0,0,1,.33593,1.50586.52427.52427,0,0,1-.55175.54h-4.06836a1.97163,1.97163,0,0,0,.624,1.30762,2.148,2.148,0,0,0,1.47607.46777,3.59177,3.59177,0,0,0,.88233-.0957,3.63071,3.63071,0,0,0,.73779-.27637.5.5,0,0,1,.55176.084.43731.43731,0,0,1,.144.33692.51822.51822,0,0,1-.312.44336,3.73895,3.73895,0,0,1-2.09961.52832A3.06472,3.06472,0,0,1,219.28033,204.5992Zm3.82178-2.85058a1.92273,1.92273,0,0,0-.30567-.9834,1.6579,1.6579,0,0,0-.666-.582,1.82687,1.82687,0,0,0-1.6084,0,1.61373,1.61373,0,0,0-.65967.582,1.95819,1.95819,0,0,0-.30029.9834Z"/>
      <path class="cls-27" d="M225.77838,205.21737a.524.524,0,0,1-.15625-.38477v-5.14746a.53993.53993,0,0,1,.15625-.38965.50979.50979,0,0,1,.38378-.16211.55349.55349,0,0,1,.55225.55176v.51563a2.36429,2.36429,0,0,1,1.88379-1.12793h.06006a.50447.50447,0,0,1,.37793.15625.53366.53366,0,0,1,.1499.38379.48225.48225,0,0,1-.15576.37207.56336.56336,0,0,1-.396.14453h-.06006a2.05154,2.05154,0,0,0-1.05615.28125,2.43581,2.43581,0,0,0-.80371.77441v3.64746a.51446.51446,0,0,1-.16211.38477.54384.54384,0,0,1-.39014.15527A.52212.52212,0,0,1,225.77838,205.21737Z"/>
      <path class="cls-27" d="M230.37408,205.21737a.524.524,0,0,1-.15625-.38477v-5.14746a.53993.53993,0,0,1,.15625-.38965.5098.5098,0,0,1,.38379-.16211.55349.55349,0,0,1,.55224.55176v.49219a3.99138,3.99138,0,0,1,.98389-.80469,2.49315,2.49315,0,0,1,1.248-.2998,2.07571,2.07571,0,0,1,1.146.3125,2.03573,2.03573,0,0,1,.74414.85156,2.72278,2.72278,0,0,1,.25782,1.18848v3.40722a.51446.51446,0,0,1-.16211.38477.54384.54384,0,0,1-.39014.15527.532.532,0,0,1-.54-.54v-3.28711q0-1.46484-1.31982-1.46484a1.90908,1.90908,0,0,0-1.07373.3125,3.884,3.884,0,0,0-.894.83984v3.59961a.51446.51446,0,0,1-.16211.38477.54384.54384,0,0,1-.39013.15527A.52213.52213,0,0,1,230.37408,205.21737Z"/>
      <path class="cls-27" d="M238.108,205.21737a1.71047,1.71047,0,0,1-.71387-.62988,1.73631,1.73631,0,0,1-.26416-.95411,1.681,1.681,0,0,1,.70215-1.416,3.38421,3.38421,0,0,1,2.0581-.52832h1.45166v-.09571a1.463,1.463,0,0,0-.38965-1.14062,1.79684,1.79684,0,0,0-1.21826-.34766,4.09887,4.09887,0,0,0-.81006.07227,6.8065,6.8065,0,0,0-.78564.21582.69484.69484,0,0,1-.15625.02344.42276.42276,0,0,1-.312-.13184.439.439,0,0,1-.13184-.32324.4621.4621,0,0,1,.312-.45606,5.27619,5.27619,0,0,1,2.07569-.43261,2.71572,2.71572,0,0,1,1.39843.33593,2.12064,2.12064,0,0,1,.83985.87012,2.52974,2.52974,0,0,1,.27,1.1582v3.39551a.51446.51446,0,0,1-.16211.38477.54384.54384,0,0,1-.39014.15527.532.532,0,0,1-.54-.54v-.31152a3.012,3.012,0,0,1-2.25586.91211A2.23742,2.23742,0,0,1,238.108,205.21737Zm2.40625-1.002a2.81923,2.81923,0,0,0,.82763-.64257V202.565h-1.30762q-1.812,0-1.812.94825a.891.891,0,0,0,.29395.69629,1.45351,1.45351,0,0,0,.978.26367A2.17236,2.17236,0,0,0,240.51422,204.21541Z"/>
      <path class="cls-27" d="M244.42584,205.21737a.524.524,0,0,1-.15625-.38477v-5.14746a.53993.53993,0,0,1,.15625-.38965.5098.5098,0,0,1,.38379-.16211.55349.55349,0,0,1,.55224.55176v.49219a2.97408,2.97408,0,0,1,.81006-.792,2.19852,2.19852,0,0,1,1.23-.3125,1.86475,1.86475,0,0,1,1.15186.36035,2.014,2.014,0,0,1,.68408.876,2.41659,2.41659,0,0,1,2.208-1.23632,1.82664,1.82664,0,0,1,1.12207.33593,2.01326,2.01326,0,0,1,.666.86426,2.89793,2.89793,0,0,1,.21582,1.10449v3.45508a.51446.51446,0,0,1-.16211.38477.54384.54384,0,0,1-.39013.15527.532.532,0,0,1-.54-.54v-3.23926a1.91091,1.91091,0,0,0-.27588-1.14648,1.11375,1.11375,0,0,0-.94776-.36621,1.58473,1.58473,0,0,0-1.01416.31836,3.07744,3.07744,0,0,0-.71386.834v3.59961a.51446.51446,0,0,1-.16211.38477.54384.54384,0,0,1-.39014.15527.532.532,0,0,1-.54-.54v-3.23926a1.91091,1.91091,0,0,0-.27588-1.14648,1.11374,1.11374,0,0,0-.94775-.36621,1.58473,1.58473,0,0,0-1.01416.31836,3.07747,3.07747,0,0,0-.71387.834v3.59961a.51446.51446,0,0,1-.16211.38477.54384.54384,0,0,1-.39013.15527A.52213.52213,0,0,1,244.42584,205.21737Z"/>
      <path class="cls-27" d="M255.73589,204.5992a3.197,3.197,0,0,1-.82226-2.3457,3.90926,3.90926,0,0,1,.312-1.57226,2.67149,2.67149,0,0,1,.96-1.16407,2.75917,2.75917,0,0,1,1.59619-.44433,2.79789,2.79789,0,0,1,1.53614.41406,2.68074,2.68074,0,0,1,.98388,1.10449,3.39125,3.39125,0,0,1,.33594,1.50586.52427.52427,0,0,1-.55176.54h-4.06836a1.97168,1.97168,0,0,0,.624,1.30762,2.14795,2.14795,0,0,0,1.47607.46777,3.59183,3.59183,0,0,0,.88233-.0957,3.63093,3.63093,0,0,0,.73779-.27637.5.5,0,0,1,.55176.084.43731.43731,0,0,1,.144.33692.51823.51823,0,0,1-.312.44336,3.73895,3.73895,0,0,1-2.09961.52832A3.06476,3.06476,0,0,1,255.73589,204.5992Zm3.82178-2.85058a1.92263,1.92263,0,0,0-.30566-.9834,1.658,1.658,0,0,0-.666-.582,1.82687,1.82687,0,0,0-1.6084,0,1.61371,1.61371,0,0,0-.65966.582,1.95829,1.95829,0,0,0-.3003.9834Z"/>
    </g>
    <path class="cls-28" d="M212.92862,148.49821c-2.87592,0-3.717.003-3.88051.01653a3.41768,3.41768,0,0,0-1.35754.34118,2.74993,2.74993,0,0,0-.79151.57938,2.95622,2.95622,0,0,0-.79786,1.67542,12.43108,12.43108,0,0,0-.06294,2.03312c-.00106.54844,0,1.27023,0,2.23837,0,2.87359.00318,3.71384.01695,3.877a3.45991,3.45991,0,0,0,.32847,1.33084,2.90189,2.90189,0,0,0,1.88076,1.53639,4.8867,4.8867,0,0,0,1.00025.13245c.17059.00742,1.90937.01272,3.6492.01272s3.47967-.00212,3.646-.0106a4.70606,4.70606,0,0,0,1.03628-.13563,2.8842,2.8842,0,0,0,1.88075-1.53957,3.40325,3.40325,0,0,0,.32477-1.30509c.00932-.11867.01324-2.01077.01324-3.90032,0-1.88987-.00424-3.77847-.01356-3.89715a3.36508,3.36508,0,0,0-.33133-1.31812,2.73025,2.73025,0,0,0-.58966-.80782,2.97418,2.97418,0,0,0-1.67721-.796,12.41365,12.41365,0,0,0-2.03249-.06315Z"/>
    <path class="cls-29" d="M212.92862,148.49821c-2.87592,0-3.717.003-3.88051.01653a3.41768,3.41768,0,0,0-1.35754.34118,2.74993,2.74993,0,0,0-.79151.57938,2.95622,2.95622,0,0,0-.79786,1.67542,12.43108,12.43108,0,0,0-.06294,2.03312c-.00106.54844,0,1.27023,0,2.23837,0,2.87359.00318,3.71384.01695,3.877a3.45991,3.45991,0,0,0,.32847,1.33084,2.90189,2.90189,0,0,0,1.88076,1.53639,4.8867,4.8867,0,0,0,1.00025.13245c.17059.00742,1.90937.01272,3.6492.01272s3.47967-.00212,3.646-.0106a4.70606,4.70606,0,0,0,1.03628-.13563,2.8842,2.8842,0,0,0,1.88075-1.53957,3.40325,3.40325,0,0,0,.32477-1.30509c.00932-.11867.01324-2.01077.01324-3.90032,0-1.88987-.00424-3.77847-.01356-3.89715a3.36508,3.36508,0,0,0-.33133-1.31812,2.73025,2.73025,0,0,0-.58966-.80782,2.97418,2.97418,0,0,0-1.67721-.796,12.41365,12.41365,0,0,0-2.03249-.06315Z"/>
    <path class="cls-6" d="M212.92544,150.2995c-1.38127,0-1.55462.006-2.09713.03073a3.7323,3.7323,0,0,0-1.23441.23628,2.60166,2.60166,0,0,0-1.488,1.48734,3.7151,3.7151,0,0,0-.23629,1.23441c-.02426.54251-.03062.716-.03062,2.09724s.00614,1.55409.03073,2.09659a3.738,3.738,0,0,0,.23628,1.23442,2.60273,2.60273,0,0,0,1.48723,1.488,3.7355,3.7355,0,0,0,1.23463.23628c.54251.02469.71575.03073,2.09691.03073,1.38138,0,1.5542-.006,2.09671-.03073a3.73774,3.73774,0,0,0,1.23505-.23628,2.60592,2.60592,0,0,0,1.48733-1.48787,3.76983,3.76983,0,0,0,.23629-1.23441c.02437-.54251.03073-.71543.03073-2.0967s-.00636-1.55462-.03073-2.09713a3.768,3.768,0,0,0-.23629-1.23441,2.6021,2.6021,0,0,0-1.48765-1.48745,3.744,3.744,0,0,0-1.23547-.23628c-.54251-.02469-.71522-.03073-2.09692-.03073Zm-.45626.91654c.13542-.00021.28651,0,.45626,0,1.358,0,1.51891.00487,2.05517.02924a2.81613,2.81613,0,0,1,.9443.17515,1.68524,1.68524,0,0,1,.96506.96528,2.81006,2.81006,0,0,1,.17515.94409c.02437.53615.02967.6972.02967,2.05453s-.0053,1.51838-.02967,2.05453a2.81266,2.81266,0,0,1-.17515.94409,1.68659,1.68659,0,0,1-.96506.96464,2.80549,2.80549,0,0,1-.9443.17526c-.53615.02437-.69721.02967-2.05517.02967-1.35807,0-1.519-.0053-2.05517-.02967a2.82142,2.82142,0,0,1-.9444-.17536,1.685,1.685,0,0,1-.96549-.965,2.81012,2.81012,0,0,1-.17515-.94409c-.02437-.53615-.02925-.69721-.02925-2.05538s.00488-1.51838.02925-2.05453a2.81549,2.81549,0,0,1,.17515-.9443,1.68548,1.68548,0,0,1,.96549-.96549,2.80956,2.80956,0,0,1,.9444-.17537c.46919-.02119.651-.02754,1.59891-.0286Zm3.17112.84448a.61022.61022,0,1,0,0-.00021Zm-2.71486.7131a2.61151,2.61151,0,1,1-.00011,0Zm0,.91654a1.69534,1.69534,0,1,1-1.69533,1.69534A1.69534,1.69534,0,0,1,212.92544,153.69016Z"/>
  </g>
</svg>
