<svg id="Layer_1" data-name="Layer 1" xmlns="http://www.w3.org/2000/svg" viewBox="0 0 142.73135 84.0115">
  <defs>
    <style>
      .cls-1, .cls-2 {
        fill: #ffba08;
      }

      .cls-1 {
        fill-opacity: 0.1;
      }

      .cls-3, .cls-4 {
        fill: #fff;
      }

      .cls-4 {
        fill-rule: evenodd;
      }
    </style>
  </defs>
  <rect class="cls-1" x="18.49671" y="16.42199" width="108.48934" height="54.15407" rx="5.5931" transform="translate(-1.74446 3.05978) rotate(-2.38118)"/>
  <path class="cls-2" d="M14.16661,13.27031A5.59271,5.59271,0,0,1,19.93708,7.414L115.496,10.55745a5.59408,5.59408,0,0,1,5.38842,5.09784l3.841,43.4782a5.5938,5.5938,0,0,1-5.33984,6.08046L22.39935,69.247a5.59338,5.59338,0,0,1-5.819-5.32209Z"/>
  <path class="cls-3" d="M37.67908,35.76081a.7441.7441,0,1,0-1.05161.04652A.74358.74358,0,0,0,37.67908,35.76081Z"/>
  <path class="cls-3" d="M45.08767,36.4871a2.23329,2.23329,0,1,0-3.15612.13941A2.23669,2.23669,0,0,0,45.08767,36.4871Zm-2.19652-2.00995a.744.744,0,1,1,.046,1.0511A.74409.74409,0,0,1,42.89115,34.47715Z"/>
  <path class="cls-3" d="M42.16409,41.884a2.23311,2.23311,0,1,0,3.15486-.13941A2.233,2.233,0,0,0,42.16409,41.884Zm2.19652,2.01084a.74479.74479,0,1,1-.046-1.052A.74412.74412,0,0,1,44.36061,43.89479Z"/>
  <path class="cls-3" d="M37.69185,40.64756a.74434.74434,0,0,0,.90084.54459l10.42287-2.56808a.74424.74424,0,0,0-.35649-1.44517l-10.42287,2.568A.74439.74439,0,0,0,37.69185,40.64756Z"/>
  <path class="cls-3" d="M46.56988,24.1666a.74435.74435,0,0,0-.51621.24074l-7.46224,8.15173a.7447.7447,0,0,0,1.09889,1.00536l6.9588-7.6028,9.88236,9.04618-15.95695,17.431L30.69217,43.393l4.977-5.43658a.74415.74415,0,1,0-1.09763-1.00511l-5.47912,5.98552a.74477.74477,0,0,0,.046,1.05149l10.98,10.05116A.74408.74408,0,0,0,41.17,53.99311L58.13126,35.46385a.74391.74391,0,0,0-.046-1.05173L47.10528,24.361A.745.745,0,0,0,46.56988,24.1666Z"/>
  <path class="cls-3" d="M60.591,19.55087l-3.05006,3.33232a5.26067,5.26067,0,0,0-6.28287.21927L48.52489,20.528l-.00766-.00729a2.23213,2.23213,0,0,0-3.15613.14056L25.38938,42.57369a2.23312,2.23312,0,0,0,.13927,3.15536l3.07946,2.81879a5.28907,5.28907,0,0,0,7.01758,6.42341L38.70514,57.79a2.2318,2.2318,0,0,0,3.15356-.13826L61.92756,35.823a2.232,2.232,0,0,0-.13929-3.15446l-.00894-.00716L58.9746,30.16655a5.24761,5.24761,0,0,0-.33605-6.27812l3.05-3.33233a.74418.74418,0,1,0-1.0976-1.00523Zm-3.18295,10.2036a.74515.74515,0,0,0,.05365,1.05864l3.32351,2.95654a.74279.74279,0,0,1,.04473,1.04688L40.76237,56.64527a.74625.74625,0,0,1-1.05288.04651l-3.44364-3.152a.74266.74266,0,0,0-.84716-.11028A3.797,3.797,0,0,1,30.1619,48.618a.74488.74488,0,0,0-.184-.83517l-3.44361-3.152a.74571.74571,0,0,1-.046-1.05328l19.973-21.91244a.74362.74362,0,0,1,1.04777-.04945l3.23792,3.0502a.74328.74328,0,0,0,1.05927-.039,3.746,3.746,0,0,1,4.715-.63059l-1.04268,1.13889a2.23009,2.23009,0,1,0,1.10018,1.00408l1.0414-1.13863A3.74116,3.74116,0,0,1,57.40805,29.75447ZM55.1093,26.64128a.74464.74464,0,1,1-1.05161.04639A.74416.74416,0,0,1,55.1093,26.64128Z"/>
  <path class="cls-4" d="M102.93415,47.42594a10.37765,10.37765,0,0,1-4.48374,2.8616l.12907,2.43392a1.76524,1.76524,0,0,1-1.66879,1.85636l-4.15279.22054a1.7657,1.7657,0,0,1-1.85664-1.669l-.11371-2.161a14.88275,14.88275,0,0,1-6.99586-2.45207,1.76637,1.76637,0,0,1-.62994-2.09083l1.53333-3.904a1.76494,1.76494,0,0,1,2.608-.8326,10.5514,10.5514,0,0,0,3.4449,1.48236l-.14182-2.68437a23.27119,23.27119,0,0,1-2.90568-.904,8.94518,8.94518,0,0,1-3.436-2.40326l-.03194-.03641a7.70554,7.70554,0,0,1-1.66367-4.66391,8.22518,8.22518,0,0,1,2.17351-6.10946,10.70191,10.70191,0,0,1,4.58084-2.966l-.12777-2.403a1.76433,1.76433,0,0,1,1.66879-1.85636l4.15277-.22055a1.76378,1.76378,0,0,1,1.85537,1.669l.12264,2.30831a17.566,17.566,0,0,1,2.585.64094,10.40756,10.40756,0,0,1,3.48325,1.79452,1.76527,1.76527,0,0,1,.529,2.01429l-1.53331,3.90413a1.76528,1.76528,0,0,1-2.599.83849,11.87442,11.87442,0,0,0-2.38051-1.19588l.13929,2.61946a19.56171,19.56171,0,0,1,2.79959.86365,8.16874,8.16874,0,0,1,3.36057,2.40632,7.43993,7.43993,0,0,1,1.66239,4.56705,8.22972,8.22972,0,0,1-2.09683,6.06013ZM99.3717,36.02365a20.42294,20.42294,0,0,0-3.84485-1.05851l-.33606-6.33052a11.2993,11.2993,0,0,1,1.7876.37324,12.42013,12.42013,0,0,1,1.88345.72846,14.3473,14.3473,0,0,1,1.55379.8735l1.53335-3.90414a8.67406,8.67406,0,0,0-2.91205-1.48363,16.20963,16.20963,0,0,0-3.726-.75773l-.20063-3.77776-4.15277.22054.20317,3.81188a9.40585,9.40585,0,0,0-5.106,2.83093,6.46036,6.46036,0,0,0-1.72244,4.83564,5.94659,5.94659,0,0,0,1.24967,3.6197A7.19,7.19,0,0,0,88.347,37.94033a24.69178,24.69178,0,0,0,3.9509,1.12125l.32584,6.12632a12.37607,12.37607,0,0,1-1.77867-.19486,11.955,11.955,0,0,1-2.953-.95462,13.03265,13.03265,0,0,1-1.55379-.87171l-1.53333,3.904a14.11366,14.11366,0,0,0,7.66285,2.25516l.19681,3.70978,4.1515-.22054L96.613,48.96925a9.22236,9.22236,0,0,0,5.00888-2.72347,6.46959,6.46959,0,0,0,1.656-4.79807,5.67925,5.67925,0,0,0-1.24456-3.51748A6.40375,6.40375,0,0,0,99.3717,36.02365ZM95.78624,39.832a4.23928,4.23928,0,0,1,1.5819.8717,1.7965,1.7965,0,0,1,.24532.25006,1.73512,1.73512,0,0,1,.368,1.0143,2.84568,2.84568,0,0,1-.2402,1.38767A2.78266,2.78266,0,0,1,96.04563,44.733Zm-3.749-5.67131a5.04258,5.04258,0,0,1-1.75438-.89662c-.02172-.021-.04344-.0423-.06389-.064a2.15259,2.15259,0,0,1-.59545-1.43674,2.56564,2.56564,0,0,1,.43062-1.65447l.0575-.07807a3.38356,3.38356,0,0,1,1.64706-1.11142Z"/>
  <path class="cls-4" d="M78.33555,39.68462a1.3979,1.3979,0,0,1-1.32122,1.47048l-2.80472.149.15077,2.82556a1.39816,1.39816,0,0,1-1.32251,1.47047l-2.25144.1196A1.398,1.398,0,0,1,69.3157,44.3976L69.16619,41.572l-2.80472.14886a1.39881,1.39881,0,0,1-1.47073-1.32212l-.11757-2.23a1.39808,1.39808,0,0,1,1.32122-1.47047l2.80475-.149-.15078-2.82556a1.3991,1.3991,0,0,1,1.32251-1.47047l2.25145-.1196A1.39812,1.39812,0,0,1,73.793,33.45582l.15078,2.82569,2.80345-.149A1.39882,1.39882,0,0,1,78.218,37.45464ZM72.62131,37.752l-.22488-4.22192-2.25145.1196.22488,4.22192-4.20134.2231.11882,2.23,4.20007-.2231.22491,4.22192,2.25144-.1196L72.74015,39.982l4.20007-.22309-.11884-2.23Z"/>
</svg>
