<svg id="Layer_1" data-name="Layer 1" xmlns="http://www.w3.org/2000/svg" xmlns:xlink="http://www.w3.org/1999/xlink" viewBox="0 0 436.05158 294.60681">
  <defs>
    <style>
      .cls-1 {
        fill: #89c5cc;
      }

      .cls-1, .cls-10, .cls-12, .cls-13, .cls-19, .cls-2, .cls-20, .cls-21, .cls-22, .cls-23, .cls-24, .cls-25, .cls-26, .cls-28, .cls-29, .cls-3, .cls-31, .cls-9 {
        fill-rule: evenodd;
      }

      .cls-2 {
        fill: #69a1ac;
      }

      .cls-3, .cls-4 {
        fill: #f9f9f9;
      }

      .cls-3 {
        opacity: 0.6;
      }

      .cls-3, .cls-8 {
        isolation: isolate;
      }

      .cls-18, .cls-4, .cls-6 {
        stroke: #ffba08;
      }

      .cls-4 {
        stroke-width: 0.36029px;
      }

      .cls-17, .cls-5 {
        fill: #ffba08;
      }

      .cls-18, .cls-55, .cls-56, .cls-59, .cls-6 {
        fill: none;
      }

      .cls-15, .cls-6 {
        stroke-width: 0.34725px;
      }

      .cls-15, .cls-19, .cls-7 {
        fill: #fff;
      }

      .cls-8 {
        fill: #5d616b;
        opacity: 0.5;
      }

      .cls-16, .cls-9 {
        fill: #dde3e9;
      }

      .cls-10 {
        fill: #f2f2f2;
      }

      .cls-11 {
        fill: #f1f4f6;
      }

      .cls-12 {
        fill: #e7f6f0;
      }

      .cls-13 {
        fill: #c5cfd6;
      }

      .cls-14 {
        opacity: 0.4;
      }

      .cls-15 {
        stroke: #0077e4;
      }

      .cls-17 {
        fill-opacity: 0.1;
      }

      .cls-18 {
        stroke-width: 0.66026px;
      }

      .cls-19 {
        fill-opacity: 0.2;
      }

      .cls-20 {
        fill: #fcd094;
      }

      .cls-21 {
        fill: #191847;
      }

      .cls-22 {
        fill: #ce8c3b;
      }

      .cls-23 {
        fill: #004cae;
      }

      .cls-24 {
        fill: #0077e4;
      }

      .cls-25 {
        fill: #e4e4e4;
      }

      .cls-26 {
        fill: #e18812;
      }

      .cls-27 {
        fill: #d00000;
      }

      .cls-28 {
        fill: #27ae60;
      }

      .cls-29 {
        fill: #273043;
      }

      .cls-30 {
        fill: #f9aa8f;
      }

      .cls-31 {
        fill: #e2603d;
      }

      .cls-32 {
        fill: url(#linear-gradient);
      }

      .cls-33 {
        fill: url(#linear-gradient-2);
      }

      .cls-34 {
        fill: url(#linear-gradient-3);
      }

      .cls-35 {
        fill: url(#linear-gradient-4);
      }

      .cls-36 {
        fill: url(#linear-gradient-5);
      }

      .cls-37 {
        fill: url(#linear-gradient-6);
      }

      .cls-38 {
        fill: url(#linear-gradient-7);
      }

      .cls-39 {
        fill: url(#linear-gradient-8);
      }

      .cls-40 {
        fill: url(#linear-gradient-9);
      }

      .cls-41 {
        fill: url(#linear-gradient-10);
      }

      .cls-42 {
        fill: url(#linear-gradient-11);
      }

      .cls-43 {
        fill: url(#linear-gradient-12);
      }

      .cls-44 {
        fill: url(#linear-gradient-13);
      }

      .cls-45 {
        fill: url(#linear-gradient-14);
      }

      .cls-46 {
        fill: url(#linear-gradient-15);
      }

      .cls-47 {
        fill: url(#linear-gradient-16);
      }

      .cls-48 {
        fill: url(#linear-gradient-17);
      }

      .cls-49 {
        fill: url(#linear-gradient-18);
      }

      .cls-50 {
        fill: url(#linear-gradient-19);
      }

      .cls-51 {
        fill: url(#linear-gradient-20);
      }

      .cls-52 {
        fill: url(#linear-gradient-21);
      }

      .cls-53 {
        fill: url(#linear-gradient-22);
      }

      .cls-54 {
        fill: url(#linear-gradient-23);
      }

      .cls-55 {
        stroke: #965657;
        stroke-linecap: square;
      }

      .cls-55, .cls-56, .cls-59 {
        stroke-width: 0.35908px;
      }

      .cls-56 {
        stroke: #45a0d4;
      }

      .cls-57 {
        fill: #41a8df;
      }

      .cls-58 {
        fill: #fb330b;
      }

      .cls-59 {
        stroke: #fb330b;
      }
    </style>
    <linearGradient id="linear-gradient" x1="5844.977" y1="-1520.93978" x2="5844.68022" y2="-1520.54812" gradientTransform="translate(397704.21463 -83272.02945) rotate(180) scale(67.99931 54.86082)" gradientUnits="userSpaceOnUse">
      <stop offset="0.01" stop-color="#708432"/>
      <stop offset="0.46" stop-color="#526032"/>
      <stop offset="1" stop-color="#383932"/>
    </linearGradient>
    <linearGradient id="linear-gradient-2" x1="5844.86189" y1="-1522.44515" x2="5844.9185" y2="-1522.0864" gradientTransform="translate(397704.69815 -80313.28615) rotate(180) scale(67.9994 52.86533)" xlink:href="#linear-gradient"/>
    <linearGradient id="linear-gradient-3" x1="6121.348" y1="-1580.61307" x2="6121.19509" y2="-1579.30656" gradientTransform="translate(98189.87403 -34519.73735) rotate(180) scale(16.00011 21.94407)" gradientUnits="userSpaceOnUse">
      <stop offset="0" stop-color="#fbc19e"/>
      <stop offset="0.48" stop-color="#ffb699"/>
      <stop offset="1" stop-color="#f47e6d"/>
    </linearGradient>
    <linearGradient id="linear-gradient-4" x1="5947.05413" y1="-1529.07225" x2="5947.05413" y2="-1528.78665" gradientTransform="translate(184621.25245 -68443.80886) rotate(180) scale(31 44.88701)" xlink:href="#linear-gradient"/>
    <linearGradient id="linear-gradient-5" x1="5888.83448" y1="-1514.06715" x2="5888.67297" y2="-1514.01876" gradientTransform="translate(265255.26747 -99499.58929) rotate(180) scale(44.99968 65.8329)" xlink:href="#linear-gradient"/>
    <linearGradient id="linear-gradient-6" x1="6207.56601" y1="-1717.6753" x2="6207.49757" y2="-1717.6753" gradientTransform="translate(80963.86045 -15256.85609) rotate(180) scale(13 8.978)" xlink:href="#linear-gradient"/>
    <linearGradient id="linear-gradient-7" x1="5883.91196" y1="-1540.44719" x2="5883.90205" y2="-1540.28211" gradientTransform="translate(276829.13465 -55127.51801) rotate(180) scale(47.001 35.908)" xlink:href="#linear-gradient"/>
    <linearGradient id="linear-gradient-8" x1="5942.66105" y1="-1546.61376" x2="5941.42204" y2="-1546.0507" gradientTransform="translate(190409.34139 -50727.12756) rotate(180) scale(31.99999 32.91599)" xlink:href="#linear-gradient-3"/>
    <linearGradient id="linear-gradient-9" x1="5876.14808" y1="-1505.52388" x2="5876.14808" y2="-1504.8432" gradientTransform="translate(294078.82091 -136444.22328) rotate(180) scale(50.00001 90.76997)" gradientUnits="userSpaceOnUse">
      <stop offset="0" stop-color="#fcfbff"/>
      <stop offset="0.48" stop-color="#f5ede9"/>
      <stop offset="1" stop-color="#a5adbe"/>
    </linearGradient>
    <linearGradient id="linear-gradient-10" x1="5876.32286" y1="-1512.333" x2="5876.07607" y2="-1511.78145" gradientTransform="translate(294076.27239 -105389.80705) rotate(180) scale(49.99957 69.82298)" xlink:href="#linear-gradient-9"/>
    <linearGradient id="linear-gradient-11" x1="5834.47536" y1="-1495.657" x2="5834.37336" y2="-1495.36174" gradientTransform="translate(455353.26953 -226504.08522) rotate(180) scale(77.99909 151.61545)" xlink:href="#linear-gradient-3"/>
    <linearGradient id="linear-gradient-12" x1="5833.35827" y1="-1496.11359" x2="5833.31209" y2="-1495.54642" gradientTransform="translate(461103.54324 -219109.9941) rotate(180) scale(78.99998 146.62791)" xlink:href="#linear-gradient-3"/>
    <linearGradient id="linear-gradient-13" x1="5849.30514" y1="-1516.44165" x2="5849.47386" y2="-1516.44165" gradientTransform="translate(380476.85864 -90555.31017) rotate(180) scale(65.00002 59.8483)" gradientUnits="userSpaceOnUse">
      <stop offset="0" stop-color="#365ead"/>
      <stop offset="1" stop-color="#0c3483"/>
    </linearGradient>
    <linearGradient id="linear-gradient-14" x1="6084.89318" y1="-1590.789" x2="6085.25275" y2="-1590.789" gradientTransform="translate(109818.4378 -28304.38458) rotate(180) scale(17.99964 17.95401)" gradientUnits="userSpaceOnUse">
      <stop offset="0.53" stop-color="#00076d"/>
      <stop offset="1" stop-color="#000030"/>
    </linearGradient>
    <linearGradient id="linear-gradient-15" x1="5991.26845" y1="-1585.08816" x2="5991.62753" y2="-1585.08816" gradientTransform="translate(150038.9612 -29784.20301) rotate(180) scale(24.99974 18.95206)" xlink:href="#linear-gradient-14"/>
    <linearGradient id="linear-gradient-16" x1="5930.62542" y1="-1546.59057" x2="5931.07537" y2="-1547.11412" gradientTransform="translate(201920.69506 -50766.35547) rotate(180) scale(34.00001 32.91823)" xlink:href="#linear-gradient-3"/>
    <linearGradient id="linear-gradient-17" x1="5871.88337" y1="-1523.12112" x2="5871.2923" y2="-1523.54177" gradientTransform="translate(305599.29611 -78853.30176) rotate(180) scale(51.99987 51.86788)" gradientUnits="userSpaceOnUse">
      <stop offset="0" stop-color="#774f6a"/>
      <stop offset="1" stop-color="#44426a"/>
    </linearGradient>
    <linearGradient id="linear-gradient-18" x1="5909.15124" y1="-1529.75554" x2="5909.14965" y2="-1529.36402" gradientTransform="translate(230731.79897 -68500.86488) rotate(180) scale(39.00008 44.88647)" xlink:href="#linear-gradient-17"/>
    <linearGradient id="linear-gradient-19" x1="5917.75259" y1="-1513.2663" x2="5917.70176" y2="-1512.61223" gradientTransform="translate(219240.03935 -102456.32582) rotate(180) scale(36.99982 67.82838)" xlink:href="#linear-gradient"/>
    <linearGradient id="linear-gradient-20" x1="5968.59827" y1="-1582.6449" x2="5968.68129" y2="-1582.31097" gradientTransform="translate(167407.85378 -32974.06939) rotate(180) scale(28 20.94601)" xlink:href="#linear-gradient"/>
    <linearGradient id="linear-gradient-21" x1="5845.76835" y1="-1520.93957" x2="5846.06513" y2="-1520.5482" gradientTransform="translate(397806.4781 -83272.17616) rotate(180) scale(67.99936 54.86092)" xlink:href="#linear-gradient"/>
    <linearGradient id="linear-gradient-22" x1="5845.82663" y1="-1522.43072" x2="5845.88323" y2="-1522.07206" gradientTransform="translate(397805.95074 -80313.96442) rotate(180) scale(67.99927 52.86579)" xlink:href="#linear-gradient"/>
    <linearGradient id="linear-gradient-23" x1="6126.86744" y1="-1580.73404" x2="6126.99771" y2="-1579.36931" gradientTransform="translate(98331.89656 -34523.13124) rotate(180) scale(16.00011 21.94434)" xlink:href="#linear-gradient-3"/>
  </defs>
  <g>
    <path class="cls-1" d="M378.50205,73.98607a3.914,3.914,0,0,0-1.25994-.33874,20.44233,20.44233,0,0,0-3.93984-.36554,72.69814,72.69814,0,0,0-12.181,1.09463c-2.53545.438-5.60051,1.91192-8.12263,1.11143a17.29292,17.29292,0,0,0-13.0039.66494,18.22176,18.22176,0,0,0-8.393,9.01518,22.89425,22.89425,0,0,0-1.58142,4.03909c-.12444.28591-.24517.574-.35331.86663-.30741.8296-.58293,1.67474-.83923,2.52138-.10963.36073-.38516,1.15773-.05777,1.31179a23.85555,23.85555,0,0,0-1.37107,2.98358,43.00554,43.00554,0,0,0-2.74283,9.41813,14.73714,14.73714,0,0,0-.01557,3.52134c.06668.57923.03926,1.74585.43259,2.18657.834.93552,1.26217-.374,1.16809-.99774-.71774-4.75461.66887-9.21887,2.31251-13.68757a28.10409,28.10409,0,0,1,4.765-7.92708,20.01033,20.01033,0,0,1,5.45089-4.74943,85.287,85.287,0,0,1,8.30263-4.11539c1.84879-.83848,3.69984-1.654,5.60049-2.37693a5.58855,5.58855,0,0,1,1.5555-.57413,14.92026,14.92026,0,0,1,3.35245,1,72.80758,72.80758,0,0,0,9.59,2.49768,12.37331,12.37331,0,0,0,5.99384-.73182,5.61108,5.61108,0,0,0,.94367-.51406,13.69541,13.69541,0,0,0,4.01317-2.27131,15.96112,15.96112,0,0,0,1.88066-2.02651,1.05859,1.05859,0,0,0,.24811-.66723c.1289-.0674.21484-.14607.2341-.238C380.62639,73.95814,379.33164,73.94562,378.50205,73.98607Z"/>
    <path class="cls-2" d="M373.623,93.16023a24.83708,24.83708,0,0,0-5.62273-.33035,34.93052,34.93052,0,0,0-25.77968,12.23133c-5.35164,6.33382-6.82343,14.20979-7.88042,22.1702-.10444.79108-.14962,1.57623-.20887,2.368-.01259.17036-.03185.32146-.05185.46442a1.02343,1.02343,0,0,0-.38813,1.28143,53.03483,53.03483,0,0,0-2.35547,6.179c-1.95621,6.239-3.94651,12.59725-2.72061,19.15772a91.71685,91.71685,0,0,1,1.60954-10.85362q.06222-.30555.1326-.60739c.00518-.02147.00963-.043.01406-.0637a23.74633,23.74633,0,0,1,.99034-3.18061l.01259-.03407c.05334-.13629.10963-.27258.16519-.40814.11553-.28146.2348-.56219.36-.84143.043-.09556.08371-.19185.123-.28815.58738-1.43919.83479-3.06061,1.36069-4.54943q.1889-.50777.39553-1.01108l.02446-.05851c.37257-.90292.78441-1.79474,1.21921-2.67692a3.30065,3.30065,0,0,0,.56663-1.02,6.35612,6.35612,0,0,0,.47036-.90886q.38444-.74331.76959-1.48586l-.023.00815c.25776-.4748.517-.94811.774-1.4192q.08443-.15555.17035-.3111c.09259-.16518.18445-.33035.277-.49479.86144-1.54216,1.77474-3.05321,2.72357-4.545.33851-.53258,1.14737-1.29624,1.30219-1.894.00592-.02295.00739-.043.0111-.06443a33.9245,33.9245,0,0,1,7.27007-7.67154c-.34368.37183-1.074,1.63178-1.26661,1.88141-.59109.76366-1.23254,1.47475-1.87623,2.19472a46.9392,46.9392,0,0,0-3.27913,4.02649,76.63216,76.63216,0,0,0-4.899,8.04189c-.01408.0163-.02964.03185-.043.04815a19.62241,19.62241,0,0,0-1.7614,3.37837c2.13621-.98884,4.49758-1.63326,6.6901-2.51174a54.98146,54.98146,0,0,0,6.36566-2.99617,71.11466,71.11466,0,0,0,8.13743-5.185,32.26348,32.26348,0,0,0,7.62858-7.00268,36.77255,36.77255,0,0,0,6.439-10.09439,30.319,30.319,0,0,0,1.62658-5.78865c.01483-.08592.03335-.17925.0541-.27628a19.00122,19.00122,0,0,0,.91106-2.0888C374.47186,94.80016,375.4407,93.55725,373.623,93.16023Z"/>
    <path class="cls-3" d="M429.20438,234.2692c-46.0455,79.076-158.45784,56.49765-264.50011,56.26579-106.04219-.23258-160.8828-39.49392-114.878-68.44456,32.5185-20.46358,200.73076,46.20549,299.48075-5.31755C431.35246,173.96577,435.50634,223.44667,429.20438,234.2692Z"/>
    <rect class="cls-4" x="58.93466" y="4.38531" width="372.42824" height="241.06629" rx="5.57219"/>
    <path class="cls-5" d="M58.95347,24.59574a5.57225,5.57225,0,0,1,5.57222-5.57221H425.54527a5.57222,5.57222,0,0,1,5.57237,5.57221v21.252H58.95347Z"/>
    <path class="cls-6" d="M68.246,14.62675a2.41205,2.41205,0,1,0-2.40724-2.412A2.40961,2.40961,0,0,0,68.246,14.62675Z"/>
    <path class="cls-6" d="M82.2714,14.62675a2.41205,2.41205,0,1,0-2.40731-2.412A2.40963,2.40963,0,0,0,82.2714,14.62675Z"/>
    <path class="cls-6" d="M96.296,14.62675a2.41205,2.41205,0,1,0-2.40731-2.412A2.40963,2.40963,0,0,0,96.296,14.62675Z"/>
    <path class="cls-7" d="M82.43612,28.70483H417.76682a2.78607,2.78607,0,0,1,2.78607,2.78607V215.64346a2.78609,2.78609,0,0,1-2.78609,2.78609H82.43612A2.78609,2.78609,0,0,1,79.65,215.64346V31.49092A2.78609,2.78609,0,0,1,82.43612,28.70483Z"/>
    <rect class="cls-8" x="165.81533" y="55.52957" width="109.68879" height="3.35303" rx="1.41858"/>
    <path class="cls-9" d="M187.6685,105.73749a2.71071,2.71071,0,1,0-2.931-2.70137A2.82282,2.82282,0,0,0,187.6685,105.73749Z"/>
    <path class="cls-10" d="M187.66925,104.19385a1.16193,1.16193,0,1,0-1.25626-1.15773A1.21,1.21,0,0,0,187.66925,104.19385Z"/>
    <path class="cls-9" d="M196.04148,105.73749a2.71065,2.71065,0,1,0-2.93025-2.70137A2.8235,2.8235,0,0,0,196.04148,105.73749Z"/>
    <path class="cls-10" d="M196.04222,104.19385a1.16193,1.16193,0,1,0-1.25623-1.15773A1.20977,1.20977,0,0,0,196.04222,104.19385Z"/>
    <path class="cls-11" d="M106.09207,153.00515h87.79524a1.73641,1.73641,0,0,1,1.73641,1.73641v0a1.73642,1.73642,0,0,1-1.73642,1.73642H106.09207a1.73641,1.73641,0,0,1-1.73641-1.73641v0a1.73641,1.73641,0,0,1,1.73641-1.73641Z"/>
    <path class="cls-11" d="M106.09207,162.22626h57.7893a1.73641,1.73641,0,0,1,1.73641,1.73641h0a1.73641,1.73641,0,0,1-1.73641,1.73641h-57.7893a1.73641,1.73641,0,0,1-1.73641-1.73641h0A1.73641,1.73641,0,0,1,106.09207,162.22626Z"/>
    <path class="cls-11" d="M106.09207,136.37918h87.79525a1.7364,1.7364,0,0,1,1.7364,1.73641h0a1.7364,1.7364,0,0,1-1.7364,1.73641H106.09207a1.73641,1.73641,0,0,1-1.73641-1.73641h0A1.73641,1.73641,0,0,1,106.09207,136.37918Z"/>
    <rect class="cls-11" x="104.35566" y="144.62254" width="61.26212" height="3.4728" rx="1.73639"/>
    <path class="cls-8" d="M119.2632,51.04242v8.14981h-1.877l-.01111-3.73147-1.54586,3.73147h-1.36142l-1.557-3.6857v3.6857H111.045V51.04242h1.68289l2.43767,5.563,2.42657-5.563Zm7.38932,2.33509L123.986,59.3983a3.92017,3.92017,0,0,1-1.32809,1.71689,4.23759,4.23759,0,0,1-1.957.68679l-.48072-1.57957a3.6796,3.6796,0,0,0,1.20144-.41205,1.58877,1.58877,0,0,0,.60664-.69827l.14887-.32051-2.36952-5.41407h2.1525l1.30439,3.35379,1.35106-3.35379Zm6.7723,5.91775a6.93314,6.93314,0,0,1-1.8088-.24036,4.356,4.356,0,0,1-1.45328-.65249l.67553-1.5223a5.23548,5.23548,0,0,0,1.25846.58375,4.86153,4.86153,0,0,0,1.35106.19458,2.4162,2.4162,0,0,0,1.05329-.18317.59475.59475,0,0,0,.36591-.538.57451.57451,0,0,0-.33184-.50361,4.35908,4.35908,0,0,0-1.24736-.40065,6.964,6.964,0,0,1-1.7977-.56087,2.2,2.2,0,0,1-.90367-.80122,2.433,2.433,0,0,1,.17111-2.44953,2.73516,2.73516,0,0,1,1.19106-.93855,4.2419,4.2419,0,0,1,1.751-.3434,5.80052,5.80052,0,0,1,1.70511.25177,3.4725,3.4725,0,0,1,1.30514.641l-.66368,1.52239a4.27593,4.27593,0,0,0-1.13329-.57235,3.61933,3.61933,0,0,0-1.19032-.206,1.70745,1.70745,0,0,0-.93847.22887.66758.66758,0,0,0-.35481.59524.48665.48665,0,0,0,.12592.34339,1.317,1.317,0,0,0,.46887.27473,8.36674,8.36674,0,0,0,1.03033.27466,6.67049,6.67049,0,0,1,1.73993.58383,2.12793,2.12793,0,0,1,.90441.78974,2.08178,2.08178,0,0,1,.263,1.076,2.20964,2.20964,0,0,1-.92737,1.87718A4.36943,4.36943,0,0,1,133.42482,59.29526Zm8.51447-6.078a1.84625,1.84625,0,0,1,1.534.62961,2.8838,2.8838,0,0,1,.51479,1.87718v3.46822h-2.07177V55.81556a1.24246,1.24246,0,0,0-.183-.76686.67334.67334,0,0,0-.57257-.24043.96234.96234,0,0,0-.75478.3205,1.16391,1.16391,0,0,0-.28665.82419v3.23927H138.0476V50.76777h2.07177v3.31942A2.18416,2.18416,0,0,1,141.93929,53.21722Zm6.18123,6.06657a3.69638,3.69638,0,0,1-1.694-.36628,2.6002,2.6002,0,0,1-1.11033-1.05308,3.54359,3.54359,0,0,1,0-3.22786,2.60106,2.60106,0,0,1,1.11033-1.05307,3.6974,3.6974,0,0,1,1.694-.36628,3.509,3.509,0,0,1,1.67177.37776,2.59512,2.59512,0,0,1,1.10959,1.05307,3.1501,3.1501,0,0,1,.38961,1.60246,3.21363,3.21363,0,0,1-.38961,1.61392,2.6866,2.6866,0,0,1-1.10959,1.05308A3.59942,3.59942,0,0,1,148.12052,59.28379Zm0-1.5452q1.12216,0,1.12217-1.48808a1.75639,1.75639,0,0,0-.28666-1.11026.97656.97656,0,0,0-.83551-.36628,1.02277,1.02277,0,0,0-.85849.36628,1.7614,1.7614,0,0,0-.28591,1.11026,1.83657,1.83657,0,0,0,.28591,1.13321A1.03768,1.03768,0,0,0,148.12052,57.73859Zm7.98041-4.52137a2.33825,2.33825,0,0,1,1.32734.38917,2.62656,2.62656,0,0,1,.91626,1.08744,3.69811,3.69811,0,0,1,.33184,1.60245,3.59519,3.59519,0,0,1-.33184,1.57964,2.4237,2.4237,0,0,1-.9044,1.04159,2.61877,2.61877,0,0,1-2.38064.1488,1.71447,1.71447,0,0,1-.72146-.62953v3.22787h-2.07176v-6.616a13.51143,13.51143,0,0,0-.09185-1.67119h1.94584l.11481.90426a1.66426,1.66426,0,0,1,.72072-.76693A2.21044,2.21044,0,0,1,156.10093,53.21722Zm-.62961,4.52137a1.00768,1.00768,0,0,0,.84664-.36636,1.72048,1.72048,0,0,0,.28665-1.07595,1.79647,1.79647,0,0,0-.29776-1.11025.96294.96294,0,0,0-.83553-.40065,1.028,1.028,0,0,0-.85848.37776,1.76633,1.76633,0,0,0-.29777,1.11025,1.724,1.724,0,0,0,.29777,1.08744A1.028,1.028,0,0,0,155.47132,57.73859Z"/>
    <path class="cls-12" d="M4.00319,150.81265a11.58323,11.58323,0,0,1,6.43015-1.56068c8.52254,0,16.53331,3.16209,23.4537,7.87376a54.85163,54.85163,0,0,1,10.17913,9.29145,27.22846,27.22846,0,0,1,4.3613,6.49085,22.37425,22.37425,0,0,1,1.58438,5.00127,51.37228,51.37228,0,0,1,.89922,6.382c.05911.84144.548,5.30571-.85085,5.38126a1.94381,1.94381,0,0,1,.00133.30962c3.03735,4.74868,4.914,10.31512,6.65424,15.59194a106.22353,106.22353,0,0,1,3.7391,13.97351,152.28223,152.28223,0,0,1,2.27065,18.94735c.07733,1.36365.13036,2.728.17614,4.09316q.05811,1.74658.11622,3.49319a22.51693,22.51693,0,0,1,.06489,4.105c-.18059,1.12958-1.15855.95923-1.20173-.16517-.05222-1.35773-.04371-2.71842-.10311-4.07761q-.11844-2.70434-.24866-5.40942a126.47288,126.47288,0,0,0-7.17251-36.694,85.56979,85.56979,0,0,0-6.22871-13.74831A95.79013,95.79013,0,0,0,40.478,178.91815a70.8038,70.8038,0,0,0-8.69631-9.63589,66.93085,66.93085,0,0,0-8.55594-6.29011,93.76272,93.76272,0,0,0-11.71951-6.62491c-2.14162-.96367-4.3236-1.8266-6.48188-2.751-.38836-.16666-.80467-.32813-1.17816-.52072C2.60024,152.45333,3.01042,151.48522,4.00319,150.81265Z"/>
    <path class="cls-12" d="M38.69654,194.77453a23.53879,23.53879,0,0,0-9.7173,1.82289,43.20359,43.20359,0,0,0-7.68709,4.46427A24.11537,24.11537,0,0,0,13.289,209.968c-1.12706,2.214-1.95377,5.34644-1.19691,7.76116.89159,2.84432,3.33971,5.21682,6.564,4.71536a11.87983,11.87983,0,0,0,5.33681-2.87172,20.17166,20.17166,0,0,0,4.462-5.25758c1.95459-3.2369,3.10313-6.89673,4.76351-10.27957.78789-1.60511,1.54927-3.22209,2.49293-4.748a7.65761,7.65761,0,0,1,1.67319-2.06509c.37917-.30074,1.97784-.82071,1.36646-1.49476a19.74523,19.74523,0,0,1,18.6256,15.52306c.16029.794.28554,1.59476.41783,2.394.08356.50442.04978,2.36583.50094,2.688.99485.7111.57665-1.44957.534-1.75991q-.16554-1.20661-.35154-2.40954A20.049,20.049,0,0,0,52.62641,200.638,20.39656,20.39656,0,0,0,38.69654,194.77453Z"/>
    <path class="cls-12" d="M95.479,182.23431a7.59007,7.59007,0,0,0-4.28575-.674,27.49524,27.49524,0,0,0-14.90235,6.40715,35.96964,35.96964,0,0,0-6.15181,6.61971,17.85291,17.85291,0,0,0-2.50064,4.47611,14.66508,14.66508,0,0,0-.76634,3.3532,33.69163,33.69163,0,0,0-.24414,4.21909c.00667.5533-.07259,3.49688.84559,3.471a1.25749,1.25749,0,0,0,.01578.20146A45.03839,45.03839,0,0,0,63.98,220.85567a69.60243,69.60243,0,0,0-1.69149,9.33221,99.85019,99.85019,0,0,0-.46428,12.50391c.02289.89478.06156,1.78957.10518,2.6836q.056,1.14552.112,2.28954a14.76024,14.76024,0,0,0,.17851,2.68582c.17881.72884.80863.56442.77634-.17259-.03889-.89035-.1177-1.77919-.152-2.67026q-.0681-1.77327-.12858-3.548a82.92992,82.92992,0,0,1,2.71255-24.3649,56.10164,56.10164,0,0,1,3.33046-9.31889,62.94618,62.94618,0,0,1,4.39752-7.71376,46.40534,46.40534,0,0,1,5.165-6.76415,43.81522,43.81522,0,0,1,5.25237-4.57092,61.56756,61.56756,0,0,1,7.30192-4.95979c1.34735-.74516,2.72655-1.42587,4.08724-2.14659.24518-.12962.50813-.257.74219-.40293C96.48414,183.23056,96.16415,182.62022,95.479,182.23431Z"/>
    <path class="cls-12" d="M75.17391,212.82934a15.4244,15.4244,0,0,1,6.44788.6681,28.28674,28.28674,0,0,1,5.26349,2.50361,15.819,15.819,0,0,1,5.70939,5.38868,7.354,7.354,0,0,1,1.19921,5.00793,4.00129,4.00129,0,0,1-4.03539,3.43392,7.78567,7.78567,0,0,1-3.64207-1.58881,13.22435,13.22435,0,0,1-3.19839-3.19542c-1.45179-2.01028-2.39915-4.33983-3.66577-6.46121-.60145-1.00663-1.18587-2.02215-1.8851-2.96878a5.01958,5.01958,0,0,0-1.2044-1.25994c-.26369-.17555-1.33624-.42888-.97329-.90292a12.94618,12.94618,0,0,0-11.33583,11.1462c-.062.52812-.10081,1.05774-.14429,1.58735-.0274.334.09481,1.54808-.18266,1.78287-.61182.51851-.45479-.91551-.44361-1.12144q.04323-.7966.10007-1.59252a13.14477,13.14477,0,0,1,3.2035-7.84708A13.3742,13.3742,0,0,1,75.17391,212.82934Z"/>
    <path class="cls-13" d="M45.17657,4.68051l-.00934.01971C45.17123,4.69406,45.17657,4.66942,45.17657,4.68051Z"/>
    <path class="cls-13" d="M45.17035,4.68987,45.169,4.696C45.169,4.68987,45.181,4.67139,45.17035,4.68987Z"/>
    <path class="cls-13" d="M45.21679,4.58565c-.00941.02464-.02141.048-.03208.07268l.016-.03449C45.06176,4.94413,45.15,4.73594,45.21679,4.58565Z"/>
    <path class="cls-13" d="M45.18686,4.65984l-.01607.0345C45.13205,4.76332,45.18686,4.65984,45.18686,4.65984Z"/>
    <path class="cls-13" d="M45.17123,4.69018l.00134-.00247Z"/>
    <path class="cls-13" d="M45.16486,4.699c-.008.01478.03741-.05667,0,0Z"/>
    <path class="cls-13" d="M45.17057,4.69018l.00266-.00247Z"/>
    <rect class="cls-11" x="184.73899" y="72.67204" width="92.94282" height="3.35304" rx="1.67652"/>
    <path class="cls-11" d="M186.41551,81.05481h65.30736a1.67652,1.67652,0,0,1,1.67652,1.67651h0a1.67652,1.67652,0,0,1-1.67652,1.67652H186.41551a1.67652,1.67652,0,0,1-1.67652-1.67652h0A1.67652,1.67652,0,0,1,186.41551,81.05481Z"/>
    <rect class="cls-11" x="184.73899" y="89.43742" width="92.94282" height="4.19128" rx="2.01392"/>
    <g class="cls-14">
      <rect class="cls-15" x="299.45276" y="49.67589" width="45.07842" height="48.08534" rx="5.37044"/>
      <path class="cls-9" d="M321.99181,77.57717c5.69014,0,10.30328-4.25256,10.30328-9.49834s-4.61314-9.49835-10.30328-9.49835c-5.69086,0-10.304,4.25256-10.304,9.49835S316.301,77.57717,321.99181,77.57717Z"/>
      <rect class="cls-16" x="305.89249" y="79.95189" width="32.19882" height="3.56188" rx="1.78093"/>
      <rect class="cls-16" x="311.04412" y="85.88868" width="21.89523" height="3.56187" rx="1.78093"/>
    </g>
    <g class="cls-14">
      <path class="cls-15" d="M358.41132,50.03913h34.33759a5.37042,5.37042,0,0,1,5.37042,5.37042V92.754a5.37042,5.37042,0,0,1-5.37042,5.37042H358.41133a5.37044,5.37044,0,0,1-5.37044-5.37044V55.40957A5.37044,5.37044,0,0,1,358.41132,50.03913Z"/>
      <path class="cls-9" d="M375.58,77.94042c5.69011,0,10.30327-4.25249,10.30327-9.49835,0-5.24578-4.61316-9.49827-10.30327-9.49827-5.69089,0-10.304,4.25249-10.304,9.49827C365.27594,73.68793,369.88908,77.94042,375.58,77.94042Z"/>
      <rect class="cls-16" x="359.47915" y="80.31484" width="32.19889" height="3.56187" rx="1.78093"/>
      <rect class="cls-16" x="364.63227" y="86.25163" width="21.89516" height="3.56188" rx="1.78093"/>
    </g>
    <g class="cls-14">
      <rect class="cls-15" x="299.45276" y="109.5551" width="45.07842" height="48.08533" rx="5.37044"/>
      <path class="cls-9" d="M321.99181,137.45691c5.69014,0,10.30328-4.25241,10.30328-9.49812s-4.61314-9.49887-10.30328-9.49887c-5.69086,0-10.304,4.25316-10.304,9.49887S316.301,137.45691,321.99181,137.45691Z"/>
      <path class="cls-16" d="M307.67342,139.83162h28.637a1.78094,1.78094,0,0,1,1.78093,1.78094h0a1.78094,1.78094,0,0,1-1.78093,1.78093h-28.637a1.78094,1.78094,0,0,1-1.78093-1.78093h0A1.78094,1.78094,0,0,1,307.67342,139.83162Z"/>
      <path class="cls-16" d="M312.825,145.76841h18.33336a1.78093,1.78093,0,0,1,1.78093,1.781h0a1.78093,1.78093,0,0,1-1.78093,1.78094H312.825a1.78093,1.78093,0,0,1-1.78093-1.78094h0A1.78093,1.78093,0,0,1,312.825,145.76841Z"/>
    </g>
    <g class="cls-14">
      <path class="cls-15" d="M358.41133,109.91879h34.33759a5.37042,5.37042,0,0,1,5.37042,5.37042v37.34447a5.37044,5.37044,0,0,1-5.37044,5.37044H358.41133a5.37044,5.37044,0,0,1-5.37044-5.37044V115.28923A5.37044,5.37044,0,0,1,358.41133,109.91879Z"/>
      <path class="cls-9" d="M375.58,137.81985c5.69011,0,10.30327-4.25241,10.30327-9.49812s-4.61316-9.49812-10.30327-9.49812c-5.69089,0-10.304,4.25241-10.304,9.49812S369.88908,137.81985,375.58,137.81985Z"/>
      <rect class="cls-16" x="359.47915" y="140.19458" width="32.19889" height="3.56188" rx="1.78093"/>
      <path class="cls-16" d="M366.4132,146.13137h18.3333a1.78093,1.78093,0,0,1,1.78093,1.78093h0a1.78094,1.78094,0,0,1-1.78093,1.78093H366.4132a1.78094,1.78094,0,0,1-1.78093-1.78093h0A1.78093,1.78093,0,0,1,366.4132,146.13137Z"/>
    </g>
    <g class="cls-14">
      <path class="cls-9" d="M292.90635,190.61322a3.23726,3.23726,0,1,0-3.5006-3.22654A3.3712,3.3712,0,0,0,292.90635,190.61322Z"/>
      <path class="cls-10" d="M292.90784,188.76959a1.38752,1.38752,0,1,0-1.50068-1.38291A1.44523,1.44523,0,0,0,292.90784,188.76959Z"/>
    </g>
    <g class="cls-14">
      <path class="cls-9" d="M292.90486,173.01025a3.2372,3.2372,0,1,0-3.49984-3.22654A3.37237,3.37237,0,0,0,292.90486,173.01025Z"/>
      <path class="cls-10" d="M292.9071,171.16662a1.38747,1.38747,0,1,0-1.49994-1.38291A1.44476,1.44476,0,0,0,292.9071,171.16662Z"/>
    </g>
    <path class="cls-11" d="M301.13,168.23341h95.451a1.67649,1.67649,0,0,1,1.6765,1.67651h0a1.67649,1.67649,0,0,1-1.6765,1.67651H301.13a1.67652,1.67652,0,0,1-1.67652-1.67651h0A1.67652,1.67652,0,0,1,301.13,168.23341Z"/>
    <path class="cls-11" d="M301.13,176.616h69.49394a1.67653,1.67653,0,0,1,1.67652,1.67652h0a1.67653,1.67653,0,0,1-1.67652,1.67652H301.13a1.67653,1.67653,0,0,1-1.67652-1.67652h0A1.67653,1.67653,0,0,1,301.13,176.616Z"/>
    <path class="cls-11" d="M301.4674,184.99863h94.77625a2.0139,2.0139,0,0,1,2.0139,2.0139v.16349a2.0139,2.0139,0,0,1-2.0139,2.0139H301.4674a2.01392,2.01392,0,0,1-2.01392-2.01392v-.16344a2.01392,2.01392,0,0,1,2.01392-2.01392Z"/>
    <path class="cls-11" d="M301.4674,194.219h94.77625a2.0139,2.0139,0,0,1,2.0139,2.0139v.1635a2.0139,2.0139,0,0,1-2.0139,2.0139H301.4674a2.01392,2.01392,0,0,1-2.01392-2.01392v-.16345a2.01392,2.01392,0,0,1,2.01392-2.01392Z"/>
    <rect class="cls-5" x="191.77426" y="112.44906" width="33.85645" height="12.15357" rx="2.01392"/>
    <path class="cls-7" d="M207.844,119.13174a1.237,1.237,0,0,1,.9444,1.25477,1.25376,1.25376,0,0,1-.2237.74293,1.43182,1.43182,0,0,1-.64145.49035,2.49615,2.49615,0,0,1-.974.17333h-2.55989v-5.13535h2.49545a2.0732,2.0732,0,0,1,1.28365.36073,1.15839,1.15839,0,0,1,.47628.97329,1.20468,1.20468,0,0,1-.20961.7A1.18192,1.18192,0,0,1,207.844,119.13174Zm-2.13474-.46146h.9444a1.00971,1.00971,0,0,0,.54814-.11554.41063.41063,0,0,0,.17333-.36814.42989.42989,0,0,0-.18075-.3822.94708.94708,0,0,0-.54072-.12223h-.9444Zm1.08145,2.09844a.9533.9533,0,0,0,.55553-.123.46784.46784,0,0,0,.17331-.4111.48588.48588,0,0,0-.16592-.41776.97239.97239,0,0,0-.56292-.123h-1.08145v1.07478Zm4.91979,1.08884a2.3446,2.3446,0,0,1-1.70215-.5622,2.24209,2.24209,0,0,1-.577-1.66586v-2.97173h1.32v3.0221a1.29973,1.29973,0,0,0,.24517.85108.88815.88815,0,0,0,.71406.29553.85877.85877,0,0,0,.7-.29553,1.32339,1.32339,0,0,0,.24519-.85108v-3.0221h1.334v2.97173a2.21064,2.21064,0,0,1-.59183,1.65845A2.31761,2.31761,0,0,1,211.71047,121.85756ZM217.465,119.831v1.96215h-1.36291v-1.96955l-2.15621-3.1658h1.52884l1.29846,2.04807,1.31993-2.04807h1.54291Z"/>
    <path class="cls-7" d="M201.07165,119.48876a1.378,1.378,0,0,1-.4037,1.00293,1.9646,1.9646,0,0,1-1.08217.54071v.8296h-1.03846v-.7933a3.13877,3.13877,0,0,1-1.56513-.51924l.4259-.95255a2.6871,2.6871,0,0,0,1.24.44738v-1.07476a5.06037,5.06037,0,0,1-.82146-.27407,1.52852,1.52852,0,0,1-.56292-.46146,1.274,1.274,0,0,1-.23111-.7933,1.38442,1.38442,0,0,1,.4185-1.00218,2.07253,2.07253,0,0,1,1.09626-.56293v-.82219h1.03846v.80811a3.39958,3.39958,0,0,1,.76442.19481,1.99753,1.99753,0,0,1,.58442.30962l-.42517.95921a3.01928,3.01928,0,0,0-1.01034-.42517v1.08145a4.71862,4.71862,0,0,1,.80073.27405,1.3613,1.3613,0,0,1,.54811.4474A1.272,1.272,0,0,1,201.07165,119.48876ZM198.374,117.354a.42654.42654,0,0,0,.27406.3748v-.7859a.46564.46564,0,0,0-.20148.16592A.43341.43341,0,0,0,198.374,117.354Zm1.12512,2.59618a.42472.42472,0,0,0,.23111-.39627.35233.35233,0,0,0-.23111-.31776Z"/>
    <rect class="cls-17" x="109.37968" y="74.34857" width="68.9581" height="49.85682" rx="2.68522"/>
    <rect class="cls-17" x="106.03093" y="70.99552" width="68.9581" height="49.85682" rx="2.68522"/>
    <path class="cls-7" d="M290.34572,155.02507l-1.11107,2.26287,5.97012-5.00794a28.795,28.795,0,0,1,17.74594-6.72195l4.839-.1274a24.41834,24.41834,0,1,0-7.46488-47.85579l-1.58881.46221a25.834,25.834,0,0,0-17.5904,32.01126l1.05924,3.64577A29.63179,29.63179,0,0,1,290.34572,155.02507Z"/>
    <path class="cls-17" d="M290.34572,155.02507l-1.11107,2.26287,5.97012-5.00794a28.795,28.795,0,0,1,17.74594-6.72195l4.839-.1274a24.41834,24.41834,0,1,0-7.46488-47.85579l-1.58881.46221a25.834,25.834,0,0,0-17.5904,32.01126l1.05924,3.64577A29.63179,29.63179,0,0,1,290.34572,155.02507Z"/>
    <path class="cls-18" d="M286.5718,153.20218l-1.11107,2.26287,5.97012-5.00719a28.79135,28.79135,0,0,1,17.74594-6.72269l4.83905-.1274A24.41834,24.41834,0,1,0,306.551,95.752l-1.58881.46294a25.83318,25.83318,0,0,0-17.59037,32.01053l1.05921,3.64577A29.63144,29.63144,0,0,1,286.5718,153.20218Z"/>
    <path class="cls-5" d="M326.1109,124.17005a4.54435,4.54435,0,0,1-1.33254,3.308,6.47576,6.47576,0,0,1-3.56949,1.78437v2.73691h-3.4265v-2.61766a10.33339,10.33339,0,0,1-5.16424-1.71327l1.40438-3.14135a8.88387,8.88387,0,0,0,4.09316,1.4755v-3.54578a16.90749,16.90749,0,0,1-2.71321-.9044,5.04841,5.04841,0,0,1-1.85623-1.5229,4.20466,4.20466,0,0,1-.76144-2.61767,4.56059,4.56059,0,0,1,1.38067-3.30728,6.81816,6.81816,0,0,1,3.61691-1.85621v-2.71322h3.4265v2.66507a11.31361,11.31361,0,0,1,2.52212.64293,6.64155,6.64155,0,0,1,1.92807,1.02293l-1.40439,3.16505a9.941,9.941,0,0,0-3.33095-1.40365v3.56948a15.46993,15.46993,0,0,1,2.64135.90367,4.50634,4.50634,0,0,1,1.80808,1.4755A4.19522,4.19522,0,0,1,326.1109,124.17005Zm-8.89964-7.04341a1.40809,1.40809,0,0,0,.90441,1.237v-2.594a1.523,1.523,0,0,0-.66663.54738A1.42908,1.42908,0,0,0,317.21126,117.12664Zm3.71246,8.56631a1.40492,1.40492,0,0,0,.76143-1.30883,1.16085,1.16085,0,0,0-.76143-1.04662Z"/>
    <path class="cls-5" d="M308.462,120.20652v3.07542h-4.70277v4.72869h-3.10136v-4.72869h-4.70277v-3.07542h4.70277v-4.7287h3.10136v4.7287Z"/>
    <path class="cls-19" d="M267.93479,191.73318l-6.64713-3.1021v3.1021Z"/>
    <path class="cls-20" d="M175.16309,164.438c1.94807,1.17477,3.86206,1.74215,4.76054,1.51031,2.25325-.58072,2.4599-8.82186.717-12.07061s-10.704-4.665-11.15582,1.77177a8.15017,8.15017,0,0,0,2.16731,5.85458l-2.48582,11.584H176.386Z"/>
    <path class="cls-21" d="M175.52382,156.35982a5.84973,5.84973,0,0,1,2.00362-2.04954c3.17394.04963,3.545-.51923,3.545-2.43693a11.17813,11.17813,0,0,0-4.34649-1.15773,5.23256,5.23256,0,0,0-3.4369.25258,4.61932,4.61932,0,0,0-3.465,2.84136,6.24167,6.24167,0,0,0,1.77252,8.273c.53627-.63553,1.00439-1.25107,1.42216-1.84067a1.80447,1.80447,0,0,1,1.26069-3.09542,1.92061,1.92061,0,0,1,.21777.01259,38.90481,38.90481,0,0,0,.714,6.92711c.57183,1.7266,3.90725,2.15028,5.07016,2.15028,1.00515,0,.97107-.9518.94589-1.63326-.003-.09852-.00667-.19111-.00667-.27407,0-.1748-.22666-.17406-.4822-.17332-.33258.00074-.71478.00148-.71478-.38,0-.41554.57479-.73479,1.08884-1.02a2.50555,2.50555,0,0,0,.737-.51035c.37776-.52813.50443-1.23995-.06444-1.23995a3.90674,3.90674,0,0,0-1.25106.3948,7.298,7.298,0,0,1-2.81691.734c-1.77845,0-2.19325-5.77458-2.19325-5.77458Z"/>
    <path class="cls-20" d="M167.74637,195.70634l20.394,34.09488L203.43006,258.626h3.29321l-25.6182-62.91962Z"/>
    <path class="cls-22" d="M202.12419,256.96454a.5002.5002,0,0,0-.67848.27184,7.20922,7.20922,0,0,0-.48887,1.89918,17.632,17.632,0,0,0,.24739,2.16657h15.48011s.60368-1.99473-.69627-2.154-2.15992-.2874-2.15992-.2874l-7.22118-3.21838a.24652.24652,0,0,0-.32887.13111l-.47332,1.14809a6.22248,6.22248,0,0,1-1.95621.56147A5.29071,5.29071,0,0,1,202.12419,256.96454Z"/>
    <path class="cls-23" d="M199.18432,254.01058l6.3516-1.9214s-4.17391-12.47726-10.23145-27.46183-13.0113-28.921-13.0113-28.921h-17.937A330.5237,330.5237,0,0,0,180.7473,227.7428,244.88634,244.88634,0,0,0,199.18432,254.01058Z"/>
    <path class="cls-20" d="M166.40642,195.70634c-1.92437,11.981-5.6368,27.2885-5.98716,27.76108q-.35109.47218-25.22636,8.453l.71182,2.90359q29.66433-4.27984,31.26092-6.64121c1.59623-2.36065,9.56924-21.01468,12.658-32.47643Z"/>
    <path class="cls-24" d="M141.023,229.41012l1.25329,4.67686q22.18685,1.94656,27.18924-2.81175,5.00089-4.75868,11.401-35.56889H163.76208q-4.05426,25.23007-4.53387,26.28854Q158.74934,223.05485,141.023,229.41012Z"/>
    <path class="cls-25" d="M141.023,229.41012l1.25329,4.67686q22.18685,1.94656,27.18924-2.81175,5.00089-4.75868,11.401-35.56889H163.76208q-4.05426,25.23007-4.53387,26.28854Q158.74934,223.05485,141.023,229.41012Z"/>
    <path class="cls-22" d="M136.45285,231.34856a.50028.50028,0,0,0-.38591-.6207,7.23985,7.23985,0,0,0-1.95473-.15186,17.7785,17.7785,0,0,0-2.091.62c.14962.8481,2.688,15.24529,2.688,15.24529s2.06954.24741,2.00066-1.06c-.06963-1.30809-.09259-2.17769-.09259-2.17769l1.91621-7.66932a.24649.24649,0,0,0-.18666-.30145l-1.21253-.26667a6.21851,6.21851,0,0,1-.89256-1.82881A5.2809,5.2809,0,0,1,136.45285,231.34856Z"/>
    <path class="cls-20" d="M191.17132,173.3895l-9.52627,5.21755,3.51837,3.77614,6.92192-6.33826q5.46978-1.50771,5.00278-2.20583a1.09433,1.09433,0,0,0-1.07553-.36591c-.30442.00963-.58738.01852-.75922-.16517-.39109-.42.35554-1.88882,1.12365-3.2532.76885-1.36365-.05332-1.2444-.52293-1.04885A23.583,23.583,0,0,0,191.17132,173.3895Zm10.42548,8.65371-4.18426,2.29842.2385,4.19909a19.7621,19.7621,0,0,1,5.042-2.60582c2.97247-.82886,4.17538-1.46216,5.62866-3.3132.777-.99033,1.437-2.98136.697-3.63022-.28369-.24814-1.34143.33925-2.42064.93849a10.21464,10.21464,0,0,1-2.171,1.02736c-.69257.14221-.61182-.75553-.54665-1.47254.04665-.514.08445-.93625-.17777-.814C202.47825,178.69149,201.5968,182.04321,201.5968,182.04321Z"/>
    <path class="cls-26" d="M176.47489,178.10189a1.66553,1.66553,0,0,1,1.377-.68,23.18794,23.18794,0,0,0,9.59664-2.53545,2.243,2.243,0,0,1,3.0784,1.00366l.28812.64219a1.97791,1.97791,0,0,1-.46367,2.30213c-3.16506,2.78655-7.24119,4.9235-10.85215,4.822A3.64814,3.64814,0,0,1,176.47489,178.10189Z"/>
    <path class="cls-27" d="M168.00857,205.93184a56.93365,56.93365,0,0,0-5.94419-.58367,2.34907,2.34907,0,0,1-2.3488-1.68735c-1.16217-5.36644.29778-8.80482,1.6355-12.098a17.64919,17.64919,0,0,0,1.74733-6.72639c.00519-7.06859,5.68124-17.94888,6.516-17.94888h5.68643a2.19913,2.19913,0,0,1,2.14288,1.917,81.85957,81.85957,0,0,0,3.04209,11.9595q.33333,1.08439.6622,2.16879a1.83017,1.83017,0,0,0,1.557,1.35181c4.44427.37924,11.56027-1.66216,14.84679-2.70878a2.06031,2.06031,0,0,1,2.53841,1.11476,28.72271,28.72271,0,0,1,2.04882,6.3079,1.64383,1.64383,0,0,1-.9696,1.66289,44.50415,44.50415,0,0,1-15.16678,4.85462,2.39694,2.39694,0,0,0-2.12806,2.2873,16.10739,16.10739,0,0,1-1.44882,6.3027C180.7836,207.59769,174.47423,206.45627,168.00857,205.93184Z"/>
    <path class="cls-28" d="M383.53742,170.66072c7.0745,10.94177,15.31489,21.53614,20.2636,33.49934-.19928-1.40956-.41037-2.81839-.6474-4.225-1.25551-7.45672-2.81618-14.85863-4.4561-22.25166-.83479-3.76429-1.71846-7.51524-2.62436-11.26546-.48736-2.014-.96807-4.02946-1.46587-6.042-.12-.48739-.22365-1.3392-.37478-2.20213,4.80941,14.54828,9.447,29.10767,12.83945,44.00557q.66777,2.93211,1.1348,5.85458c.10593-.44443.21036-.88886.32515-1.33179a81.66919,81.66919,0,0,1,5.88273-15.55343,46.17212,46.17212,0,0,1,4.10352-6.86491c.98814-1.34956,3.31913-2.95394,4.22056-4.33685-4.93089,8.33743-6.71155,18.76959-9.55884,27.83365-.69478,2.21176-1.394,4.41983-2.07918,6.63233,4.2939-7.9382,10.95509-14.46014,20.21767-17.286-11.21138,6.8286-17.93627,18.7881-22.468,31.0187-.01479.14519-.03255.29038-.04815.43554a16.75155,16.75155,0,0,1,5.29017-5.92122c4.87239-3.16357,10.27735-2.24214,15.00381.47182-3.70947-2.17323-10.41361-.19406-13.535,2.01548a29.814,29.814,0,0,0-5.80194,5.77308c-.3978.49628-.93923,1.07478-1.51257,1.69252a71.51095,71.51095,0,0,1-3.96351,14.31052,33.14152,33.14152,0,0,0,.16963-4.545c.00886-.10964.01627-.21927.0259-.32888q-.42329,1.55549-.81553,3.06949a38.94257,38.94257,0,0,0,1.0244-5.96124q.08558-1.30772.17112-2.61545-.02781-2.48209-.21778-4.98053c-.44368-1.617-.93994-3.14282-1.34958-4.41092a54.88938,54.88938,0,0,0-6.30861-13.05427,52.42857,52.42857,0,0,0-8.70483-10.17291c-1.81249-1.64881-3.70871-3.21839-5.57829-4.81017-.67552-.57479-1.88437-1.98955-2.92948-2.72729,7.61154,3.868,15.44528,8.053,20.99762,14.28534q-.97659-3.45656-2.10585-6.8027C394.86729,192.57463,390.07641,180.86918,383.53742,170.66072Z"/>
    <path class="cls-29" d="M391.14154,232.5974c0,12.54318,1.077,22.71166,15.54008,22.71166,14.46238,0,15.54009-10.16848,15.54009-22.71166"/>
    <g>
      <path class="cls-30" d="M246.465,159.59193a76.31857,76.31857,0,0,1-.17237-7.79929c.12389-1.63383.97061-5.26775,3.31075-6.46062,2.3405-1.19324,2.79654-1.26,1.60582,1.48517-1.19072,2.74483-.58925,3.21774-.3106,3.0741.279-.14363.89053-1.1013,1.06-.90345a5.652,5.652,0,0,1-1.41658,3.18579c-.78567.58422-1.09377.2352-.81979,2.77212"/>
      <path class="cls-31" d="M258.756,152.50111l1.4507-1.3717,1.39217,1.4209-4.12586,4.19445L256.324,155.5982l1.22914-1.4805L234.523,140.53431,243.565,130.4825Z"/>
      <path class="cls-32" d="M265.55454,164.04635c-4.45514-.1939-15.95406-1.562-15.22153-10.501a1.34655,1.34655,0,0,0-.45244-1.13649,1.36449,1.36449,0,0,0-1.19072-.30738l-2.68522.6a3.36562,3.36562,0,0,0-2.11536,1.47188,3.32833,3.32833,0,0,0-.44383,2.52794c1.06181,4.63433,4.42032,12.71011,14.9612,14.69512,8.80364,1.66291,9.62271-2.61233,9.32574-5.313A2.29371,2.29371,0,0,0,265.55454,164.04635Z"/>
      <path class="cls-33" d="M267.27958,165.08733c.10413.29912-.01257,6.32238-8.69233,3.97936s-10.64537-5.13345-13.50978-10.51646c-2.13152-3.99911-.58638-5.33849.34939-5.76365a3.3549,3.3549,0,0,0-1.9807,3.83321c1.05462,4.66629,4.4142,12.78049,14.958,14.77484,8.80579,1.67081,9.62558-2.6249,9.32826-5.33849a2.30841,2.30841,0,0,0-.15585-.61762c-.20072-.25962-.31455-.39823-.297-.35118Z"/>
      <path class="cls-34" d="M251.318,146.86243c1.23956-2.80192.77526-2.73154-1.67117-1.51174-2.27228,1.12393-3.17861,4.37938-3.40339,6.17336-.14866,1.63023,2.01984.64276,2.15378.21652.13358-.42551.40577-1.47762,1.343-1.40329.70021-.31959.70021-.46466.66215-.44383C250.15741,149.78393,250.0558,149.66435,251.318,146.86243Z"/>
      <path class="cls-35" d="M264.29416,184.99167s-.32317-2.36995-2.45613-1.65035a3.23427,3.23427,0,0,0-2.23457,2.7556l-2.59474-3.62674,3.89354-10.20622,2.8382-2.2852,4.39984,4.2318"/>
      <path class="cls-36" d="M271.013,162.81577h-5.24405a1.36846,1.36846,0,0,0-1.0636.46861,1.86878,1.86878,0,0,0-.0474,2.04677c.88622,2.10566-9.98861,11.03929-9.80117,13.59883.14,1.87908,2.6292,5.531,3.94524,7.33858a.46049.46049,0,0,0,.50236.167.45244.45244,0,0,0,.32425-.41366c.1124-3.18578.65425-11.3183,3.30356-14.87645a17.19835,17.19835,0,0,1,5.26668-4.45084"/>
      <path class="cls-37" d="M265.9858,162.81541h4.66808v.22192l-2.24319,3.00193-1.77926-1.10885S267.35175,163.05384,265.9858,162.81541Z"/>
      <path class="cls-38" d="M285.52926,187.1713a9.9592,9.9592,0,0,0-4.462-3.4138c-3.00229-1.162-4.5187.297-5.06917,1.57924-.55048,1.28193-4.62643-.08366-4.62643-.08366l4.96468-9.50206,6.4204-1.47367,5.49218,3.551"/>
      <path class="cls-30" d="M269.18344,160.62285a2.29993,2.29993,0,0,1,.73934,2.54123,2.53721,2.53721,0,0,1-1.83347,1.40545,2.72116,2.72116,0,0,0-1.87082,1.93116l-.95085,3.6016,2.03707,4.1747,5.63582-.22048L276.773,169.986l1.78069-4.90832a7.02926,7.02926,0,0,1-2.38144-4.76934"/>
      <path class="cls-39" d="M268.55181,174.277l-1.48876-.87724s.57453-1.7279,1.82666-1.40868,1.45859-.07325.97993-1.80116c-.27218-.97455,2.64788-.97455,1.05319,1.17241-.86934,1.17456,1.19144.79716,1.84138.62121a2.36506,2.36506,0,0,0,1.76346-2.22487c-.02263-1.32825-2.26725-1.97388-3.38077-3.36318-1.11352-1.38893-.37273-3.93806-.37273-3.93806l6.35613,1.13075a6.48353,6.48353,0,0,0,1.42341,1.70565l-1.78357,4.82572-3.83967,4.00125-4.37866.15585Z"/>
      <path class="cls-40" d="M264.08446,179.506c-.29625-3.78474-2.96172-5.592-.93542-9.06,3.337-5.69362,4.52661-5.83977,4.52661-5.83977s-5.72379,7.40932,3.02348,7.47611c5.07168.042,7.22367-5.78016,7.65062-7.12708a16.49522,16.49522,0,0,0-.163,2.31968,13.56822,13.56822,0,0,0,2.08807,7.59209l.03448.19821a2.4971,2.4971,0,0,1-.21725,1.54693l-4.12156,8.36484a3.38617,3.38617,0,0,0,.82446,4.05728l1.23381,1.06181-5.11335,6.01787s-9.34908,4.671-9.34908-5.35931c.00251-.005,1.12752-3.431.51815-11.24864Z"/>
      <path class="cls-41" d="M276.77553,189.18611l1.24422,1.05786-4.55138,5.29181-1.02518.23161-2.58289-1.64712s3.53338-.59931,2.86189-2.71251c-.6722-2.11285-3.02347-1.79-3.05866-5.61965-.03735-3.75529-5.61858-7.005-5.86742-7.14072-.34113-1.66184-1.08012-2.94413-1.40114-4.25837a6.04546,6.04546,0,0,0,1.19933,1.28193c2.98614,2.49814,10.24967,2.20729,13.14891.8338,1.96059-.92967,1.94587-3.94525,1.74155-5.80961a12.66116,12.66116,0,0,0,1.18964,3.403l.05494.10091q.09786.18009.204.35549l.06715.11311c.08977.14292.17918.28368.27362.41906l.03483.19749a2.4604,2.4604,0,0,1-.219,1.54119l-4.15531,8.3318a3.34487,3.34487,0,0,0,.841,4.02892Z"/>
      <path class="cls-42" d="M260.963,207.14027c.37488,11.50933,11.54883,32.35446,25.66833,46.293h2.33584s-22.9903-36.69075-14.03728-54.26068l-5.75179-.17811a8.02694,8.02694,0,0,0-5.889,2.31537,7.8474,7.8474,0,0,0-2.32614,5.83043Z"/>
      <path class="cls-43" d="M283.62468,207.62826c-2.60551,6.89978-11.03247,31.3853-24.66039,45.447h-3.3919s9.67729-8.302,16-49.849L280.054,200.434c2.96243-.25962,4.61781,4.41206,3.57072,7.19423Z"/>
      <path class="cls-44" d="M271.27868,208.10943s4.955-3.59046,11.60413,1.8974c0,0,5.336-11.79229-4.70686-19.612,0,0-9.27763,8.33791-14.51485.65389,0,0-4.36,11.96537-2.004,20.6067.00719.00251.94619,1.57637,9.622-3.546Z"/>
      <path class="cls-45" d="M289.13948,253.43361H286.627a.53432.53432,0,0,0-.48871.31169.5038.5038,0,0,0,.10054.558l3.222,3.29638a.5207.5207,0,0,1-.102.813l-1.41479.88226a.31422.31422,0,0,0-.13538.35729.32822.32822,0,0,0,.31456.22837H292.558l-3.41847-6.447Z"/>
      <path class="cls-46" d="M252.62,257.85788l1.61157-3.91724a1.297,1.297,0,0,1,1.22268-.86539h3.34988l-5.57764,6.80534h-2.97321a.42191.42191,0,0,1-.41545-.32317.41547.41547,0,0,1,.22945-.47l2.55308-1.2295Z"/>
      <path class="cls-30" d="M263.72393,150.08377l-.25136,6.74609a.77563.77563,0,0,0,.377.69052,1.27614,1.27614,0,0,1,.56807.74545c.25137.8697.89484,2.58432,2.27731,2.23637a3.01926,3.01926,0,0,1,3.66229,2.31321l5.68286-2.27838s-1.15374-9.08911-5.41139-10.97c-4.258-1.88123-6.90517.51673-6.90517.51673Z"/>
      <path class="cls-47" d="M263.8313,157.09522c.1203-.01508.56484-.09444.57238-.40289a14.77825,14.77825,0,0,0,.1422-2.7355c-.12748-.0395-.49122-.19642-.6801-.28834l.14-3.6806.01436-.01221c.02981-.02478.09839-.08439.20648-.1641l1.30418-.15908,5.40313-.08977c1.7832.91782,2.989,3.1707,3.78006,5.39127l.01939.05494c.03591.1027.07146.2054.10557.30846q.0973.28557.18421.57453l.03448.11131.07361.24885.04668.15943.08869.31815.06356.23376.04668.1817.05386.21616.0395.15441c.02693.11419.05387.22838.08115.3379l.02191.102.05925.24884.02441.11167.06141.29086v.03232l.32174,1.81086s-.42983.1641-.45173.18673l-.46681.1939a7.90917,7.90917,0,0,1-6.35613-.24884,2.60968,2.60968,0,0,0-1.1961-.24849c.07109-.03016.16194-.05243.24561-.09695,2.39472-1.08946,1.04852-6.36367-1.94982-5.35644-1.70206.572-1.19647,3.30464-1.19647,3.30464a1.29264,1.29264,0,0,0-.15943-.35549,1.2564,1.2564,0,0,0-.24561-.28583,1.21474,1.21474,0,0,0-.14974-.11455.76884.76884,0,0,1-.2826-.33323Z"/>
      <path class="cls-48" d="M263.86075,148.44814a11.88746,11.88746,0,0,1,8.89808-1.91571c6.34463,1.17959,3.45294,8.41835,6.3669,10.71684,2.91432,2.29813,2.231,7.67,2.231,7.67H278.4801s-8.57778.63306-7.73142-2.84537c.846-3.47808-.0851-8.28082-3.72046-8.40614a4.33008,4.33008,0,0,1-3.59047-1.702c-.10521-.15979-.23017-.3045-.34544-.4564A2.25715,2.25715,0,0,1,263.86075,148.44814Z"/>
      <path class="cls-49" d="M270.71564,152.50937c-2.81772-1.975-.58782-3.23713,3.44792-2.22883,2.76027.6898,2.668-.34831,2.334-1.07581,1.38067,2.71682.6582,6.684,2.64859,8.28512,2.90247,2.33333,2.20729,7.78708,2.20729,7.78708h-2.86261s-8.53541.64276-7.693-2.88882c.81476-3.42135-.0298-8.1081-3.37574-8.50919C267.42213,153.87892,273.53337,154.48433,270.71564,152.50937Z"/>
      <path class="cls-50" d="M281.66624,162.81541h-1.89452a1.3439,1.3439,0,0,0-1.343,1.17384c-.32425,2.70677-.76844,9.35053,2.18681,12.109a14.16893,14.16893,0,0,1,4.82,10.52939.55694.55694,0,0,0,.37883.51277.56915.56915,0,0,0,.61978-.17057c2.57355-3.28274,8.33-11.70072,2.57606-14.944-5.93349-3.34666-6.74-7.414-6.852-8.75768a.49625.49625,0,0,0-.49195-.45244Z"/>
      <path class="cls-51" d="M288.71324,172.32322a4.61658,4.61658,0,0,1,2.40838,3.74451c-.20648-1.19933-1.08731-2.71538-3.96069-2.43171-3.8623.38135-6.09364-3.2752-6.09364-3.2752l3.11217-1.81444a16.08745,16.08745,0,0,0,4.53378,3.77683Z"/>
      <path class="cls-30" d="M302.74262,158.87555a76.31834,76.31834,0,0,0,.17237-7.79928c-.12389-1.63383-.97061-5.26775-3.31075-6.46062-2.34051-1.19323-2.79654-1.26-1.60582,1.48517s.58925,3.21774.3106,3.07411c-.279-.14364-.89053-1.10131-1.06-.90346a5.652,5.652,0,0,0,1.41658,3.18579c.78567.58423,1.09377.2352.81978,2.77212"/>
      <path class="cls-52" d="M282.21671,164.03773c4.45515-.19426,15.95406-1.56093,15.22154-10.49348a1.34476,1.34476,0,0,1,.45244-1.13542,1.36559,1.36559,0,0,1,1.19072-.30738l2.68522.59967a3.36568,3.36568,0,0,1,2.11536,1.4708,3.32372,3.32372,0,0,1,.44383,2.52616c-1.06181,4.63827-4.41529,12.70794-14.9612,14.6987-8.80364,1.66184-9.62271-2.61053-9.32574-5.3094a2.29266,2.29266,0,0,1,2.17783-2.05Z"/>
      <path class="cls-53" d="M280.49922,165.0841c-.10413.29912.01221,6.32058,8.68945,3.97828,8.67688-2.3423,10.64214-5.132,13.50547-10.51395,2.1308-3.99767.58639-5.33669-.349-5.76185a3.35421,3.35421,0,0,1,1.98,3.8325c-1.06181,4.66233-4.41529,12.77438-14.96084,14.7759-8.80328,1.6701-9.62235-2.62417-9.32538-5.33705a2.317,2.317,0,0,1,.15584-.61762C280.40263,165.17567,280.51646,165.03742,280.49922,165.0841Z"/>
      <path class="cls-54" d="M297.88961,145.7877c-1.23955-2.80193-.77526-2.73119,1.67117-1.51174,2.27228,1.12393,3.17861,4.37937,3.40339,6.17371.14866,1.63024-2.01984.6424-2.15378.21653-.13358-.42587-.298-1.55232-1.343-1.40366s-1.36343-.41294-1.36343-.41294a.59905.59905,0,0,0,.10628.0754C298.513,149.06361,299.15179,148.59,297.88961,145.7877Z"/>
      <path class="cls-55" d="M238.15686,124.6772l-2.15449-7.52351m-2.69313,9.32755-6.643-5.38625m5.38624,11.16138-7.54074-1.49594"/>
      <circle class="cls-56" cx="235.10466" cy="146.05126" r="0.71817"/>
      <circle class="cls-57" cx="232.59108" cy="119.8382" r="0.71817"/>
      <circle class="cls-58" cx="257.54735" cy="142.28089" r="0.89771"/>
      <circle class="cls-59" cx="247.49302" cy="127.1994" r="0.89771"/>
    </g>
  </g>
</svg>
